<svg xmlns="http://www.w3.org/2000/svg" viewBox="0 0 29.99 29.99"><defs><style>.cls-1{fill:#191919;}.cls-2{fill:#fff;}</style></defs><g id="圖層_2" data-name="圖層 2"><g id="圖層_1-2" data-name="圖層 1"><circle class="cls-1" cx="15" cy="15" r="15"/><path class="cls-2" d="M21.24,10,20,8.74a1.37,1.37,0,0,0-1.88,0L16.85,10,9.74,17.11a0,0,0,0,1,0,0l-.07.11,0,0v0L8.38,21a.45.45,0,0,0,.42.59.32.32,0,0,0,.14,0l3.76-1.25h.05l.11-.08h0L20,13.13l1.25-1.26A1.33,1.33,0,0,0,21.24,10ZM9.5,20.48l.75-2.24,1.49,1.5Zm3.06-1.18-1.64-1.64-.24-.24,6.49-6.49,1.31,1.32.57.57Zm8.06-8-.94.94-1.32-1.32-.56-.56.94-.94a.44.44,0,0,1,.62,0l1.26,1.25A.45.45,0,0,1,20.62,11.25Z"/></g></g></svg>