<svg xmlns="http://www.w3.org/2000/svg" viewBox="0 0 56 66.6"><title>account-success</title><g id="4ae3d0b2-10d8-4ed3-9017-19483dcd2a30" data-name="圖層 2"><g id="ee633b0f-1199-426f-a872-ae3d68c1285a" data-name="圖層 1"><path d="M55.06,10.71,28.56.11a1.45,1.45,0,0,0-1.12,0L.94,10.71A1.5,1.5,0,0,0,0,12.1V30.88A36.8,36.8,0,0,0,27.63,66.55a1.39,1.39,0,0,0,.74,0A36.8,36.8,0,0,0,56,30.88V12.1A1.5,1.5,0,0,0,55.06,10.71ZM53,30.88A33.81,33.81,0,0,1,28,63.55,33.81,33.81,0,0,1,3,30.88V13.12l25-10,25,10Z" fill="#262626"/><path d="M20.79,30.55a3.54,3.54,0,1,0-5,5l6.64,6.64a3.52,3.52,0,0,0,5,0L40.21,29.41a3.54,3.54,0,1,0-5-5L24.93,34.69Z" fill="#262626"/></g></g></svg>