<svg xmlns="http://www.w3.org/2000/svg" viewBox="0 0 56.79 76.39"><title>add-category</title><g id="圖層_2" data-name="圖層 2"><g id="圖層_1-2" data-name="圖層 1"><path d="M49.38,0h-42A7.41,7.41,0,0,0,0,7.41V69a7.41,7.41,0,0,0,7.41,7.41h42A7.42,7.42,0,0,0,56.79,69V7.41A7.42,7.42,0,0,0,49.38,0Zm3.39,7.41V69a3.39,3.39,0,0,1-3.39,3.39h-42A3.39,3.39,0,0,1,4,69V7.41A3.39,3.39,0,0,1,7.41,4h42A3.39,3.39,0,0,1,52.77,7.41Z"/><path d="M26.42,36.79a2.06,2.06,0,0,0,1.81,0c.52-.26,12.66-6.5,12.66-16.6a8.64,8.64,0,0,0-8.54-8.71,8.47,8.47,0,0,0-5,1.66,8.49,8.49,0,0,0-5-1.66,8.65,8.65,0,0,0-8.55,8.71C13.76,30.29,25.91,36.53,26.42,36.79Zm-8.64-16.6a4.62,4.62,0,0,1,4.53-4.7,4.46,4.46,0,0,1,3.46,1.68,2.13,2.13,0,0,0,3.12,0,4.43,4.43,0,0,1,3.46-1.68,4.62,4.62,0,0,1,4.52,4.7c0,6.27-7,11-9.54,12.5C24.78,31.18,17.78,26.46,17.78,20.19Z"/><path d="M44.79,42.29H12a2,2,0,1,0,0,4H44.79a2,2,0,1,0,0-4Z"/><path d="M44.79,51.59H12a2,2,0,0,0,0,4H44.79a2,2,0,0,0,0-4Z"/><path d="M44.79,60.9H12a2,2,0,1,0,0,4H44.79a2,2,0,1,0,0-4Z"/></g></g></svg>