<svg xmlns="http://www.w3.org/2000/svg" viewBox="0 0 83.11 71.4"><title>airplane</title><g id="3fe61093-7d08-49f3-b2c3-2cb52af6e3d2" data-name="圖層 2"><g id="05da3e6a-2ac4-4981-952b-0a6e273ce050" data-name="圖層 1"><path d="M68.75,48.67a3.71,3.71,0,0,0-3.51-6.52l-1.3,9.59Z" fill="none"/><path d="M43.8,8.52a3.72,3.72,0,0,0-4.44-5.94l-4.8,3.07,3.31,1Z" fill="none"/><path d="M54.17,13.84,41.6,9.93,32.19,7h0L22.91,4.12a5.23,5.23,0,0,0-1.65-.27,5,5,0,0,0-2.68.78L14.8,7.05a2.14,2.14,0,0,0,.08,3.67l24.3,13.87.2-.12,13.37-9.61Z" fill="none"/><path d="M61.71,53.31l1.62-11.94h0L64.79,30.5l-16.07,9L51,67.43a2.15,2.15,0,0,0,3.3,1.63l3.78-2.41A5,5,0,0,0,60.41,63l1.3-9.66Z" fill="none"/><path d="M73.35,6.45a21.5,21.5,0,0,0-9.82,3.13L57,14.29h0l-.26.18L23,38.69h0l-5.55,4c-.39.25-.77.5-1.13.75l-.23.17c-.31.22-.61.44-.89.66l-.11.08a19.11,19.11,0,0,0-1.78,1.58h0a10.44,10.44,0,0,0-1.26,1.52,4.44,4.44,0,0,0,4.5,7.06,10.62,10.62,0,0,0,1.91-.5h0a17.07,17.07,0,0,0,2.18-.94l.1,0c.32-.17.65-.34,1-.53l.24-.14q.57-.33,1.14-.69l.05,0,6-3.35h0L63.85,28.74l1.71-1h0l7.07-4a21.41,21.41,0,0,0,7-7.57c1.64-3,2-5.75.88-7.44S76.79,6.24,73.35,6.45Zm-.41,13.78a1,1,0,0,1-.6.5,1,1,0,0,1-.29,0,1,1,0,0,1-.48-.12,1,1,0,0,1-.44-1.35,4.46,4.46,0,0,0-.19-4.44,4.4,4.4,0,0,0-3.94-2,1,1,0,0,1-1-.94,1.08,1.08,0,0,1,.26-.75,1,1,0,0,1,.69-.34,6.47,6.47,0,0,1,6,9.44Z" fill="none"/><path d="M12.36,44.06c.23-.22.47-.43.72-.64l.18-.16.71-.57.26-.2c.23-.18.47-.35.72-.53l.31-.22.87-.58.21-.14,4.58-3.29L9.68,33.93l-.11,0A3.64,3.64,0,0,0,8,33.53a3.7,3.7,0,0,0-2,.59L2.26,36.5A.58.58,0,0,0,2,37a.55.55,0,0,0,.26.48l10,6.66Z" fill="none"/><path d="M24,53.43,23,54l-.18.1c-.32.19-.64.36-1,.53l-.16.08-.93.46-.14.06c-.32.14-.63.28-.94.4l-.06,0,1.8,11.92a.56.56,0,0,0,.33.43.53.53,0,0,0,.54,0l3.74-2.38a3.69,3.69,0,0,0,1.72-3.14v-.11l1.3-11.8-1.28.73-3.67,2.06Z" fill="none"/><path d="M82.16,7.71c-1.5-2.35-4.67-3.51-8.93-3.26a23.5,23.5,0,0,0-10.8,3.46l0,0L56.2,12.38,45.88,9.17A5.69,5.69,0,0,0,38.29.9L33,4.28a5,5,0,0,0-.78.63L23.53,2.22a7,7,0,0,0-6,.72L13.72,5.36a4.15,4.15,0,0,0,.17,7.1L37.41,25.88,22.68,36.47a2.36,2.36,0,0,0-.92-.56L10.37,32.05a5.72,5.72,0,0,0-5.45.39L1.19,34.81A2.59,2.59,0,0,0,0,37a2.55,2.55,0,0,0,1.15,2.17l9.78,6.48c-.19.24-.37.48-.53.72a6.3,6.3,0,0,0-.27,7.3,6.09,6.09,0,0,0,5.38,3,9.22,9.22,0,0,0,1.36-.11l.87-.18,1.75,11.59a2.55,2.55,0,0,0,1.48,2,2.49,2.49,0,0,0,1.07.24,2.56,2.56,0,0,0,1.38-.41l3.73-2.38a5.69,5.69,0,0,0,2.65-4.77l1.31-12A2.56,2.56,0,0,0,31,49.5L46.8,40.61l2.25,27A4.11,4.11,0,0,0,51.34,71a4.17,4.17,0,0,0,1.84.43,4.08,4.08,0,0,0,2.23-.65l3.79-2.42a6.93,6.93,0,0,0,3.19-5.12l1.22-9a4.82,4.82,0,0,0,.91-.45l5.31-3.38A5.7,5.7,0,0,0,65.53,40L67,29.27l6.68-3.75a23.63,23.63,0,0,0,7.69-8.34C83.37,13.43,83.66,10.07,82.16,7.71ZM60.41,63a5,5,0,0,1-2.29,3.68l-3.78,2.41A2.15,2.15,0,0,1,51,67.43L48.72,39.55l16.07-9L63.33,41.36h0L61.71,53.31h0Zm9.48-19.44a3.73,3.73,0,0,1-1.14,5.14l-4.81,3.07,1.3-9.59A3.74,3.74,0,0,1,69.89,43.53ZM39.36,2.58A3.72,3.72,0,0,1,43.8,8.52L37.87,6.68l-3.31-1Zm-.18,22L14.88,10.72a2.14,2.14,0,0,1-.08-3.67l3.78-2.42a5,5,0,0,1,2.68-.78,5.23,5.23,0,0,1,1.65.27L32.19,7h0L41.6,9.93l12.57,3.91-1.42,1L39.38,24.47ZM2,37a.58.58,0,0,1,.26-.48L6,34.12a3.7,3.7,0,0,1,2-.59,3.64,3.64,0,0,1,1.57.36l.11,0,11.24,3.8L16.34,41l-.21.14-.87.58L15,42c-.25.18-.49.35-.72.53l-.26.2-.71.57-.18.16c-.25.21-.49.42-.72.64l-.06.06-10-6.66A.55.55,0,0,1,2,37ZM29.1,50.56l-1.3,11.8v.11a3.69,3.69,0,0,1-1.72,3.14L22.34,68a.53.53,0,0,1-.54,0,.56.56,0,0,1-.33-.43l-1.8-11.92.06,0c.31-.12.62-.26.94-.4l.14-.06.93-.46.16-.08c.31-.17.63-.34,1-.53L23,54l1-.6.13-.08,3.67-2.06ZM79.59,16.23a21.41,21.41,0,0,1-7,7.57l-7.07,4h0l-1.71,1L29.13,48.26h0l-6,3.35-.05,0q-.57.36-1.14.69l-.24.14c-.33.19-.66.36-1,.53l-.1,0a17.07,17.07,0,0,1-2.18.94h0a10.62,10.62,0,0,1-1.91.5,4.44,4.44,0,0,1-4.5-7.06,10.44,10.44,0,0,1,1.26-1.52h0a19.11,19.11,0,0,1,1.78-1.58l.11-.08c.28-.22.58-.44.89-.66l.23-.17c.36-.25.74-.5,1.13-.75l5.55-4h0l33.7-24.22.26-.18h0l6.56-4.71a21.5,21.5,0,0,1,9.82-3.13c3.44-.21,6,.65,7.12,2.34S81.23,13.19,79.59,16.23Z" fill="#262626"/><path d="M66.91,10.79a1,1,0,0,0-.69.34,1.08,1.08,0,0,0-.26.75,1,1,0,0,0,1,.94,4.4,4.4,0,0,1,3.94,2,4.46,4.46,0,0,1,.19,4.44,1,1,0,0,0,.44,1.35,1,1,0,0,0,.48.12,1,1,0,0,0,.29,0,1,1,0,0,0,.6-.5,6.47,6.47,0,0,0-6-9.44Z" fill="#262626"/></g></g></svg>