<svg xmlns="http://www.w3.org/2000/svg" viewBox="0 0 91.58 98.91"><title>attachment</title><g id="1dfd8640-9d64-41b0-b1d5-14bb28ff6f33" data-name="圖層 2"><g id="47526277-3c7a-4a38-a808-c141b81db4a6" data-name="圖層 1"><path d="M60.66,30l-4.1-4.1L27.93,54.58a13.6,13.6,0,0,0-4.32,9.51A10.94,10.94,0,0,0,27,71.92a11.7,11.7,0,0,0,8.35,3.59h0a12.94,12.94,0,0,0,9.1-4L85.93,30.35c7.19-7.2,7.56-18.11.83-24.85C79.61-1.64,67.29-1.86,60.41,5c0,0-41.9,41.55-47,46.63L6.27,58.82A21.76,21.76,0,0,0,0,75.57,25.44,25.44,0,0,0,7.36,92,23.39,23.39,0,0,0,23.8,98.91H24a22.81,22.81,0,0,0,16.28-6.69L81.57,51l-4.1-4.1L36.19,88.12a16.72,16.72,0,0,1-12.34,5,17.63,17.63,0,0,1-12.39-5.18A19.52,19.52,0,0,1,5.83,75.27a16,16,0,0,1,4.54-12.35l7.17-7.17c5.07-5.08,46.95-46.61,47-46.62,4.63-4.62,13.29-4.4,18.16.47,4.51,4.51,4.15,11.66-.83,16.64L40.33,67.39a7.19,7.19,0,0,1-5,2.32,6,6,0,0,1-4.25-1.9,5.15,5.15,0,0,1-1.66-3.72A8,8,0,0,1,32,58.68Z"/></g></g></svg>