<svg xmlns="http://www.w3.org/2000/svg" viewBox="0 0 96 75.33"><title>backup</title><g id="b9fba6dc-e325-42b7-999b-a8ad4e801e7d" data-name="圖層 2"><g id="26883d3b-a5c4-46d5-8b7b-be2a5c9ed691" data-name="圖層 1"><path d="M91.06,6.89H85.67V4.94a5,5,0,0,0-5-4.94H60.06a1.49,1.49,0,0,0-1.25.67l-6.45,9.66H4.94A5,5,0,0,0,0,15.28V65.22A10.12,10.12,0,0,0,10.11,75.33H89.33A6.67,6.67,0,0,0,96,68.67V11.83A5,5,0,0,0,91.06,6.89ZM10.11,72.33A7.12,7.12,0,0,1,3,65.22V15.28a2,2,0,0,1,1.94-1.95H53.17a1.52,1.52,0,0,0,1.25-.66L60.86,3H80.72a2,2,0,0,1,2,1.94V68.67a6.57,6.57,0,0,0,1.1,3.66ZM93,68.67a3.67,3.67,0,0,1-7.33,0V9.89h5.39A1.94,1.94,0,0,1,93,11.83Z"/><path d="M65,35.53a15.27,15.27,0,0,0-29.52-5.07,9.83,9.83,0,0,0-4.69-1.18A10.11,10.11,0,0,0,20.67,39.39a10,10,0,0,0,.21,2,8.39,8.39,0,0,0,1.29,16.68H60.06A11.83,11.83,0,0,0,65,35.53ZM60.06,55.11H22.17a5.39,5.39,0,0,1,0-10.78h.72a1.49,1.49,0,0,0,1.38-2.1,7,7,0,0,1-.6-2.84,7.12,7.12,0,0,1,7.11-7.11A7,7,0,0,1,35.34,34a1.5,1.5,0,0,0,1.44.27,1.48,1.48,0,0,0,1-1.08A12.27,12.27,0,0,1,62,35.94c0,.09,0,.18,0,.27l0,.26A1.5,1.5,0,0,0,63,38a8.83,8.83,0,0,1-2.91,17.16Z"/></g></g></svg>