<svg xmlns="http://www.w3.org/2000/svg" viewBox="0 0 45.69 43.1"><title>brush</title><g id="110d5f1b-03cf-4809-aa74-c8b2128d9ffb" data-name="圖層 2"><g id="fd91e91c-dcc7-4c3a-9f33-567840aaebeb" data-name="圖層 1"><path d="M23.06,22.63a24,24,0,0,0,5.67,4.48C32.55,23,43.9,9.6,45.58,4.25A3.56,3.56,0,0,0,44.69,1a3.57,3.57,0,0,0-3.25-.9C36.09,1.79,22.67,13.14,18.57,17a24.14,24.14,0,0,0,4.48,5.66Z"/><path d="M21.12,32c-.09-.63.47-1.25,1.68-1.77A28.12,28.12,0,0,0,26,28.8a33.38,33.38,0,0,1-4.92-4.2h0a38,38,0,0,1-4.18-4.94,28.47,28.47,0,0,0-1.46,3.22c-.52,1.22-1.15,1.79-1.78,1.69a7.69,7.69,0,0,0-6.6,2.18C2.86,31,6.36,36.06,0,41.48c6.37,2.8,14.21,2.05,19.1-2.84A7.7,7.7,0,0,0,21.12,32Zm-10,0c-2.08,1.52-3.69,3.21-4.18.57a5.47,5.47,0,0,1,1.61-4.1c2.66-2.68,4.73-1.16,5.29-.06C14.3,29.38,13.7,30.13,11.11,32Z"/></g></g></svg>