<svg xmlns="http://www.w3.org/2000/svg" viewBox="0 0 58.75 68.53"><title>cancel-order</title><g id="8f0a66c9-961e-46c1-9b55-259ce88e6d4e" data-name="圖層 2"><g id="3f6faa3b-bc41-4915-87af-53e300e4eb4f" data-name="圖層 1"><path d="M29.18,48.1a15.26,15.26,0,0,1,12.07-9.88l-1.56-23H33.32V18h2v3.18H28.1V18h2V10.57a7.39,7.39,0,0,0-14.78,0V18h2v3.18H10.14V18h2V15.21H5.8L3.2,53.73H28.27c0-.15,0-.3,0-.45a14.59,14.59,0,0,1,.15-2H5.4V48.1ZM15.44,15.21V12H30.06v3.18Z" fill="none"/><path d="M43.5,41A12.25,12.25,0,1,0,55.75,53.28,12.26,12.26,0,0,0,43.5,41ZM48.31,56a1.49,1.49,0,0,1,0,2.12,1.5,1.5,0,0,1-2.12,0L43.5,55.4l-2.69,2.69a1.5,1.5,0,0,1-2.12,0,1.49,1.49,0,0,1,0-2.12l2.69-2.69-2.69-2.69a1.5,1.5,0,0,1,2.12-2.12l2.69,2.69,2.69-2.69a1.5,1.5,0,0,1,2.12,2.12l-2.69,2.69Z" fill="none"/><path d="M48.31,48.47a1.49,1.49,0,0,0-2.12,0L43.5,51.16l-2.69-2.69a1.5,1.5,0,0,0-2.12,2.12l2.69,2.69L38.69,56a1.49,1.49,0,0,0,0,2.12,1.5,1.5,0,0,0,2.12,0L43.5,55.4l2.69,2.69a1.5,1.5,0,0,0,2.12,0,1.49,1.49,0,0,0,0-2.12l-2.69-2.69,2.69-2.69A1.49,1.49,0,0,0,48.31,48.47Z"/><path d="M44.43,38.08,42.67,12H33.32V10.57a10.57,10.57,0,0,0-21.14,0V12H2.83L0,53.89A2.81,2.81,0,0,0,.76,56a2.84,2.84,0,0,0,2.06.9H28.7A15.24,15.24,0,1,0,44.43,38.08Zm-16,13.2a14.59,14.59,0,0,0-.15,2c0,.15,0,.3,0,.45H3.2L5.8,15.21h6.38V18h-2v3.18H17.4V18h-2V10.57a7.39,7.39,0,0,1,14.78,0V18h-2v3.18h7.26V18h-2V15.21h6.37l1.56,23A15.26,15.26,0,0,0,29.18,48.1H5.4v3.18ZM43.5,65.53A12.25,12.25,0,1,1,55.75,53.28,12.26,12.26,0,0,1,43.5,65.53Z"/><rect x="15.44" y="12.03" width="14.62" height="3.18"/></g></g></svg>