<svg id="圖層_1" data-name="圖層 1" xmlns="http://www.w3.org/2000/svg" viewBox="0 0 86.66 81.11"><path d="M81.47,52.47,86.6,20.79a4.11,4.11,0,0,0-4-4.77H24.28L22.22,3.39a4.1,4.1,0,0,0-4-3.45H4.11a4.11,4.11,0,0,0,0,8.22H14.67L23.5,62.41a10.8,10.8,0,1,0,17.35,12H62.5a10.82,10.82,0,1,0,0-8.23H40.85a10.81,10.81,0,0,0-9.48-6.67l-.59-3.59H77.41A4.12,4.12,0,0,0,81.47,52.47Zm-9,14.22a3.61,3.61,0,1,1-3.61,3.61A3.61,3.61,0,0,1,72.49,66.69ZM76.23,33.4H63.81V24.25h13.9Zm-31.55,0V24.25h14V33.4Zm14,5.15V47.7h-14V38.55ZM39.54,24.25V33.4H27.12l-1.48-9.15ZM30.86,66.69a3.61,3.61,0,1,1-3.61,3.61A3.61,3.61,0,0,1,30.86,66.69Zm-1.42-19L28,38.55H39.54V47.7Zm34.37,0V38.55H75.39L73.9,47.7Z"/></svg>