<svg xmlns="http://www.w3.org/2000/svg" viewBox="0 0 106.87 140.62"><title>checkout-loading_1</title><g id="577e06ba-e351-4da6-802b-a9b23c02fd83" data-name="圖層 2"><g id="e666e8fc-847b-4065-875b-1194d018409c" data-name="圖層 1"><path d="M106.87,16.31V6.19A6.19,6.19,0,0,0,100.69,0H6.19A6.19,6.19,0,0,0,0,6.19V16.31A6.2,6.2,0,0,0,6.19,22.5H8.54c-.07,1-.1,1.91-.1,2.84a45.17,45.17,0,0,0,22.5,39l9.55,5.51a.57.57,0,0,1,0,1l-9.55,5.52a45.13,45.13,0,0,0-22.5,39c0,.93,0,1.88.1,2.84H6.19A6.2,6.2,0,0,0,0,124.31v10.13a6.19,6.19,0,0,0,6.19,6.18h94.5a6.18,6.18,0,0,0,6.18-6.18V124.31a6.19,6.19,0,0,0-6.18-6.19H98.34c.06-1,.1-1.9.1-2.84a45.18,45.18,0,0,0-22.5-39h0L66.38,70.8a.57.57,0,0,1,0-1l9.56-5.51a45.21,45.21,0,0,0,22.5-39c0-.93,0-1.88-.1-2.84h2.35A6.19,6.19,0,0,0,106.87,16.31Zm-101.25,0V6.19a.58.58,0,0,1,.57-.57h94.5a.57.57,0,0,1,.56.57V16.31a.56.56,0,0,1-.56.56H6.19A.57.57,0,0,1,5.62,16.31Zm95.63,108v10.13a.56.56,0,0,1-.56.56H6.19a.57.57,0,0,1-.57-.56V124.31a.57.57,0,0,1,.57-.56h94.5A.56.56,0,0,1,101.25,124.31Zm-8.44-99a39.52,39.52,0,0,1-19.69,34.1L63.57,65a6.19,6.19,0,0,0,0,10.72l9.55,5.51a39.52,39.52,0,0,1,19.69,34.1c0,.94,0,1.88-.11,2.84H14.17c-.07-1-.11-1.91-.11-2.84A39.52,39.52,0,0,1,33.75,81.19l9.55-5.52A6.18,6.18,0,0,0,43.3,65l-9.54-5.51a39.53,39.53,0,0,1-19.7-34.1c0-.93,0-1.88.11-2.84H92.7C92.78,23.46,92.81,24.4,92.81,25.34Z" fill="#a88438"/></g></g></svg>