<svg id="圖層_1" data-name="圖層 1" xmlns="http://www.w3.org/2000/svg" viewBox="0 0 90 81.11"><defs><style>.cls-1{fill:#111;}</style></defs><path class="cls-1" d="M14.29,26.53a2.25,2.25,0,0,0,1.51.59,2.19,2.19,0,0,0,1.59-.67l12-12.16a2.23,2.23,0,0,0-3.18-3.13L15.73,21.78l-4.4-4.07A2.23,2.23,0,0,0,8.3,21Z"/><path class="cls-1" d="M35.39,0H2.23A2.23,2.23,0,0,0,0,2.23V35.39a2.23,2.23,0,0,0,2.23,2.23H35.39a2.23,2.23,0,0,0,2.23-2.23V2.23A2.23,2.23,0,0,0,35.39,0ZM33.16,33.16H4.46V4.46h28.7Z"/><path class="cls-1" d="M87.84,9.89H46a2.23,2.23,0,0,0,0,4.46H87.84a2.23,2.23,0,1,0,0-4.46Z"/><path class="cls-1" d="M87.84,23.27H46a2.23,2.23,0,0,0,0,4.46H87.84a2.23,2.23,0,1,0,0-4.46Z"/><path class="cls-1" d="M14.29,70a2.22,2.22,0,0,0,3.1-.08l12-12.15a2.23,2.23,0,0,0-3.18-3.14L15.73,65.27l-4.4-4.06a2.23,2.23,0,1,0-3,3.27Z"/><path class="cls-1" d="M35.39,43.49H2.23A2.23,2.23,0,0,0,0,45.72V78.88a2.23,2.23,0,0,0,2.23,2.23H35.39a2.23,2.23,0,0,0,2.23-2.23V45.72A2.23,2.23,0,0,0,35.39,43.49ZM33.16,76.65H4.46V48h28.7Z"/><path class="cls-1" d="M87.84,53.38H46a2.23,2.23,0,1,0,0,4.46H87.84a2.23,2.23,0,1,0,0-4.46Z"/><path class="cls-1" d="M87.84,66.76H46a2.24,2.24,0,0,0,0,4.47H87.84a2.24,2.24,0,1,0,0-4.47Z"/></svg>