<svg xmlns="http://www.w3.org/2000/svg" viewBox="0 0 99.86 98.75"><defs><style>.cls-1{fill:#262626;}</style></defs><g id="圖層_2" data-name="圖層 2"><g id="圖層_1-2" data-name="圖層 1"><path class="cls-1" d="M39.4,67.81H17.46a1.52,1.52,0,1,0,0,3H39.4a1.52,1.52,0,1,0,0-3Z"/><path class="cls-1" d="M17.46,58.88H47.38a1.52,1.52,0,1,0,0-3H17.46a1.52,1.52,0,1,0,0,3Z"/><path class="cls-1" d="M17.46,46.91H61.35a1.52,1.52,0,0,0,0-3H17.46a1.52,1.52,0,1,0,0,3Z"/><path class="cls-1" d="M17.46,34.94H61.35a1.52,1.52,0,0,0,0-3H17.46a1.52,1.52,0,1,0,0,3Z"/><path class="cls-1" d="M98.3,37.8l-5.43-5.43a5.34,5.34,0,0,0-7.54,0L79.9,37.8l-1.1,1.1V21.45a2.46,2.46,0,0,0,0-.28v0a1.11,1.11,0,0,0-.13-.36.2.2,0,0,0,0-.08,1.28,1.28,0,0,0-.24-.32L58.42.44A2.43,2.43,0,0,0,58.1.2L58,.16A1.63,1.63,0,0,0,57.65,0h0a1.24,1.24,0,0,0-.27,0H9.48A9.49,9.49,0,0,0,0,9.48V89.27a9.49,9.49,0,0,0,9.48,9.48H69.33a9.49,9.49,0,0,0,9.47-9.48V64.84L92.87,50.77l5.43-5.42a5.35,5.35,0,0,0,0-7.55ZM53,70.47l7.18,7.18-9.8,2.63ZM73.68,20H58.86V5.12ZM75.8,89.27a6.48,6.48,0,0,1-6.47,6.48H9.48A6.48,6.48,0,0,1,3,89.27V9.48A6.49,6.49,0,0,1,9.48,3H55.86V21.45a1.5,1.5,0,0,0,1.5,1.5H75.8V41.89L51.19,66.51a1.42,1.42,0,0,0-.22.28l0,0,0,.07a1.33,1.33,0,0,0-.1.24.14.14,0,0,0,0,.06L46.83,82a1.49,1.49,0,0,0,.38,1.45,1.86,1.86,0,0,0,.28.21l.1,0,.23.1.11,0a1,1,0,0,0,.3,0,1.53,1.53,0,0,0,.43,0l14.82-4,.12,0,.12,0a.75.75,0,0,0,.13-.06,1.39,1.39,0,0,0,.31-.23L75.8,67.84Zm.44-26.11h0L63.1,76.3l-8.73-8.73L81,41l8.73,8.73ZM96.18,43.22l-4.37,4.37-8.73-8.73,4.37-4.37a2.41,2.41,0,0,1,3.3,0l5.43,5.43a2.34,2.34,0,0,1,0,3.3Z"/></g></g></svg>