<svg xmlns="http://www.w3.org/2000/svg" viewBox="0 0 49.17 47.57"><title>close-cart</title><g id="bcedb2f3-d9e3-463d-b093-c69bebaa2107" data-name="圖層 2"><g id="7f5385d0-5363-468e-886c-52b2fc775612" data-name="圖層 1"><path d="M7.6,31.14a1.94,1.94,0,0,0,1.93-1.88V7.35a3.67,3.67,0,0,1,3.73-3.61H41.57A3.68,3.68,0,0,1,45.3,7.35V34.74a3.68,3.68,0,0,1-3.73,3.61H18.92a1.87,1.87,0,1,0,0,3.74H41.57a7.49,7.49,0,0,0,7.6-7.35V7.35A7.49,7.49,0,0,0,41.57,0H13.26a7.49,7.49,0,0,0-7.6,7.35V29.26A1.94,1.94,0,0,0,7.6,31.14Z"/><path d="M.15,46.39v0l0,0a1.73,1.73,0,0,0,.4.58,1.83,1.83,0,0,0,.6.39h.06a1.86,1.86,0,0,0,.7.14H14a1.87,1.87,0,1,0,0-3.74H6.6L21.32,29.59a1.86,1.86,0,0,0,0-2.65,2,2,0,0,0-2.74,0L3.87,41.18v-7.1a1.94,1.94,0,0,0-3.87,0V45.7A1.65,1.65,0,0,0,.15,46.39Z"/></g></g></svg>