<svg xmlns="http://www.w3.org/2000/svg" viewBox="0 0 56.87 57.48"><title>copylink</title><g id="3959d914-d51c-4bd2-8a16-44361e261360" data-name="圖層 2"><g id="3d57f114-f4b9-4f24-8da0-19f079200c8b" data-name="圖層 1"><path d="M18.45,38.83a3.08,3.08,0,0,0,2.2.92,3.12,3.12,0,0,0,2.21-.92L38.48,23a3.17,3.17,0,0,0,0-4.44,3.07,3.07,0,0,0-2.21-.93h0a3.06,3.06,0,0,0-2.2.93L18.45,34.39A3.15,3.15,0,0,0,18.45,38.83Z"/><path d="M29.47,33.37,25,37.91l.06.27a4.17,4.17,0,0,1-1.1,3.94l-7.94,8a4.14,4.14,0,0,1-5.87,0L7.25,47.25a4.25,4.25,0,0,1,0-6l8-8a4.11,4.11,0,0,1,3.89-1.11l.27.07,4.49-4.54-.55-.32A10.1,10.1,0,0,0,10.93,29L3,37A10.38,10.38,0,0,0,3,51.55l2.88,2.91a10.1,10.1,0,0,0,14.41,0l8-8A10.37,10.37,0,0,0,29.8,33.94Z"/><path d="M53.89,5.92,51,3A10.12,10.12,0,0,0,36.6,3l-7.94,8a10.36,10.36,0,0,0-1.59,12.49l.33.56,4.49-4.54-.06-.27a4.21,4.21,0,0,1,1.1-3.94l8-8a4.1,4.1,0,0,1,5.86,0l2.88,2.91a4.24,4.24,0,0,1,0,5.94l-7.95,8a4.08,4.08,0,0,1-3.89,1.1l-.27-.06L33,29.78l.54.33A10.12,10.12,0,0,0,46,28.51l7.94-8A10.39,10.39,0,0,0,53.89,5.92Z"/></g></g></svg>