<svg xmlns="http://www.w3.org/2000/svg" viewBox="0 0 51 58"><title>create</title><g id="e98450cf-452e-410c-b53a-9bc49e81f074" data-name="圖層 2"><g id="0fc70776-aee5-48f8-86df-cb0e3dacf08e" data-name="圖層 1"><polygon points="30 8 34.59 8 30 3.41 30 8" fill="none"/><path d="M5,2A3,3,0,0,0,2,5V45a3,3,0,0,0,3,3h6V36H9a1,1,0,1,1,0-2h2V30H9a1,1,0,0,1,0-2h2V24H9a1,1,0,0,1,0-2h2V18H9a1,1,0,0,1,0-2h2V13a5,5,0,0,1,5-5H28V2Z" fill="none"/><path d="M5,48a3,3,0,0,1-3-3V5A3,3,0,0,1,5,2H28V8h2V3.41L34.59,8h2.82L29.71.29h0A1.07,1.07,0,0,0,29.42.1a.32.32,0,0,0-.09,0A1.31,1.31,0,0,0,29.06,0H5A5,5,0,0,0,0,5V45a5,5,0,0,0,5,5h6V48Z" fill="#afafaf"/><path d="M8,35a1,1,0,0,0,1,1h2V34H9A1,1,0,0,0,8,35Z" fill="#afafaf"/><path d="M8,29a1,1,0,0,0,1,1h2V28H9A1,1,0,0,0,8,29Z" fill="#afafaf"/><path d="M8,23a1,1,0,0,0,1,1h2V22H9A1,1,0,0,0,8,23Z" fill="#afafaf"/><path d="M8,17a1,1,0,0,0,1,1h2V16H9A1,1,0,0,0,8,17Z" fill="#afafaf"/><path d="M39,19V10H16a3,3,0,0,0-3,3V53a3,3,0,0,0,3,3H46a3,3,0,0,0,3-3V20H40A1,1,0,0,1,39,19Zm3,25H20a1,1,0,0,1,0-2H42a1,1,0,0,1,0,2Zm0-6H20a1,1,0,0,1,0-2H42a1,1,0,0,1,0,2Zm0-6H20a1,1,0,1,1,0-2H42a1,1,0,0,1,0,2Zm0-8a1,1,0,0,1,0,2H20a1,1,0,0,1,0-2Z" fill="#fffdfd"/><path d="M51,18.94a1.31,1.31,0,0,0-.06-.27.32.32,0,0,0,0-.09,1.07,1.07,0,0,0-.19-.28h0l-10-10h0a1.07,1.07,0,0,0-.28-.19l-.09,0A1.31,1.31,0,0,0,40.06,8H16a5,5,0,0,0-5,5V53a5,5,0,0,0,5,5H46a5,5,0,0,0,5-5V19S51,19,51,18.94ZM49,53a3,3,0,0,1-3,3H16a3,3,0,0,1-3-3V13a3,3,0,0,1,3-3H39v9a1,1,0,0,0,1,1h9ZM41,18V11.41L47.59,18Z" fill="#262626"/><polygon points="41 18 47.59 18 41 11.41 41 18" fill="#fffdfd"/><path d="M42,42H20a1,1,0,0,0,0,2H42a1,1,0,0,0,0-2Z" fill="#262626"/><path d="M42,36H20a1,1,0,0,0,0,2H42a1,1,0,0,0,0-2Z" fill="#262626"/><path d="M42,30H20a1,1,0,1,0,0,2H42a1,1,0,0,0,0-2Z" fill="#262626"/><path d="M20,24a1,1,0,0,0,0,2H42a1,1,0,0,0,0-2Z" fill="#262626"/></g></g></svg>