<svg xmlns="http://www.w3.org/2000/svg" xmlns:xlink="http://www.w3.org/1999/xlink" viewBox="0 0 230 152.57"><defs><clipPath id="9b495713-ac0b-4506-86cd-42e5123ea036" transform="translate(0 -38.72)"><rect width="230" height="230" fill="none"/></clipPath></defs><title>credit-card_1</title><g id="55bddf8b-6ad5-47d3-bd8b-1a0bc51ce42f" data-name="圖層 2"><g id="9d228d5a-0591-46c5-9139-cd5847072af3" data-name="圖層 1"><g clip-path="url(#9b495713-ac0b-4506-86cd-42e5123ea036)"><path d="M213.94,38.72H16.06A16.05,16.05,0,0,0,0,54.74V175.26a16.05,16.05,0,0,0,16.06,16H213.94a16.05,16.05,0,0,0,16.06-16V54.74A16.05,16.05,0,0,0,213.94,38.72Zm11.13,136.54a11.13,11.13,0,0,1-11.13,11.1H16.06a11.13,11.13,0,0,1-11.13-11.1V54.74a11.13,11.13,0,0,1,11.13-11.1H213.94a11.13,11.13,0,0,1,11.13,11.1Z" transform="translate(0 -38.72)"/><path d="M79.32,112.36V92A11.53,11.53,0,0,0,67.8,80.52H34.94A11.53,11.53,0,0,0,23.41,92v20.34a11.53,11.53,0,0,0,11.53,11.51H67.8A11.53,11.53,0,0,0,79.32,112.36Z" transform="translate(0 -38.72)"/><path d="M20.59,146.09H49.51a2.47,2.47,0,0,0,0-4.93H20.59a2.47,2.47,0,0,0,0,4.93Z" transform="translate(0 -38.72)"/><path d="M105.27,143.62a2.46,2.46,0,0,0-2.46-2.46H73.89a2.47,2.47,0,0,0,0,4.93h28.92A2.46,2.46,0,0,0,105.27,143.62Z" transform="translate(0 -38.72)"/><path d="M156.11,141.16H127.19a2.47,2.47,0,0,0,0,4.93h28.92a2.47,2.47,0,0,0,0-4.93Z" transform="translate(0 -38.72)"/><path d="M209.41,141.16H180.49a2.47,2.47,0,0,0,0,4.93h28.92a2.47,2.47,0,0,0,0-4.93Z" transform="translate(0 -38.72)"/><path d="M63.64,163.76H19.08a2.47,2.47,0,0,0,0,4.93H63.64a2.47,2.47,0,1,0,0-4.93Z" transform="translate(0 -38.72)"/><path d="M123.31,163.76H78.75a2.47,2.47,0,1,0,0,4.93h44.56a2.47,2.47,0,0,0,0-4.93Z" transform="translate(0 -38.72)"/><path d="M193.66,65A18.65,18.65,0,0,1,193.89,97a2.47,2.47,0,0,0,1,4.72,2.52,2.52,0,0,0,1.2-.31,23.57,23.57,0,0,0-.05-40.64,2.47,2.47,0,0,0-2.4,4.31Z" transform="translate(0 -38.72)"/><path d="M180.4,69.38a13.26,13.26,0,0,1,0,23.33,2.46,2.46,0,0,0,1.1,4.67,2.43,2.43,0,0,0,1.1-.26A18.19,18.19,0,0,0,182.58,65a2.47,2.47,0,0,0-2.18,4.43Z" transform="translate(0 -38.72)"/><path d="M170.52,69a2.46,2.46,0,1,0-3.18,3.76,11,11,0,0,1,0,16.7,2.46,2.46,0,1,0,3.2,3.74,15.92,15.92,0,0,0,0-24.2Z" transform="translate(0 -38.72)"/><path d="M159.34,73.17a2.47,2.47,0,1,0-3.7,3.26A6.83,6.83,0,0,1,157.26,80a7.2,7.2,0,0,1,0,2.14,6.85,6.85,0,0,1-1.63,3.56,2.48,2.48,0,0,0,.24,3.48,2.5,2.5,0,0,0,1.62.6,2.46,2.46,0,0,0,1.86-.85,11.88,11.88,0,0,0,2.79-6.1,12.59,12.59,0,0,0,.13-1.76,12.84,12.84,0,0,0-.13-1.77A11.71,11.71,0,0,0,159.34,73.17Z" transform="translate(0 -38.72)"/></g></g></g></svg>