<svg xmlns="http://www.w3.org/2000/svg" viewBox="0 0 105.45 118.53"><defs><style>.cls-1{fill:#333;}</style></defs><title>delete2</title><g id="圖層_2" data-name="圖層 2"><g id="圖層_1-2" data-name="圖層 1"><path class="cls-1" d="M70.32,98.91A2.31,2.31,0,0,0,72,98.34a2.22,2.22,0,0,0,.77-1.58L76.5,38.87a2.26,2.26,0,0,0-.57-1.67,2.29,2.29,0,0,0-1.58-.78h-.22a2.29,2.29,0,0,0-2.22,2.17L68.17,96.47a2.25,2.25,0,0,0,.57,1.66A2.31,2.31,0,0,0,70.32,98.91Z"/><path class="cls-1" d="M52.73,98.92A2.31,2.31,0,0,0,55,96.61V38.72A2.36,2.36,0,0,0,53,36.43H52.7a2.34,2.34,0,0,0-2.28,2.31V96.61A2.32,2.32,0,0,0,52.73,98.92Z"/><path class="cls-1" d="M33.47,98.34a2.3,2.3,0,0,0,3.81-1.87l-3.73-57.9a2.38,2.38,0,0,0-2.21-2.15h-.26a2.31,2.31,0,0,0-1.56.78A2.26,2.26,0,0,0,29,38.87l3.74,57.89A2.23,2.23,0,0,0,33.47,98.34Z"/><path class="cls-1" d="M103.15,16.81H75.86L70.78,1.57A2.29,2.29,0,0,0,68.6,0H36.85a2.29,2.29,0,0,0-2.18,1.57L29.59,16.81H2.3a2.3,2.3,0,1,0,0,4.6H7.66l8.22,95a2.3,2.3,0,0,0,2.3,2.11h69.1a2.29,2.29,0,0,0,2.29-2.11l8.22-95h5.36a2.3,2.3,0,0,0,0-4.6ZM38.51,4.6H66.94L71,16.81H34.44ZM85.17,113.92H20.29l-8-92.51H93.17Z"/></g></g></svg>