<svg xmlns="http://www.w3.org/2000/svg" viewBox="0 0 61.67 61.02"><defs><style>.cls-1{fill:#040000;}</style></defs><g id="圖層_2" data-name="圖層 2"><g id="圖層_1-2" data-name="圖層 1"><path class="cls-1" d="M11.43,44.34H24.55a1.91,1.91,0,1,0,0-3.82H11.43a1.91,1.91,0,0,0,0,3.82Z"/><path class="cls-1" d="M11.43,37.18H29.32a1.91,1.91,0,0,0,0-3.81H11.43a1.91,1.91,0,0,0,0,3.81Z"/><path class="cls-1" d="M11.43,30H37.66a1.91,1.91,0,1,0,0-3.81H11.43a1.91,1.91,0,0,0,0,3.81Z"/><path class="cls-1" d="M11.43,22.88H37.66a1.91,1.91,0,1,0,0-3.82H11.43a1.91,1.91,0,0,0,0,3.82Z"/><path class="cls-1" d="M60.45,22.88l-3.24-3.24a4.21,4.21,0,0,0-5.93,0l-2.19,2.19v-8a1.42,1.42,0,0,0,0-.29v-.09A2.09,2.09,0,0,0,48.9,13l-.06-.12a1.82,1.82,0,0,0-.3-.4L36.62.56a2.22,2.22,0,0,0-.4-.31l-.1,0A1.74,1.74,0,0,0,35.65,0l-.12,0-.25,0H6.67A6.67,6.67,0,0,0,0,6.67V54.35A6.67,6.67,0,0,0,6.67,61H42.43a6.67,6.67,0,0,0,6.66-6.67V40.16L60.45,28.81a4.21,4.21,0,0,0,0-5.93Zm-17.83-11H37.17V6.47Zm9.44,12.3L54,22.32a.48.48,0,0,1,.56,0l3.24,3.24a.41.41,0,0,1,.11.28.39.39,0,0,1-.11.28L55.87,28ZM3.79,6.67A2.88,2.88,0,0,1,6.67,3.79H33.38v10a1.9,1.9,0,0,0,1.9,1.89h10v9.91L30.88,40a3.11,3.11,0,0,0-.23.28l-.14.25-.07.18-2.42,9a1.9,1.9,0,0,0,.48,1.83,1.69,1.69,0,0,0,.36.27l.12.07a1.81,1.81,0,0,0,.31.13l.12,0a1.74,1.74,0,0,0,.39.05,1.63,1.63,0,0,0,.54-.06L39.2,49.7l.13-.05.12,0,.21-.09a2.88,2.88,0,0,0,.39-.3L45.3,44v10.4a2.88,2.88,0,0,1-2.87,2.87H6.67a2.88,2.88,0,0,1-2.88-2.87ZM32.53,47.56l.67-2.51L35,46.89Zm2.37-6.18L49.38,26.9l3.81,3.81L38.71,45.19Z"/></g></g></svg>