<svg xmlns="http://www.w3.org/2000/svg" viewBox="0 0 194.28 99.14"><title>diamond</title><g id="圖層_2" data-name="圖層 2"><g id="圖層_1-2" data-name="圖層 1"><path d="M152.72,40.09l.11-.23c0-.11.07-.23.11-.35s0-.14.05-.21a3.05,3.05,0,0,0,.06-.6h0v0a2.76,2.76,0,0,0-.06-.57,1.42,1.42,0,0,0-.05-.22c0-.12-.07-.24-.11-.35a1.63,1.63,0,0,0-.11-.23,2.69,2.69,0,0,0-.16-.29l-.16-.23a1.67,1.67,0,0,0-.12-.16L128.94,9.71a3.17,3.17,0,0,0-2.39-1.09H73.47a3.17,3.17,0,0,0-2.39,1.09L47.74,36.63l-.11.16a1.6,1.6,0,0,0-.16.23,2.69,2.69,0,0,0-.16.29,1.63,1.63,0,0,0-.11.23,2,2,0,0,0-.11.35l-.06.22a3.55,3.55,0,0,0-.06.57v0h0a3.05,3.05,0,0,0,.06.6l.06.21a2,2,0,0,0,.11.35,1.63,1.63,0,0,0,.11.23,2.69,2.69,0,0,0,.16.29l.16.23a1.67,1.67,0,0,0,.12.16L97.63,98.06a.34.34,0,0,1,.06.06l.38.35.08.06a2.62,2.62,0,0,0,.51.3l.14.06a3.26,3.26,0,0,0,.44.15l.17,0a3,3,0,0,0,.6.06h0a3.93,3.93,0,0,0,.6-.06l.16,0a3.81,3.81,0,0,0,.44-.15l.14-.06a3,3,0,0,0,.52-.31l0,0a3.69,3.69,0,0,0,.41-.38l.06,0,49.88-57.29a1.67,1.67,0,0,1,.12-.16l.16-.23A2.69,2.69,0,0,0,152.72,40.09ZM78.3,41.86l13.57,40L57.07,41.86Zm36,0L100,86,85,41.86ZM86.74,35.54,99.57,17.69l12.87,17.85Zm34.17,6.32h22L107.8,82.22ZM143,35.54H120.23l-14.85-20.6h19.73ZM74.91,14.94H93.77L79,35.54H57.05Z"/><path d="M180.77,14a3.16,3.16,0,0,0-3.16,3.16v2.63a3.16,3.16,0,0,0,6.32,0V17.11A3.15,3.15,0,0,0,180.77,14Z"/><path d="M180.77,32a3.16,3.16,0,0,0-3.16,3.16V37.8a3.16,3.16,0,0,0,6.32,0V35.17A3.15,3.15,0,0,0,180.77,32Z"/><path d="M173.06,24.29h-2.63a3.16,3.16,0,1,0,0,6.32h2.63a3.16,3.16,0,0,0,0-6.32Z"/><path d="M191.12,24.29h-2.63a3.16,3.16,0,1,0,0,6.32h2.63a3.16,3.16,0,0,0,0-6.32Z"/><path d="M13.51,4.73a3.15,3.15,0,0,0-3.16,3.16v2.63a3.16,3.16,0,0,0,6.32,0V7.89A3.16,3.16,0,0,0,13.51,4.73Z"/><path d="M13.51,22.79A3.15,3.15,0,0,0,10.35,26v2.63a3.16,3.16,0,0,0,6.32,0V26A3.16,3.16,0,0,0,13.51,22.79Z"/><path d="M5.79,15.07H3.16a3.16,3.16,0,1,0,0,6.32H5.79a3.16,3.16,0,0,0,0-6.32Z"/><path d="M23.85,15.07H21.22a3.16,3.16,0,0,0,0,6.32h2.63a3.16,3.16,0,0,0,0-6.32Z"/><path d="M36.15,32.77a3.77,3.77,0,1,0,3.77,3.77A3.77,3.77,0,0,0,36.15,32.77Z"/><path d="M154.53,2.57a3.78,3.78,0,1,0,3.77,3.78A3.78,3.78,0,0,0,154.53,2.57Z"/><path d="M44.22,0A3.77,3.77,0,1,0,48,3.77,3.77,3.77,0,0,0,44.22,0Z"/></g></g></svg>