<svg xmlns="http://www.w3.org/2000/svg" viewBox="0 0 50.1 47.07"><title>download</title><g id="c3d5a947-fc9e-4d9b-a06f-01baaf5c039e" data-name="圖層 2"><g id="b8325e78-8f4b-404e-b811-f350a059565c" data-name="圖層 1"><path d="M48.05,36.4a2.09,2.09,0,0,0-2,2.05A4.53,4.53,0,0,1,41.48,43H8.62A4.53,4.53,0,0,1,4.1,38.45a2.09,2.09,0,0,0-2-2.05,2.09,2.09,0,0,0-2,2.05,8.63,8.63,0,0,0,8.62,8.62H41.48a8.63,8.63,0,0,0,8.62-8.62A2.09,2.09,0,0,0,48.05,36.4Z"/><path d="M23.6,36.61a2.12,2.12,0,0,0,1,.54l.08,0a2,2,0,0,0,.8,0l.08,0a2.12,2.12,0,0,0,1-.54L39.64,23.47a2.05,2.05,0,0,0-2.9-2.9L27.1,30.22V2.05a2,2,0,0,0-4.1,0V30.22l-9.64-9.65a2.05,2.05,0,0,0-2.9,2.9Z"/></g></g></svg>