<svg xmlns="http://www.w3.org/2000/svg" viewBox="0 0 53.18 53.18"><title>edit</title><g id="c3a27240-b10b-43ff-a300-723968150bc9" data-name="圖層 2"><g id="f7c42337-527d-4d81-902e-36a63dcfdc90" data-name="圖層 1"><path d="M.39,52.79a1.36,1.36,0,0,0,1.37.33L19,47.43l27.8-27.8L33.55,6.37,5.75,34.17.07,51.42A1.34,1.34,0,0,0,.39,52.79ZM4.14,49,8.22,36.65,16.53,45Z" fill="#353331"/><path d="M36.57,2.76H55.33a0,0,0,0,1,0,0V5.53a6.18,6.18,0,0,1-6.18,6.18h-6.4a6.18,6.18,0,0,1-6.18-6.18V2.76A0,0,0,0,1,36.57,2.76Z" transform="translate(73.32 44.84) rotate(-135)" fill="#353331"/></g></g></svg>