<?xml version="1.0" encoding="utf-8"?>
<!-- Generator: Adobe Illustrator 15.1.0, SVG Export Plug-In  -->
<!DOCTYPE svg PUBLIC "-//W3C//DTD SVG 1.1//EN" "http://www.w3.org/Graphics/SVG/1.1/DTD/svg11.dtd" [
	<!ENTITY ns_flows "http://ns.adobe.com/Flows/1.0/">
]>
<svg version="1.1"
	 xmlns="http://www.w3.org/2000/svg" xmlns:xlink="http://www.w3.org/1999/xlink" xmlns:a="http://ns.adobe.com/AdobeSVGViewerExtensions/3.0/"
	 x="0px" y="0px" width="32px" height="32px" viewBox="0 0.001 32 32" enable-background="new 0 0.001 32 32" xml:space="preserve">
<defs>
</defs>
<path fill="#262626" d="M31.577,12.261c-0.003-0.012-0.003-0.021-0.008-0.034c-0.007-0.02-0.018-0.035-0.026-0.055
	c-0.044-0.106-0.095-0.208-0.146-0.311c-0.044-0.091-0.089-0.186-0.138-0.274c-0.032-0.057-0.071-0.112-0.105-0.17
	c-0.074-0.122-0.146-0.242-0.229-0.361c-0.021-0.025-0.043-0.053-0.063-0.079c-0.101-0.134-0.203-0.269-0.317-0.396
	c-0.134-0.154-0.28-0.303-0.433-0.444L28.16,8.615V8.32c0-1.764-1.435-3.199-3.199-3.199h-1.268l-5.492-4.289
	C17.593,0.297,16.811,0,16,0s-1.593,0.297-2.173,0.809l-5.52,4.313H7.04c-1.764,0-3.199,1.436-3.199,3.199v0.295l-1.992,1.556
	c-0.15,0.141-0.292,0.286-0.426,0.44c-0.037,0.042-0.068,0.087-0.103,0.131c-0.095,0.114-0.19,0.232-0.275,0.355
	c-0.029,0.041-0.054,0.083-0.08,0.124c-0.089,0.135-0.174,0.271-0.251,0.409c-0.017,0.031-0.03,0.063-0.047,0.095
	c-0.081,0.151-0.156,0.312-0.222,0.47c-0.004,0.01-0.01,0.02-0.013,0.029c-0.002,0.006-0.002,0.015-0.005,0.019
	C0.151,12.924,0,13.655,0,14.399v14.402c0,0.867,0.348,1.683,0.979,2.295c0.01,0.01,0.023,0.018,0.033,0.024
	c0.001,0.002,0.001,0.002,0.001,0.002c0.115,0.108,0.239,0.205,0.369,0.294c0.068,0.047,0.139,0.091,0.212,0.134
	c0.069,0.042,0.141,0.077,0.214,0.113c0.155,0.077,0.316,0.14,0.482,0.188c0.045,0.016,0.09,0.033,0.136,0.045
	c0.006,0,0.012,0,0.018,0.004c0.247,0.06,0.497,0.102,0.754,0.102h25.602c0.257,0,0.508-0.042,0.754-0.102
	c0.005-0.004,0.012-0.004,0.018-0.004c0.048-0.014,0.094-0.029,0.142-0.045c0.163-0.05,0.321-0.11,0.475-0.188
	c0.073-0.036,0.146-0.071,0.217-0.113c0.071-0.043,0.141-0.083,0.208-0.132c0.129-0.089,0.255-0.186,0.37-0.292
	c0.002-0.004,0.002-0.006,0.004-0.006c0.009-0.011,0.021-0.017,0.031-0.026C31.652,30.484,32,29.669,32,28.802V14.399
	C32,13.663,31.851,12.938,31.577,12.261z M30.72,14.399v14.402c0,0.324-0.091,0.635-0.247,0.915l-8.596-7.949l6.077-5.597
	c0.032-0.029,0.051-0.069,0.076-0.104l2.621-2.424C30.692,13.89,30.72,14.145,30.72,14.399z M29.33,30.635H2.67
	c-0.003,0-0.006-0.002-0.009-0.002c-0.059-0.016-0.117-0.037-0.173-0.06l12.244-11.321c0.702-0.618,1.846-0.608,2.525-0.012
	l12.255,11.333c-0.057,0.022-0.115,0.044-0.173,0.06C29.335,30.633,29.332,30.635,29.33,30.635z M1.28,28.802V14.399
	c0-0.255,0.028-0.51,0.069-0.759l2.619,2.42c0.026,0.039,0.045,0.081,0.078,0.11l6.077,5.597l-8.596,7.949
	C1.372,29.437,1.28,29.128,1.28,28.802z M2.217,11.658c0.143-0.186,0.296-0.359,0.46-0.514l1.163-0.908V14.2l-2.041-1.887
	c0.115-0.221,0.246-0.428,0.389-0.618C2.199,11.682,2.208,11.67,2.217,11.658z M28.16,14.2v-3.964l1.122,0.875
	c0.169,0.156,0.32,0.328,0.461,0.508c0.027,0.031,0.052,0.063,0.077,0.097c0.137,0.182,0.262,0.377,0.37,0.58
	c0.002,0.008,0.005,0.012,0.008,0.02L28.16,14.2z M14.644,1.792c0.749-0.658,1.933-0.684,2.74,0.023l4.229,3.306H10.386
	L14.644,1.792z M7.04,6.399h1.488h14.944h1.489c1.059,0,1.919,0.862,1.919,1.921v0.604v6.493l-5.94,5.473l-2.825-2.601
	c-0.585-0.516-1.336-0.798-2.114-0.798c-0.779,0-1.53,0.282-2.125,0.808l-2.814,2.591l-5.94-5.473V8.925c0,0,0,0,0-0.004V8.32
	C5.121,7.262,5.981,6.399,7.04,6.399z"/>
<path fill="#262626" d="M8.32,12.833h15.36c0.354,0,0.64-0.286,0.64-0.64v-0.065c0-0.354-0.286-0.64-0.64-0.64H8.32
	c-0.354,0-0.64,0.286-0.64,0.64v0.065C7.68,12.547,7.966,12.833,8.32,12.833z"/>
<path fill="#262626" d="M8.32,16.675h15.36c0.354,0,0.64-0.289,0.64-0.643v-0.064c0-0.354-0.286-0.641-0.64-0.641H8.32
	c-0.354,0-0.64,0.287-0.64,0.641v0.064C7.68,16.386,7.966,16.675,8.32,16.675z"/>
</svg>
