<svg xmlns="http://www.w3.org/2000/svg" viewBox="0 0 102.37 93.2"><title>favorite</title><g id="a903c2ad-443c-428b-a0f5-f55585baff07" data-name="圖層 2"><g id="1a5203cc-01e1-4324-a18e-f8e49aa32e8a" data-name="圖層 1"><g id="cee97e12-bed8-48ca-9746-57c28009eecc" data-name="layer1"><path d="M52.24,93.2l-1.07-.64-1.07.64L49,91.27C-3.17,59.84-1.81,32.09,1.2,21.61A29.84,29.84,0,0,1,29.82,0h.54c.95,0,1.94.09,3,.21,8.93,1.09,14.45,5,17.86,9.31C54.57,5.25,60.1,1.3,69,.21a29.87,29.87,0,0,1,31.64,19.92c2.4,7,3.45,18.35-5.15,32.86C87.65,66.27,73.45,79.14,53.31,91.27ZM29.82,7A22.84,22.84,0,0,0,7.93,23.54c-5.26,18.31,10.88,41,43.24,60.84,49.16-30.13,45.27-55,42.88-62A22.82,22.82,0,0,0,69.87,7.16c-7.5.91-12.72,4.43-15.53,10.46l-3.17,6.81L48,17.62c-2.8-6-8-9.55-15.53-10.46C31.7,7.07,30.94,7,30.23,7Z"/></g></g></g></svg>