<svg xmlns="http://www.w3.org/2000/svg" xmlns:xlink="http://www.w3.org/1999/xlink" viewBox="0 0 29.06 53.75"><defs><clipPath id="08920b52-367a-4f1d-9183-3ed2af2b197e"><rect y="0.07" width="29.36" height="53.76" fill="none"/></clipPath></defs><title>fb</title><g id="6f93de99-721a-43ac-aca3-31b04f0aad92" data-name="圖層 2"><g id="6736d81c-cfe9-46f7-9e69-ad496ca26b2a" data-name="圖層 1"><g clip-path="url(#08920b52-367a-4f1d-9183-3ed2af2b197e)"><path d="M28,0H21C13.17,0,8.1,5.19,8.1,13.23v6.1h-7A1.09,1.09,0,0,0,0,20.42v8.84a1.09,1.09,0,0,0,1.09,1.1h7v22.3a1.1,1.1,0,0,0,1.1,1.09h9.14a1.09,1.09,0,0,0,1.1-1.09V30.36h8.2a1.09,1.09,0,0,0,1.09-1.1V20.42a1.08,1.08,0,0,0-.33-.77,1.06,1.06,0,0,0-.77-.32h-8.2V14.16c0-2.49.59-3.75,3.83-3.75H28a1.09,1.09,0,0,0,1.09-1.1V1.11A1.09,1.09,0,0,0,28,0Z"/></g></g></g></svg>