<svg xmlns="http://www.w3.org/2000/svg" viewBox="0 0 67.12 91.79"><title>filter</title><g id="5e7ba8d1-a339-4fae-862f-a6611406a900" data-name="圖層 2"><g id="412b7ebd-0d5e-4bb5-bf34-3ce2c37b7ec3" data-name="圖層 1"><g id="381a0251-8953-4b24-ba1e-2829f59a2dd8" data-name="8"><path d="M13.33,54.28V1.64A1.65,1.65,0,0,0,11.68,0H8A1.64,1.64,0,0,0,6.31,1.64V54.28a9.8,9.8,0,0,0,0,18.32V90.15A1.64,1.64,0,0,0,8,91.79h3.73a1.65,1.65,0,0,0,1.65-1.64V72.6a9.81,9.81,0,0,0,0-18.32Z"/><path d="M37.07,18.65v-17A1.65,1.65,0,0,0,35.43,0H31.69a1.64,1.64,0,0,0-1.64,1.64v17a9.8,9.8,0,0,0,0,18.32V90.15a1.64,1.64,0,0,0,1.64,1.64h3.74a1.65,1.65,0,0,0,1.64-1.64V37a9.8,9.8,0,0,0,0-18.32Z"/><path d="M60.81,42.77V1.64A1.65,1.65,0,0,0,59.17,0H55.43a1.64,1.64,0,0,0-1.64,1.64V42.77a9.8,9.8,0,0,0,0,18.31V90.15a1.64,1.64,0,0,0,1.64,1.64h3.74a1.65,1.65,0,0,0,1.64-1.64V61.08a9.8,9.8,0,0,0,0-18.31Z"/></g></g></g></svg>