<svg xmlns="http://www.w3.org/2000/svg" viewBox="0 0 80.27 61.53"><title>guide</title><g id="91d12d24-0937-48c1-8861-411e86bda6d0" data-name="圖層 2"><g id="f795f72f-a90c-4725-8951-f94c51250347" data-name="圖層 1"><path d="M79,1.29a4.62,4.62,0,0,0-6.24-.16L41.16,29a4,4,0,0,0-1.35,2.65L36.7,42.23l-1.31,1.31,1.35,1.34,1.17-1.17,11.5-3.42,0,0a4.07,4.07,0,0,0,1.86-1.19L79.13,7.53A4.62,4.62,0,0,0,79,1.29Z" fill="#414141"/><path d="M69.88,52.9H18V14.81h34l8.18-7.22h-54A6.13,6.13,0,0,0,0,13.7V55.42a6.13,6.13,0,0,0,6.11,6.11H69.73a6.13,6.13,0,0,0,6.11-6.11V16.57l-6,6.75ZM7,15h7.06v3.78H7Zm0,6.81h7.06v3.78H7ZM14.05,52.9H7V49.12h7.06Zm0-6.8H7V42.31h7.06Zm-3.53-7.53A4.61,4.61,0,1,1,15.13,34,4.61,4.61,0,0,1,10.52,38.57Z" fill="#414141"/></g></g></svg>