<svg xmlns="http://www.w3.org/2000/svg" viewBox="0 0 58.46 58.46"><title>ig</title><g id="64cc812c-e097-44bb-b77d-b40e29705100" data-name="圖層 2"><g id="b2aff228-1d7d-4a2a-83d3-d4c0ee1ed2f8" data-name="圖層 1"><path d="M53,40.19A12.81,12.81,0,0,1,40.19,53H18.27A12.81,12.81,0,0,1,5.48,40.19V18.27A12.81,12.81,0,0,1,18.27,5.48H40.19A12.81,12.81,0,0,1,53,18.27V40.19ZM40.19,0H18.27A18.27,18.27,0,0,0,0,18.27V40.19A18.27,18.27,0,0,0,18.27,58.46H40.19A18.27,18.27,0,0,0,58.46,40.19V18.27A18.27,18.27,0,0,0,40.19,0Z" fill="#0c020b"/><path d="M29.23,38.36a9.13,9.13,0,1,1,9.13-9.13,9.14,9.14,0,0,1-9.13,9.13Zm0-23.75A14.62,14.62,0,1,0,43.84,29.23,14.63,14.63,0,0,0,29.23,14.61Z" fill="#0c020b"/><path d="M44.94,11.57A1.95,1.95,0,1,1,43,13.52a1.95,1.95,0,0,1,1.95-1.95Z" fill="#0c020b"/></g></g></svg>