<?xml version="1.0" encoding="utf-8"?>
<!-- Generator: Adobe Illustrator 15.1.0, SVG Export Plug-In  -->
<!DOCTYPE svg PUBLIC "-//W3C//DTD SVG 1.1//EN" "http://www.w3.org/Graphics/SVG/1.1/DTD/svg11.dtd" [
	<!ENTITY ns_flows "http://ns.adobe.com/Flows/1.0/">
]>
<svg version="1.1"
	 xmlns="http://www.w3.org/2000/svg" xmlns:xlink="http://www.w3.org/1999/xlink" xmlns:a="http://ns.adobe.com/AdobeSVGViewerExtensions/3.0/"
	 x="0px" y="0px" width="32px" height="32px" viewBox="-2.875 0 32 32" enable-background="new -2.875 0 32 32"
	 xml:space="preserve">
<defs>
</defs>
<path fill="#262626" d="M25.169,8.001c-0.282-0.488-0.611-0.937-0.977-1.348c0.504-0.62,0.889-1.331,1.102-2.06
	c0.307-1.045,0.231-2.044-0.212-2.813c-0.878-1.521-2.889-2.15-5.007-1.565c-0.533,0.148-1.046,0.363-1.523,0.639
	c-0.757,0.438-1.395,1.006-1.883,1.648c-0.603-0.143-1.225-0.226-1.86-0.226c-2.149,0-4.169,0.838-5.689,2.357
	c-2.224,2.225-2.933,5.595-1.833,8.522l-6.341,6.341C0.843,19.6,0.776,19.73,0.752,19.872l-0.743,4.459
	c-0.033,0.199,0.023,0.403,0.153,0.558c0.131,0.154,0.324,0.243,0.525,0.243h3.716c0.183,0,0.357-0.073,0.486-0.202l0.906-0.904
	c0.129-0.129,0.201-0.304,0.201-0.486v-1.594l1.78-0.136c0.196-0.015,0.376-0.113,0.495-0.271c0.119-0.157,0.165-0.356,0.126-0.55
	l-0.021-0.106h0.276c0.38,0,0.688-0.309,0.688-0.688v-1.542h1.542c0.183,0,0.357-0.072,0.486-0.201l0.605-0.605
	c0.34,0.128,0.687,0.229,1.036,0.308c0.031,0.027,0.064,0.057,0.095,0.082l-2.323,8.666c-0.037,0.139-0.029,0.284,0.021,0.419
	l1.586,4.233c0.071,0.189,0.222,0.338,0.412,0.406c0.075,0.026,0.154,0.04,0.232,0.04c0.119,0,0.238-0.031,0.344-0.092l3.218-1.858
	c0.158-0.092,0.273-0.241,0.32-0.417l0.331-1.236c0.047-0.177,0.023-0.364-0.068-0.522l-0.797-1.38l1.474-1.008
	c0.162-0.112,0.27-0.287,0.294-0.482c0.025-0.195-0.036-0.392-0.166-0.54l-0.072-0.081l0.239-0.138
	c0.158-0.091,0.273-0.241,0.32-0.418c0.047-0.176,0.023-0.364-0.068-0.521l-0.771-1.336l1.335-0.771
	c0.158-0.09,0.273-0.241,0.321-0.417l0.221-0.827c3.085-0.511,5.65-2.811,6.464-5.849C26.529,12.03,26.244,9.862,25.169,8.001
	 M19.245,2.057c0.376-0.218,0.781-0.387,1.202-0.504c1.496-0.415,2.876-0.045,3.434,0.923c0.252,0.436,0.281,1.049,0.082,1.729
	c-0.153,0.522-0.426,1.038-0.785,1.497c-0.845-0.665-1.822-1.161-2.893-1.448c-0.093-0.025-0.185-0.044-0.277-0.062
	c-0.588-0.5-1.237-0.905-1.929-1.215C18.407,2.629,18.798,2.314,19.245,2.057 M11.325,16.549l-0.728,0.729H8.653
	c-0.38,0-0.688,0.308-0.688,0.688v1.542H7.538c-0.205,0-0.401,0.092-0.531,0.252c-0.13,0.159-0.183,0.368-0.143,0.57l0.034,0.168
	l-1.641,0.126c-0.359,0.028-0.635,0.327-0.635,0.687v1.944l-0.502,0.503H1.5l0.574-3.441l6.509-6.509
	c0.202-0.201,0.258-0.506,0.142-0.767c-1.119-2.509-0.569-5.495,1.368-7.433c1.592-1.592,3.794-2.204,5.861-1.848
	c-0.058,0.149-0.111,0.297-0.152,0.448c-0.102,0.366-0.154,0.731-0.154,1.085c0,0.253,0.032,0.498,0.083,0.735
	c-0.238,0.118-0.466,0.267-0.666,0.464c-0.985,0.986-0.985,2.589,0.001,3.574c0.492,0.492,1.14,0.739,1.787,0.739
	c0.647,0,1.294-0.247,1.786-0.739c0.478-0.478,0.741-1.111,0.741-1.787c0-0.11-0.018-0.218-0.032-0.325
	c0-0.011,0.003-0.021,0.003-0.031c0-0.027-0.01-0.052-0.014-0.078C19.331,7.813,19.327,7.78,19.32,7.75
	c-0.007-0.028-0.014-0.057-0.024-0.083c-0.11-0.44-0.329-0.846-0.658-1.175c-0.431-0.431-0.981-0.662-1.546-0.716
	c-0.037-0.154-0.058-0.315-0.058-0.483c0-0.228,0.034-0.467,0.103-0.713c0.042-0.149,0.098-0.298,0.162-0.441
	c0.691,0.275,1.341,0.68,1.925,1.197c0.001,0.001,0.002,0.003,0.003,0.004l0.043,0.038c0.085,0.077,0.172,0.147,0.253,0.229
	c1.3,1.3,1.951,3.009,1.951,4.716c0,1.067-0.254,2.135-0.762,3.103c-0.102,0.193-0.213,0.384-0.335,0.569
	c-0.244,0.369-0.528,0.719-0.854,1.045c-0.112,0.112-0.23,0.22-0.35,0.324c-0.029,0.024-0.059,0.047-0.088,0.072
	c-0.099,0.083-0.2,0.163-0.303,0.239c-0.022,0.017-0.044,0.032-0.066,0.049c-1.345,0.967-3.012,1.395-4.647,1.217
	c-0.019-0.003-0.038-0.004-0.057-0.007c-0.129-0.016-0.258-0.036-0.387-0.059c-0.038-0.007-0.076-0.013-0.114-0.02
	c-0.483-0.095-0.96-0.243-1.421-0.448C11.831,16.291,11.526,16.349,11.325,16.549 M16.297,7.276c0.387,0.493,0.977,0.896,1.691,1.16
	c-0.034,0.248-0.142,0.478-0.322,0.657l0,0c-0.449,0.449-1.18,0.449-1.628,0c-0.449-0.449-0.449-1.179,0-1.628
	C16.116,7.387,16.205,7.328,16.297,7.276 M24.645,13.749c-0.709,2.646-3.021,4.616-5.752,4.901c-0.284,0.03-0.52,0.231-0.593,0.507
	l-0.266,0.993l-1.684,0.973c-0.33,0.19-0.442,0.61-0.252,0.939l0.771,1.335l-0.369,0.213c-0.179,0.104-0.302,0.282-0.335,0.484
	c-0.034,0.203,0.026,0.412,0.162,0.565l0.113,0.129l-1.359,0.93c-0.296,0.203-0.387,0.601-0.207,0.912l0.972,1.685l-0.184,0.686
	l-2.268,1.31l-1.224-3.267l2.328-8.689c0.071,0.003,0.141-0.002,0.212-0.001c0.09,0,0.181-0.002,0.271-0.004
	c0.499-0.01,0.993-0.065,1.477-0.167c0.034-0.007,0.068-0.014,0.102-0.022c0.501-0.11,0.989-0.269,1.461-0.474
	c0.069-0.03,0.138-0.06,0.206-0.092c0.128-0.061,0.257-0.121,0.382-0.188c0.18-0.096,0.356-0.198,0.529-0.307
	c0.073-0.047,0.143-0.098,0.215-0.147c0.14-0.095,0.276-0.194,0.41-0.298c0.063-0.049,0.125-0.098,0.187-0.149
	c0.188-0.156,0.373-0.317,0.548-0.494c0.176-0.176,0.341-0.36,0.497-0.548c0.061-0.071,0.114-0.146,0.171-0.22
	c0.09-0.117,0.181-0.235,0.264-0.355c0.067-0.097,0.129-0.195,0.192-0.295c0.062-0.099,0.123-0.198,0.181-0.301
	c0.065-0.115,0.129-0.232,0.188-0.351c0.042-0.084,0.081-0.169,0.12-0.254c0.062-0.136,0.125-0.271,0.179-0.409
	c0.018-0.046,0.032-0.092,0.049-0.137c0.133-0.354,0.243-0.719,0.324-1.092c0.001-0.008,0.004-0.016,0.006-0.022
	c0.033-0.155,0.057-0.313,0.082-0.47c0.012-0.079,0.025-0.158,0.035-0.236c0.017-0.144,0.031-0.289,0.041-0.436
	c0.007-0.095,0.011-0.191,0.013-0.286c0.004-0.093,0.015-0.185,0.015-0.277c0-0.048-0.006-0.097-0.007-0.146
	c-0.002-0.089-0.009-0.178-0.014-0.269c-0.026-0.522-0.102-1.034-0.226-1.531c-0.017-0.068-0.031-0.136-0.05-0.201
	c-0.042-0.151-0.089-0.301-0.139-0.449c-0.025-0.074-0.053-0.149-0.08-0.223c-0.053-0.142-0.107-0.281-0.168-0.419
	c-0.037-0.084-0.078-0.166-0.117-0.249c-0.061-0.127-0.121-0.254-0.188-0.377c-0.004-0.007-0.007-0.014-0.011-0.021
	c0.865,0.564,1.592,1.329,2.124,2.25C24.869,10.231,25.105,12.028,24.645,13.749"/>
</svg>
