<svg xmlns="http://www.w3.org/2000/svg" viewBox="0 0 54.95 54.95"><title>language</title><g id="4794267a-58db-41e1-beb7-9cfcaa8e4f69" data-name="圖層 2"><g id="9b872a2f-aeef-48ee-ae9b-c273956a813f" data-name="圖層 1"><path d="M27,0h1.08l.84.11c.94.09,1.9.12,2.83.27A26.49,26.49,0,0,1,46.74,8c6.92,7,9.43,15.39,7.66,25A25.45,25.45,0,0,1,47.11,46.7c-7,7-15.47,9.51-25.16,7.67A26.28,26.28,0,0,1,6.39,45,26.63,26.63,0,0,1,.22,30.44c-.08-.8-.15-1.6-.22-2.39V27c0-.22.07-.45.1-.68C.26,24.87.33,23.43.61,22A26.66,26.66,0,0,1,7.89,8.31,26.85,26.85,0,0,1,24.68.22ZM14.48,16.24a1.12,1.12,0,0,0-.22,0c-2.63,0-5.27,0-7.9,0-.18,0-.42.23-.52.41a23.37,23.37,0,0,0-2.28,7c-.13.75-.18,1.5-.27,2.26l.32,0h9c.38,0,.42-.16.46-.48.22-2,.44-3.94.73-5.9C13.94,18.44,14.24,17.35,14.48,16.24Zm37.16,9.68c0-.13,0-.18.06-.23a2.17,2.17,0,0,0,0-.26,24.71,24.71,0,0,0-2.49-8.82.7.7,0,0,0-.74-.44c-2.47,0-4.94,0-7.41,0l-.54,0a5.54,5.54,0,0,0,.14.63A39.94,39.94,0,0,1,42,25.4c0,.44.18.53.58.52,2.34,0,4.69,0,7,0ZM14.5,38.81c0-.21-.06-.37-.1-.52A41.81,41.81,0,0,1,13,29.83c0-.73-.06-.73-.79-.73H3.32a3,3,0,0,0,0,.45,24.71,24.71,0,0,0,2.52,8.93.64.64,0,0,0,.68.36c2.47,0,5,0,7.42,0Zm26.05,0,.29,0c2.59,0,5.18,0,7.78,0,.34,0,.45-.2.58-.44a24.07,24.07,0,0,0,2.26-7c.13-.74.18-1.5.26-2.22a.89.89,0,0,0-.21-.07H42.39c-.35,0-.38.18-.41.46-.16,1.6-.28,3.2-.53,4.79S40.86,37.28,40.55,38.8ZM16.17,25.87a3,3,0,0,0,.43,0h8.86c.4,0,.46-.16.46-.51,0-2.91,0-5.83,0-8.75,0-.14,0-.28,0-.45l-.55,0c-2.31,0-4.62,0-6.93,0a.59.59,0,0,0-.69.54c-.37,1.79-.82,3.58-1.14,5.39C16.35,23.32,16.3,24.58,16.17,25.87Zm13-9.66a2.8,2.8,0,0,0,0,.34c0,3,0,5.94,0,8.91,0,.36.11.46.46.46h8.8a3.71,3.71,0,0,0,.44-.05c0-.16,0-.28,0-.4a40.38,40.38,0,0,0-1.52-8.86.52.52,0,0,0-.61-.43c-2.32,0-4.65,0-7,0Zm-3.26,22.6c0-.22,0-.38,0-.53,0-2.87,0-5.73,0-8.59,0-.49-.14-.6-.61-.6-2.84,0-5.69,0-8.54,0l-.54,0a3.86,3.86,0,0,0,0,.46,40.33,40.33,0,0,0,1.51,8.8.56.56,0,0,0,.65.46c2.32,0,4.65,0,7,0Zm13-9.67-.43,0c-3,0-5.91,0-8.86,0-.4,0-.47.17-.46.52,0,2.91,0,5.83,0,8.75,0,.14,0,.27,0,.45l.55,0c2.31,0,4.62,0,6.93,0,.42,0,.6-.14.68-.54.38-1.79.83-3.58,1.15-5.39C38.67,31.7,38.72,30.44,38.85,29.14ZM20.62,4.36A23.41,23.41,0,0,0,8.19,12.84l.07.15h.53c2.07,0,4.15,0,6.23,0a.76.76,0,0,0,.83-.55,28.26,28.26,0,0,1,3.24-6C19.59,5.72,20.11,5.05,20.62,4.36Zm13.77,0a1.48,1.48,0,0,0,.17.28,29.77,29.77,0,0,1,4.69,8c.13.36.37.37.67.37h6.39c.17,0,.33,0,.53,0C44.79,9.5,37.71,4.61,34.39,4.32ZM8.11,42.07A24.42,24.42,0,0,0,20.7,50.8a2.69,2.69,0,0,0-.25-.39,29.45,29.45,0,0,1-4.66-8c-.15-.37-.38-.41-.71-.41H8.74C8.57,42,8.4,42.05,8.11,42.07Zm38.81,0-.66,0c-2.08,0-4.16,0-6.23,0a.78.78,0,0,0-.87.58,28.56,28.56,0,0,1-4.48,7.65l-.3.41A23.53,23.53,0,0,0,46.92,42.06Zm-21-38.17a21.77,21.77,0,0,0-6.75,9c.12,0,.15.07.19.07l6.23,0c.37,0,.38-.21.38-.49V4.34A4.21,4.21,0,0,0,25.87,3.89ZM36,13c-1.63-3.58-3.6-6.74-6.75-9-.06.12-.09.15-.09.18q0,4.25,0,8.49c0,.42.27.38.54.38H36ZM25.86,51.11c0-.18.05-.23.05-.28q0-4.2,0-8.38c0-.41-.21-.42-.51-.42h-5.8a3.83,3.83,0,0,0-.51.06A21.83,21.83,0,0,0,25.86,51.11Zm10.06-9c-.18,0-.25-.06-.32-.06-2,0-4,0-6.07,0-.43,0-.43.24-.43.55v8c0,.14,0,.29.06.54A21.9,21.9,0,0,0,35.92,42.09Z"/></g></g></svg>