<?xml version="1.0" encoding="utf-8"?>
<!-- Generator: Adobe Illustrator 15.1.0, SVG Export Plug-In  -->
<!DOCTYPE svg PUBLIC "-//W3C//DTD SVG 1.1//EN" "http://www.w3.org/Graphics/SVG/1.1/DTD/svg11.dtd" [
	<!ENTITY ns_flows "http://ns.adobe.com/Flows/1.0/">
]>
<svg version="1.1"
	 xmlns="http://www.w3.org/2000/svg" xmlns:xlink="http://www.w3.org/1999/xlink" xmlns:a="http://ns.adobe.com/AdobeSVGViewerExtensions/3.0/"
	 x="0px" y="0px" width="32px" height="32px" viewBox="-0.049 -0.696 32 32" enable-background="new -0.049 -0.696 32 32"
	 xml:space="preserve">
<defs>
</defs>
<path fill-rule="evenodd" clip-rule="evenodd" d="M20.072,14.323c0.541,0.002,0.979,0.443,0.975,0.984s-0.443,0.977-0.984,0.975
	L3.34,16.194l3.732,3.771c0.381,0.385,0.377,1.004-0.008,1.385s-1.004,0.377-1.385-0.007l-5.377-5.433
	c-0.041-0.04-0.078-0.083-0.111-0.128l-0.004-0.006C0.068,15.614,0,15.414,0,15.197c0.002-0.131,0.027-0.254,0.074-0.368l0,0
	c0.01-0.022,0.02-0.044,0.031-0.065v-0.001l0.021-0.042l0.004-0.009L0.139,14.7l0.002-0.001l0.006-0.013l0.006-0.008l0.002-0.005
	l0.008-0.012l0.004-0.003l0.006-0.009l0.008-0.012l0,0l0.008-0.012l0.006-0.008l0.002-0.005l0.01-0.011l0.004-0.005l0.006-0.007
	l0.008-0.012h0.002l0.008-0.011l0.006-0.009l0.004-0.002l0.01-0.011l0.004-0.006l0.006-0.005l0.01-0.011l0.002-0.003l0.008-0.008
	l0.01-0.01l0,0l0.012-0.01L5.744,9.11c0.383-0.38,1.004-0.377,1.385,0.007c0.381,0.385,0.377,1.005-0.008,1.386L3.35,14.235
	L20.072,14.323z M11.178,10.766l0.045-8.801l18.715,0.099l-0.139,26.581l-18.715-0.099l0.045-8.56
	c0.004-0.54-0.434-0.981-0.975-0.984c-0.539-0.003-0.98,0.435-0.984,0.975l-0.049,9.539c-0.004,0.54,0.434,0.981,0.975,0.984
	l20.672,0.108c0.541,0.003,0.982-0.434,0.984-0.975l0.15-28.54c0.002-0.541-0.434-0.981-0.975-0.984L10.254,0
	c-0.539-0.002-0.98,0.435-0.982,0.975l-0.053,9.781c-0.002,0.54,0.434,0.981,0.975,0.983C10.734,11.743,11.176,11.307,11.178,10.766
	"/>
</svg>
