<svg xmlns="http://www.w3.org/2000/svg" viewBox="0 0 52.91 51.66"><title>line</title><g id="d990a92a-6402-4cf6-8f13-b94b428d7b4d" data-name="圖層 2"><g id="2316bcdb-e57d-4006-b351-6def51911ad5" data-name="圖層 1"><path d="M52.91,21.29a19.82,19.82,0,0,1-6.21,15C41.2,41.72,34.82,46,28.37,50.19a11.76,11.76,0,0,1-3.05,1.36c-1.24.36-1.66-.16-1.3-1.38s.8-2.53,1.06-3.82-.28-2-1.68-2.25A61.41,61.41,0,0,1,17,42.74C10.62,40.69,5.39,37,2.27,30.87-1.17,24.11-.67,17.42,3.59,11.18,8,4.67,14.55,1.41,22.21.33A29.46,29.46,0,0,1,40.85,3.58c5.56,3,9.63,7.4,11.36,13.63A31.91,31.91,0,0,1,52.91,21.29ZM31.43,26.47l-.19.08c-.19-.27-.39-.53-.57-.8l-4.26-6.47c-.41-.63-.9-1.14-1.74-1s-1.12.91-1.13,1.7q0,4.74,0,9.48c0,.7.28,1.32,1.1,1.34s1.17-.62,1.19-1.36c0-1.94,0-3.88,0-5.81,0-.32,0-.63.07-1.2l3.92,6a7,7,0,0,0,1.26,1.72,2.52,2.52,0,0,0,1.79.49c.33-.05.71-.84.76-1.34A31.31,31.31,0,0,0,33.7,26c0-2.17,0-4.34,0-6.52a1,1,0,0,0-1-1.16c-.72-.05-1.05.4-1.15,1a8.41,8.41,0,0,0-.06,1.12ZM39,20.36h5.33c.66,0,1.3-.13,1.29-.95s-.65-.93-1.32-.93c-2,0-4.08,0-6.12,0-1.33,0-1.68.35-1.69,1.72,0,2.93,0,5.85,0,8.78,0,1.32.38,1.66,1.74,1.69,1.57,0,3.13,0,4.7,0a8,8,0,0,0,2-.1,1.28,1.28,0,0,0,.81-.92c0-.32-.49-.72-.86-.91a2.67,2.67,0,0,0-1.1-.05H39V25.26l.58,0c1.5,0,3,.05,4.49-.05a1.4,1.4,0,0,0,1-.87c.16-.61-.37-.88-.94-.92-.41,0-.82,0-1.23,0H39Zm-28.63,8.3V25.83c0-2.1,0-4.2-.06-6.31A1.13,1.13,0,0,0,9,18.3a1.12,1.12,0,0,0-1.15,1.27c0,3.26,0,6.52,0,9.78a1.16,1.16,0,0,0,1.17,1.27,7.36,7.36,0,0,0,.81.06c1.83,0,3.67,0,5.5,0,.61,0,1.17-.26,1.14-1s-.55-.95-1.19-1h-5Zm8-4.18v4.8c0,.82.24,1.55,1.21,1.56s1.24-.73,1.24-1.54c0-3.13,0-6.26,0-9.38,0-1.1-.49-1.68-1.28-1.63-1,.08-1.16.8-1.17,1.61C18.27,21.43,18.28,23,18.28,24.48Z"/></g></g></svg>