<svg xmlns="http://www.w3.org/2000/svg" viewBox="0 0 67.39 97.08"><title>lock</title><g id="d2a0ed81-f333-47f3-8181-b3f21ad21e96" data-name="圖層 2"><g id="220126d0-90be-461a-a6e1-29c4fe53ebe9" data-name="圖層 1"><path d="M62.82,39.38H58.63V24.93a24.94,24.94,0,0,0-49.87,0V39.38H4.57A4.58,4.58,0,0,0,0,44V92.52a4.57,4.57,0,0,0,4.57,4.56H62.82a4.57,4.57,0,0,0,4.57-4.56V44A4.58,4.58,0,0,0,62.82,39.38ZM12.73,24.93a21,21,0,0,1,41.93,0V39.38H50.09V24.86a16.4,16.4,0,0,0-32.8,0V39.38H12.73Zm33.39-.07V39.38H21.27V24.86a12.43,12.43,0,0,1,24.85,0ZM63.41,92.52a.59.59,0,0,1-.59.59H4.57a.6.6,0,0,1-.6-.59V44a.59.59,0,0,1,.6-.59H62.82a.58.58,0,0,1,.59.59Z"/><path d="M33.69,55.63a7.93,7.93,0,0,0-2,15.62v10.9h4V71.25a7.93,7.93,0,0,0-2-15.62Zm0,11.91a4,4,0,1,1,4-4A4,4,0,0,1,33.69,67.54Z"/></g></g></svg>