<?xml version="1.0" encoding="utf-8"?>
<!-- Generator: Adobe Illustrator 15.1.0, SVG Export Plug-In  -->
<!DOCTYPE svg PUBLIC "-//W3C//DTD SVG 1.1//EN" "http://www.w3.org/Graphics/SVG/1.1/DTD/svg11.dtd" [
	<!ENTITY ns_flows "http://ns.adobe.com/Flows/1.0/">
]>
<svg version="1.1"
	 xmlns="http://www.w3.org/2000/svg" xmlns:xlink="http://www.w3.org/1999/xlink" xmlns:a="http://ns.adobe.com/AdobeSVGViewerExtensions/3.0/"
	 x="0px" y="0px" width="32px" height="32px" viewBox="-0.174 -0.022 32 32" enable-background="new -0.174 -0.022 32 32"
	 xml:space="preserve">
<defs>
</defs>
<path d="M2.759,18.287c0.276-1.436,1.299-2.646,2.668-3.156l4.037-1.505c0.06-0.021,0.113-0.055,0.158-0.096
	c0.738,0.388,1.575,0.608,2.466,0.608c0.694,0,1.357-0.136,1.966-0.379c0.04,0.036,0.086,0.064,0.138,0.084l3.951,1.544
	c0.06,0.024,0.121,0.034,0.182,0.034c0.199,0,0.388-0.12,0.466-0.318c0.1-0.255-0.027-0.547-0.285-0.646l-3.339-1.306
	c1.357-0.966,2.245-2.549,2.245-4.34c0-2.935-2.388-5.323-5.324-5.323c-2.936,0-5.324,2.389-5.324,5.323
	c0,1.623,0.729,3.076,1.877,4.056l-3.563,1.328c-1.694,0.63-2.959,2.127-3.301,3.903l-1.703,8.874
	c-0.309,1.612,0.357,3.267,1.698,4.213c0.722,0.509,1.566,0.769,2.416,0.769c0.646,0,1.293-0.149,1.892-0.452l6.23-3.149
	c1.262-0.638,1.777-2.188,1.146-3.455c-0.63-1.265-2.177-1.787-3.447-1.165l-3.904,1.916l0.449-5.165
	c0.023-0.275-0.18-0.519-0.455-0.542c-0.274-0.023-0.517,0.181-0.54,0.455l-0.502,5.764l-0.739,0.363
	c-0.248,0.122-0.35,0.421-0.229,0.668c0.122,0.25,0.421,0.353,0.669,0.23l5.692-2.794c0.778-0.381,1.726-0.06,2.113,0.715
	c0.386,0.776,0.072,1.726-0.703,2.118l-6.23,3.149c-1.056,0.534-2.313,0.442-3.279-0.242c-1.023-0.721-1.529-1.979-1.294-3.208
	L2.759,18.287z M7.763,8.813c0-2.385,1.94-4.323,4.325-4.323s4.325,1.938,4.325,4.323s-1.939,4.327-4.325,4.327
	S7.763,11.197,7.763,8.813z"/>
<path d="M28.866,11.72c0.275,0,0.499-0.224,0.499-0.499v-0.428c0-0.277-0.224-0.501-0.499-0.501c-0.276,0-0.5,0.224-0.5,0.501v0.428
	C28.366,11.496,28.589,11.72,28.866,11.72z"/>
<path d="M28.866,14.659c0.275,0,0.499-0.224,0.499-0.499v-0.428c0-0.277-0.224-0.502-0.499-0.502c-0.276,0-0.5,0.225-0.5,0.502
	v0.428C28.366,14.436,28.589,14.659,28.866,14.659z"/>
<path d="M27.181,12.976h0.429c0.276,0,0.499-0.224,0.499-0.498c0-0.277-0.223-0.5-0.499-0.5h-0.429c-0.275,0-0.5,0.223-0.5,0.5
	C26.682,12.752,26.906,12.976,27.181,12.976z"/>
<path d="M30.12,12.976h0.429c0.275,0,0.499-0.224,0.499-0.498c0-0.277-0.224-0.5-0.499-0.5H30.12c-0.276,0-0.499,0.223-0.499,0.5
	C29.621,12.752,29.844,12.976,30.12,12.976z"/>
<path d="M20.752,1.429c0.276,0,0.5-0.225,0.5-0.499V0.501c0-0.276-0.224-0.501-0.5-0.501c-0.274,0-0.499,0.225-0.499,0.501V0.93
	C20.253,1.204,20.478,1.429,20.752,1.429z"/>
<path d="M20.752,4.367c0.276,0,0.5-0.224,0.5-0.499v-0.43c0-0.275-0.224-0.499-0.5-0.499c-0.274,0-0.499,0.224-0.499,0.499v0.43
	C20.253,4.144,20.478,4.367,20.752,4.367z"/>
<path d="M19.069,2.684h0.429c0.276,0,0.5-0.224,0.5-0.499c0-0.277-0.224-0.501-0.5-0.501h-0.429c-0.276,0-0.5,0.224-0.5,0.501
	C18.569,2.46,18.793,2.684,19.069,2.684z"/>
<path d="M22.007,2.684h0.428c0.276,0,0.5-0.224,0.5-0.499c0-0.277-0.224-0.501-0.5-0.501h-0.428c-0.276,0-0.5,0.224-0.5,0.501
	C21.507,2.46,21.731,2.684,22.007,2.684z"/>
<circle cx="31.038" cy="6.559" r="0.614"/>
<circle cx="24.611" cy="8.912" r="0.614"/>
<path d="M31.269,22.618c0.006-0.012,0.012-0.021,0.017-0.033c0.006-0.021,0.012-0.041,0.017-0.061
	c0.003-0.012,0.007-0.02,0.009-0.03c0.012-0.063,0.012-0.126,0-0.188c-0.002-0.011-0.006-0.021-0.008-0.03
	c-0.006-0.021-0.011-0.04-0.018-0.061c-0.005-0.012-0.011-0.021-0.017-0.033c-0.008-0.019-0.016-0.034-0.026-0.048
	c-0.008-0.014-0.017-0.024-0.025-0.036c-0.007-0.008-0.012-0.016-0.019-0.025l-3.69-4.256c-0.095-0.11-0.232-0.173-0.376-0.173
	H18.74c-0.146,0-0.282,0.063-0.377,0.173l-3.689,4.256c-0.007,0.008-0.012,0.018-0.018,0.025c-0.009,0.012-0.019,0.022-0.027,0.036
	s-0.016,0.029-0.023,0.044c-0.006,0.014-0.013,0.025-0.018,0.039c-0.007,0.019-0.012,0.035-0.017,0.053
	c-0.003,0.012-0.008,0.023-0.01,0.036c-0.006,0.029-0.008,0.057-0.009,0.084c0,0.004-0.001,0.006-0.001,0.01
	c0,0.002,0.001,0.002,0.001,0.004c0,0.029,0.003,0.062,0.009,0.091c0.002,0.011,0.007,0.022,0.01,0.034
	c0.005,0.018,0.01,0.036,0.017,0.055c0.005,0.014,0.012,0.025,0.018,0.037c0.007,0.016,0.016,0.03,0.024,0.046
	c0.008,0.012,0.017,0.021,0.025,0.034c0.006,0.01,0.012,0.021,0.019,0.028l7.885,9.056c0.025,0.027,0.054,0.053,0.084,0.074
	c0.003,0.004,0.008,0.006,0.012,0.007c0.034,0.024,0.072,0.043,0.11,0.057c0.011,0.004,0.022,0.008,0.033,0.012
	c0.045,0.012,0.09,0.021,0.138,0.021c0.001,0,0.001,0,0.002,0h0.001c0.001,0,0.002,0,0.002,0c0.047-0.002,0.092-0.01,0.136-0.023
	c0.011-0.002,0.021-0.006,0.033-0.01c0.041-0.016,0.08-0.036,0.116-0.062c0.002,0,0.004-0.002,0.006-0.004
	c0.029-0.021,0.057-0.045,0.081-0.072l7.886-9.056c0.007-0.008,0.013-0.021,0.02-0.031c0.008-0.01,0.016-0.02,0.023-0.031
	C31.251,22.65,31.26,22.636,31.269,22.618z M19.503,22.899l2.145,6.317l-5.5-6.317H19.503z M25.189,22.899l-2.265,6.971
	l-2.366-6.971H25.189z M20.836,21.901l2.03-2.824l2.034,2.824H20.836z M26.24,22.899h3.484l-5.557,6.382L26.24,22.899z
	 M29.727,21.901h-3.595l-2.348-3.258h3.118L29.727,21.901z M18.967,18.644h2.981l-2.343,3.258h-3.461L18.967,18.644z"/>
</svg>
