<svg xmlns="http://www.w3.org/2000/svg" viewBox="0 0 55 54.63"><title>member</title><g id="3639c4bc-7234-4933-9c63-50452888fa0e" data-name="圖層 2"><g id="a70c1272-a949-4467-adc0-f086a57c3884" data-name="圖層 1"><path d="M34.27,29.69a15.54,15.54,0,0,0,9.81-14.16C44.08,7,36.64,0,27.5,0S10.92,7,10.92,15.53a15.54,15.54,0,0,0,9.81,14.16C8.83,32.53,0,42.62,0,54.63H3.51c0-12.39,10.76-22.47,24-22.47s24,10.08,24,22.47H55C55,42.62,46.17,32.53,34.27,29.69ZM14.43,15.53c0-6.75,5.87-12.24,13.07-12.24S40.57,8.78,40.57,15.53,34.71,27.77,27.5,27.77,14.43,22.28,14.43,15.53Z"/></g></g></svg>