<?xml version="1.0" encoding="utf-8"?>
<!-- Generator: Adobe Illustrator 15.1.0, SVG Export Plug-In  -->
<!DOCTYPE svg PUBLIC "-//W3C//DTD SVG 1.1//EN" "http://www.w3.org/Graphics/SVG/1.1/DTD/svg11.dtd" [
	<!ENTITY ns_flows "http://ns.adobe.com/Flows/1.0/">
]>
<svg version="1.1"
	 xmlns="http://www.w3.org/2000/svg" xmlns:xlink="http://www.w3.org/1999/xlink" xmlns:a="http://ns.adobe.com/AdobeSVGViewerExtensions/3.0/"
	 x="0px" y="0px" width="32px" height="32px" viewBox="0 -3.633 32 32" enable-background="new 0 -3.633 32 32"
	 xml:space="preserve">
<defs>
</defs>
<path d="M14.537,13.443c2.447-1.101,4.158-3.558,4.158-6.411C18.695,3.154,15.541,0,11.664,0S4.633,3.154,4.633,7.032
	c0,2.853,1.711,5.31,4.158,6.411C3.746,14.728,0,19.296,0,24.734h1.489c0-5.61,4.564-10.174,10.175-10.174
	c5.609,0,10.174,4.564,10.174,10.174h1.489C23.327,19.296,19.581,14.728,14.537,13.443 M6.123,7.032
	c0-3.056,2.484-5.542,5.541-5.542c3.056,0,5.543,2.485,5.543,5.542c0,3.056-2.487,5.542-5.543,5.542
	C8.607,12.573,6.123,10.087,6.123,7.032"/>
<path d="M31.873,11.934L31.873,11.934l-4.009-4.123c-0.239-0.247-0.635-0.253-0.885-0.013c-0.247,0.24-0.253,0.638-0.011,0.885
	l2.977,3.062H23.92c-0.344,0-0.625,0.281-0.625,0.626s0.281,0.625,0.625,0.625h6.025l-2.977,3.062
	c-0.242,0.247-0.236,0.645,0.013,0.885c0.239,0.233,0.65,0.228,0.885-0.012l4.007-4.124C32.111,12.562,32.111,12.179,31.873,11.934"
	/>
</svg>
