<?xml version="1.0" encoding="utf-8"?>
<!-- Generator: Adobe Illustrator 15.1.0, SVG Export Plug-In  -->
<!DOCTYPE svg PUBLIC "-//W3C//DTD SVG 1.1//EN" "http://www.w3.org/Graphics/SVG/1.1/DTD/svg11.dtd" [
	<!ENTITY ns_flows "http://ns.adobe.com/Flows/1.0/">
]>
<svg version="1.1"
	 xmlns="http://www.w3.org/2000/svg" xmlns:xlink="http://www.w3.org/1999/xlink" xmlns:a="http://ns.adobe.com/AdobeSVGViewerExtensions/3.0/"
	 x="0px" y="0px" width="32px" height="32px" viewBox="-3.781 0.01 32 32" enable-background="new -3.781 0.01 32 32"
	 xml:space="preserve">
<defs>
</defs>
<path fill="#212121" d="M9.141,10.965c3.027,0,5.482-2.455,5.482-5.482S12.168,0,9.141,0S3.658,2.455,3.658,5.482
	S6.113,10.965,9.141,10.965"/>
<path fill="#212121" d="M18.016,17.852c-0.811-2.818-3.422-4.899-6.492-4.899H6.777C3.066,12.952,0,15.989,0,19.7v5.403
	c0,0.464,0.379,0.844,0.844,0.844h9.336C10.18,21.569,13.67,17.993,18.016,17.852"/>
<path fill="#212121" d="M18.221,19.584c-3.434,0-6.219,2.784-6.219,6.218c0,3.435,2.785,6.218,6.219,6.218s6.217-2.783,6.217-6.218
	C24.438,22.368,21.654,19.584,18.221,19.584 M18.49,29.527c-0.15,0.143-0.326,0.214-0.527,0.214c-0.236,0-0.43-0.073-0.582-0.219
	c-0.152-0.146-0.229-0.319-0.229-0.517c0-0.205,0.076-0.381,0.23-0.527c0.154-0.147,0.338-0.221,0.555-0.221
	c0.203,0,0.385,0.071,0.541,0.213c0.158,0.141,0.236,0.319,0.236,0.535C18.715,29.21,18.641,29.384,18.49,29.527 M20.053,24.166
	c-0.16,0.303-0.455,0.643-0.881,1.02c-0.41,0.364-0.664,0.642-0.762,0.832c-0.096,0.191-0.145,0.382-0.145,0.572
	c0,0.236,0.059,0.48,0.174,0.731h-1.127c-0.086-0.258-0.127-0.524-0.127-0.8c0-0.283,0.066-0.551,0.197-0.803
	c0.133-0.252,0.375-0.541,0.729-0.866c0.42-0.385,0.684-0.68,0.789-0.885c0.105-0.204,0.16-0.409,0.16-0.614
	c0-0.314-0.111-0.563-0.332-0.747s-0.502-0.275-0.844-0.275c-0.654,0-1.234,0.253-1.738,0.758v-1.256
	c0.594-0.363,1.225-0.545,1.896-0.545c0.678,0,1.223,0.167,1.633,0.5c0.412,0.334,0.617,0.801,0.617,1.401
	C20.293,23.539,20.213,23.864,20.053,24.166"/>
</svg>
