<?xml version="1.0" encoding="utf-8"?>
<!-- Generator: Adobe Illustrator 15.1.0, SVG Export Plug-In  -->
<!DOCTYPE svg PUBLIC "-//W3C//DTD SVG 1.1//EN" "http://www.w3.org/Graphics/SVG/1.1/DTD/svg11.dtd" [
	<!ENTITY ns_flows "http://ns.adobe.com/Flows/1.0/">
]>
<svg version="1.1"
	 xmlns="http://www.w3.org/2000/svg" xmlns:xlink="http://www.w3.org/1999/xlink" xmlns:a="http://ns.adobe.com/AdobeSVGViewerExtensions/3.0/"
	 x="0px" y="0px" width="32px" height="32px" viewBox="-0.004 -0.195 32 32" enable-background="new -0.004 -0.195 32 32"
	 xml:space="preserve">
<defs>
</defs>
<path fill="#474747" d="M9.9,23.475L6.038,25.37l0.444-5.109c0.024-0.271-0.177-0.51-0.449-0.535
	c-0.271-0.023-0.512,0.177-0.535,0.45l-0.496,5.703l-0.731,0.36c-0.245,0.118-0.347,0.414-0.226,0.66
	c0.12,0.245,0.415,0.347,0.661,0.226l5.63-2.762c0.771-0.378,1.707-0.061,2.089,0.705c0.383,0.768,0.071,1.708-0.694,2.096
	l-6.162,3.114c-1.045,0.53-2.287,0.438-3.244-0.237c-1.011-0.713-1.514-1.96-1.28-3.173L2.73,18.09
	c0.271-1.42,1.283-2.616,2.639-3.123l3.992-1.489c0.06-0.02,0.111-0.053,0.156-0.094c0.729,0.382,1.56,0.602,2.439,0.602
	c0.687,0,1.342-0.134,1.945-0.374c0.04,0.033,0.084,0.063,0.136,0.082l3.908,1.527c0.059,0.023,0.119,0.035,0.18,0.035
	c0.198,0,0.384-0.119,0.46-0.314c0.1-0.255-0.025-0.543-0.28-0.641l-3.303-1.291c1.343-0.954,2.22-2.522,2.22-4.291
	c0-2.904-2.362-5.267-5.266-5.267c-2.904,0-5.267,2.362-5.267,5.267c0,1.604,0.722,3.042,1.856,4.009l-3.523,1.314
	c-1.677,0.625-2.927,2.104-3.264,3.86l-1.686,8.778c-0.307,1.596,0.354,3.229,1.68,4.167c0.714,0.504,1.549,0.762,2.39,0.762
	c0.638,0,1.278-0.148,1.87-0.448l6.163-3.116c1.249-0.63,1.758-2.164,1.133-3.417C12.686,23.378,11.156,22.859,9.9,23.475z
	 M7.679,8.719c0-2.358,1.919-4.279,4.278-4.279c2.358,0,4.277,1.921,4.277,4.279s-1.919,4.279-4.277,4.279
	C9.598,12.998,7.679,11.077,7.679,8.719z"/>
<path fill="#474747" d="M31.968,18.843c-0.059-0.179-0.213-0.31-0.398-0.337l-6.183-0.897l-2.765-5.602
	c-0.083-0.17-0.255-0.277-0.443-0.277c-0.188,0-0.359,0.107-0.442,0.277l-2.765,5.602l-6.183,0.897
	c-0.187,0.027-0.341,0.158-0.398,0.337c-0.059,0.178-0.01,0.374,0.125,0.507l4.473,4.359l-1.056,6.158
	c-0.031,0.186,0.045,0.372,0.196,0.483c0.152,0.109,0.354,0.125,0.521,0.037l5.529-2.906l5.529,2.906
	c0.073,0.037,0.151,0.057,0.23,0.057c0.103,0,0.204-0.031,0.29-0.094c0.152-0.111,0.229-0.298,0.197-0.483l-1.057-6.158l4.474-4.359
	C31.978,19.217,32.026,19.021,31.968,18.843z M26.493,23.183c-0.116,0.115-0.169,0.276-0.142,0.438l0.931,5.427l-4.873-2.563
	c-0.145-0.076-0.316-0.076-0.46,0l-4.873,2.563l0.931-5.427c0.027-0.162-0.026-0.323-0.143-0.438l-3.942-3.843l5.448-0.791
	c0.161-0.023,0.3-0.124,0.372-0.271l2.437-4.936l2.438,4.936c0.071,0.146,0.21,0.247,0.372,0.271l5.447,0.791L26.493,23.183z"/>
<path fill="#474747" d="M28.552,11.594c0.272,0,0.494-0.221,0.494-0.493v-0.425c0-0.272-0.222-0.494-0.494-0.494
	c-0.273,0-0.495,0.222-0.495,0.494v0.425C28.057,11.373,28.278,11.594,28.552,11.594z"/>
<path fill="#474747" d="M28.552,14.5c0.272,0,0.494-0.221,0.494-0.493v-0.425c0-0.272-0.222-0.494-0.494-0.494
	c-0.273,0-0.495,0.222-0.495,0.494v0.425C28.057,14.279,28.278,14.5,28.552,14.5z"/>
<path fill="#474747" d="M26.887,12.834h0.423c0.273,0,0.495-0.22,0.495-0.492c0-0.273-0.222-0.495-0.495-0.495h-0.423
	c-0.273,0-0.494,0.222-0.494,0.495C26.393,12.614,26.613,12.834,26.887,12.834z"/>
<path fill="#474747" d="M29.793,12.834h0.424c0.273,0,0.494-0.22,0.494-0.492c0-0.273-0.221-0.495-0.494-0.495h-0.424
	c-0.272,0-0.494,0.222-0.494,0.495C29.299,12.614,29.521,12.834,29.793,12.834z"/>
<path fill="#474747" d="M20.527,1.414c0.273,0,0.494-0.222,0.494-0.494V0.495C21.021,0.223,20.801,0,20.527,0
	c-0.272,0-0.495,0.223-0.495,0.495V0.92C20.032,1.192,20.255,1.414,20.527,1.414z"/>
<path fill="#474747" d="M20.527,4.32c0.273,0,0.494-0.222,0.494-0.494V3.403c0-0.274-0.221-0.495-0.494-0.495
	c-0.272,0-0.495,0.221-0.495,0.495v0.423C20.032,4.099,20.255,4.32,20.527,4.32z"/>
<path fill="#474747" d="M18.862,2.653h0.424c0.272,0,0.494-0.22,0.494-0.493c0-0.272-0.222-0.494-0.494-0.494h-0.424
	c-0.273,0-0.494,0.222-0.494,0.494C18.368,2.434,18.589,2.653,18.862,2.653z"/>
<path fill="#474747" d="M21.77,2.653h0.423c0.273,0,0.494-0.22,0.494-0.493c0-0.272-0.221-0.494-0.494-0.494H21.77
	c-0.273,0-0.495,0.222-0.495,0.494C21.274,2.434,21.496,2.653,21.77,2.653z"/>
<circle fill="#474747" cx="30.701" cy="6.486" r="0.607"/>
<circle fill="#474747" cx="24.343" cy="8.816" r="0.608"/>
</svg>
