<svg xmlns="http://www.w3.org/2000/svg" viewBox="0 0 151.86 166.9"><title>drag</title><g id="圖層_2" data-name="圖層 2"><g id="圖層_1-2" data-name="圖層 1"><path d="M91.12,166.9c-18.84,0-30.56-9.17-39.54-18.15a153.49,153.49,0,0,1-22.77-28.91C18.38,103.12,1.18,87.74,1,87.59a3,3,0,0,1-1-2.24c0-.41.05-10,8.17-14.32,6.18-3.31,21.71-7.88,40.44,14.47V21.73A15.16,15.16,0,0,1,73.72,10.28,15.17,15.17,0,0,1,103,12.38a15.16,15.16,0,0,1,24.56,11.9V39.77a15.16,15.16,0,0,1,24.31,12.1v60.37C151.86,142.38,124.61,166.9,91.12,166.9Zm-85-82.8c4.1,3.78,18.35,17.42,27.79,32.55a146.24,146.24,0,0,0,21.91,27.83c8.52,8.52,18.68,16.39,35.28,16.39,30.16,0,54.71-21.81,54.71-48.63V51.87a9.14,9.14,0,0,0-18.28,0V79.45a3,3,0,0,1-6,0V24.28a9.14,9.14,0,0,0-18.27,0v55a3,3,0,1,1-6,0V15.17a9.14,9.14,0,0,0-18.28,0V79.26a3,3,0,0,1-6,0V21.73a9.14,9.14,0,1,0-18.27,0V94.45a3,3,0,0,1-5.49,1.72C36.21,77.52,22.31,70.3,11,76.35,7.41,78.28,6.41,82.11,6.14,84.1Z"/></g></g></svg>