<svg xmlns="http://www.w3.org/2000/svg" viewBox="0 0 53.1 41.08"><title>next-step</title><g id="8feb2b25-c417-464f-b3cf-c9f92d46e2d2" data-name="圖層 2"><g id="bdb5e6cb-ccff-4183-81fa-81e7cdcc500a" data-name="圖層 1"><path d="M50.55,36h-33a12.46,12.46,0,0,1,0-24.91H44.39l-1.64,1.65a2.55,2.55,0,0,0,3.6,3.61l6-6a2.4,2.4,0,0,0,.51-.77l0-.06a.43.43,0,0,1,0,0,2.35,2.35,0,0,0,0-1.85.43.43,0,0,1,0-.05l0-.06a2.4,2.4,0,0,0-.51-.77l-6-6a2.59,2.59,0,0,0-3.6,0,2.58,2.58,0,0,0,0,3.61L44.39,6H17.55a17.55,17.55,0,1,0,0,35.09h33a2.55,2.55,0,1,0,0-5.09Z"/></g></g></svg>