<svg xmlns="http://www.w3.org/2000/svg" viewBox="0 0 76.84 68.16"><title>notification</title><g id="0320a2cd-9ff5-4f36-a2ec-0c24a231e17d" data-name="圖層 2"><g id="6e5e1161-e5a9-4ca5-9f94-e75789b702dc" data-name="圖層 1"><path d="M76,59,59.86,31,43.7,3.05a6.09,6.09,0,0,0-10.56,0L17,31,.83,59A6.09,6.09,0,0,0,6.1,68.16H70.73A6.09,6.09,0,0,0,76,59ZM41.29,60.11a4.15,4.15,0,0,1-2.84,1.08,4.31,4.31,0,0,1-2.89-1.07,3.75,3.75,0,0,1-1.23-3,4,4,0,0,1,4.06-4,4,4,0,0,1,2.91,1.18,3.84,3.84,0,0,1,1.21,2.85A3.79,3.79,0,0,1,41.29,60.11Zm1-30L41.15,43.44a10.24,10.24,0,0,1-.81,3.65,2.12,2.12,0,0,1-2.06,1.27,2.05,2.05,0,0,1-2-1.23,12.45,12.45,0,0,1-.81-3.75l-.86-13c-.17-2.53-.25-4.34-.25-5.44a5,5,0,0,1,1.18-3.51,4.07,4.07,0,0,1,3.1-1.25,3.1,3.1,0,0,1,3.11,1.61,10.92,10.92,0,0,1,.79,4.64C42.51,27.66,42.44,28.87,42.32,30.09Z"/></g></g></svg>