<svg xmlns="http://www.w3.org/2000/svg" viewBox="0 0 49.17 47.57"><title>open_web</title><g id="4044a298-57a8-42af-817f-9965669d1c13" data-name="圖層 2"><g id="7115799f-7ee7-4536-8f4c-ce1d5bfa7dfb" data-name="圖層 1"><path d="M41.57,16.44a1.94,1.94,0,0,0-1.94,1.87V40.22a3.67,3.67,0,0,1-3.72,3.61H7.6a3.67,3.67,0,0,1-3.73-3.61V12.83A3.67,3.67,0,0,1,7.6,9.22H30.24a1.94,1.94,0,0,0,1.94-1.87,1.94,1.94,0,0,0-1.94-1.87H7.6A7.49,7.49,0,0,0,0,12.83V40.22a7.49,7.49,0,0,0,7.6,7.35H35.91a7.48,7.48,0,0,0,7.59-7.35V18.31A1.93,1.93,0,0,0,41.57,16.44Z"/><path d="M49,1.18v0s0,0,0,0a2.07,2.07,0,0,0-.4-.58A1.94,1.94,0,0,0,48,.16h-.06A1.87,1.87,0,0,0,47.23,0h-12a1.93,1.93,0,0,0-1.93,1.87,1.93,1.93,0,0,0,1.93,1.87h7.34L27.85,18a1.86,1.86,0,0,0,0,2.65,2,2,0,0,0,1.36.55,2,2,0,0,0,1.37-.55L45.3,6.39v7.1a1.94,1.94,0,0,0,3.87,0V1.87A1.82,1.82,0,0,0,49,1.18Z"/></g></g></svg>