<svg xmlns="http://www.w3.org/2000/svg" viewBox="0 0 63.02 60.15"><title>overspend</title><g id="8ddf5573-0f8c-4b0e-81d0-5ec9ba54e6c9" data-name="圖層 2"><g id="37731f03-9de6-4215-adc8-592802988281" data-name="圖層 1"><polygon points="63.02 22.75 49.89 0 36.76 22.75 44.41 22.75 44.41 60.15 55.37 60.15 55.37 22.75 63.02 22.75" fill="#414141"/><rect x="26.55" y="28.55" width="10.95" height="31.59" fill="#414141"/><path d="M11.73,36.69A11.73,11.73,0,1,0,23.46,48.42,11.73,11.73,0,0,0,11.73,36.69ZM15.51,52.5a3.48,3.48,0,0,1-1.06,1.24,4.28,4.28,0,0,1-1.59.64v1.51a.29.29,0,0,1-.28.28H11.07a.29.29,0,0,1-.29-.28V54.44A5.11,5.11,0,0,1,9.15,54,7.85,7.85,0,0,1,7.2,52.5a.22.22,0,0,1-.08-.2.3.3,0,0,1,.08-.2l1.53-1.46a.28.28,0,0,1,.39,0A3.91,3.91,0,0,0,11.77,52a1.45,1.45,0,0,0,1-.38,1.14,1.14,0,0,0,.41-.86,1.12,1.12,0,0,0-.26-.73,3.37,3.37,0,0,0-1.16-.71A15.18,15.18,0,0,1,9.13,48,3.55,3.55,0,0,1,8,46.82a2.84,2.84,0,0,1-.37-1.42,2.81,2.81,0,0,1,1-2.15,3.67,3.67,0,0,1,2.13-.92V41a.29.29,0,0,1,.29-.28h1.51a.29.29,0,0,1,.28.28v1.45a4.84,4.84,0,0,1,1.17.44,6.51,6.51,0,0,1,1.34,1,.27.27,0,0,1,.09.21.25.25,0,0,1-.09.2l-1.55,1.41a.29.29,0,0,1-.39,0,2.81,2.81,0,0,0-1.9-.94,1.26,1.26,0,0,0-.81.24.6.6,0,0,0-.28.48.73.73,0,0,0,.25.47,3.68,3.68,0,0,0,1.24.66,12,12,0,0,1,2.51,1.21,3.63,3.63,0,0,1,1.09,1.26,3.57,3.57,0,0,1,.39,1.67A3.64,3.64,0,0,1,15.51,52.5Z" fill="#414141"/></g></g></svg>