<svg xmlns="http://www.w3.org/2000/svg" viewBox="0 0 79.13 49.87"><title>paypal</title><g id="db841037-5b74-4db3-a6d5-45882b95f9a7" data-name="圖層 2"><g id="ab8f7abd-352e-47be-a5fe-fab4551f642f" data-name="圖層 1"><path d="M28,18.47a5.05,5.05,0,0,1-.55.18,4.58,4.58,0,0,0-1.52.57c-.36.27-.28.6-.24.92a.4.4,0,0,0,.08.2.77.77,0,0,0,.51.24,1.31,1.31,0,0,0,.28,0h0a1.85,1.85,0,0,0,1.87-1.83.48.48,0,0,0,0-.18C28.39,18.41,28.23,18.35,28,18.47Z" fill="none"/><path d="M49.3,13a8.69,8.69,0,0,1-1.25,0c-.28,0-.42.11-.41.4v1.74a.22.22,0,0,0,0,.08.09.09,0,0,0,0,0,.06.06,0,0,0,0,0,.19.19,0,0,0,.18.13,2.9,2.9,0,0,0,2.08-.32,1.14,1.14,0,0,0,.44-.81,1.08,1.08,0,0,0,0-.31C50.22,13.55,49.83,13,49.3,13Z" fill="none"/><path d="M16.68,13.07H15.34c-.26,0-.38.12-.38.39v.82c0,1.18,0,1.18,1.19,1.18a1.36,1.36,0,0,0,1.41-.89A1.28,1.28,0,0,0,16.68,13.07Z" fill="none"/><path d="M61.1,18.77c0-.28-.1-.41-.42-.28a5.44,5.44,0,0,1-1.13.33,1.82,1.82,0,0,0-.91.42c-.35.29-.35.5-.18.91a.71.71,0,0,0,.83.45,1.87,1.87,0,0,0,.41,0h0l.09,0,.17,0,.14-.05.14-.07a.57.57,0,0,0,.13-.08l.12-.09.12-.11.1-.11.09-.12a1,1,0,0,0,.08-.14.91.91,0,0,0,.07-.14,1.21,1.21,0,0,0,0-.14,1.36,1.36,0,0,0,0-.17.29.29,0,0,0,0-.09v0A1.41,1.41,0,0,0,61.1,18.77Z" fill="none"/><path d="M72,1.74H7.13A5.41,5.41,0,0,0,1.74,7.13V29h40.8c.34,0,.4.18.22.47-.44.73-.89,1.47-1.32,2.21L39.52,35c-.68,1.16-1.35,2.32-2,3.49a1.62,1.62,0,0,1-1.57,1H1.74v3.23a5.41,5.41,0,0,0,5.39,5.39H72a5.4,5.4,0,0,0,5.33-5.41V39.61a.35.35,0,0,0-.33-.13H39.56a4.34,4.34,0,0,1-.51,0c-.33,0-.48-.06-.24-.47s.48-.81.71-1.22c.38-.67.74-1.39,1.15-2s.72-1.27,1.1-1.89c.52-.83,1-1.7,1.46-2.55.3-.54.67-1,.92-1.59a1.15,1.15,0,0,1,1.2-.76l31.28,0h.51a.27.27,0,0,0,.25-.11V7.13A5.41,5.41,0,0,0,72,1.74ZM20.33,17a4.24,4.24,0,0,1-1.76.94,12.48,12.48,0,0,1-3.11.18c-.35,0-.48.13-.48.49V22c0,.34-.14.47-.42.47H11.41c-.29,0-.38-.2-.38-.45V11.15c0-.69.09-.78.77-.78h5.51a4.74,4.74,0,0,1,2.57.68A2.75,2.75,0,0,1,21,12.46a4.93,4.93,0,0,1,.35,1.9A3.67,3.67,0,0,1,20.33,17Zm11.36,5.49H29.25a.56.56,0,0,1-.55-.52c-.08-.42-.27-.32-.46-.15a3.09,3.09,0,0,1-1.3.69,1.79,1.79,0,0,1-.46.09,12.16,12.16,0,0,1-2.09,0,3.08,3.08,0,0,1-2.09-1.63,2.41,2.41,0,0,1,.09-2,2.12,2.12,0,0,1,1.31-1.16,18.11,18.11,0,0,1,2.91-.69c.54-.09,1-.27,1.54-.4.13,0,.34-.09.27-.31s-.1-.49-.35-.63a1.77,1.77,0,0,0-1.37-.11,1.16,1.16,0,0,0-.94.71.42.42,0,0,1-.45.24,2.51,2.51,0,0,1-.67,0,5.43,5.43,0,0,0-1.75-.17c-.33,0-.48-.09-.39-.47a2.79,2.79,0,0,1,1.93-2.09,8.74,8.74,0,0,1,3.41-.36,5.6,5.6,0,0,1,2.66.65,2.81,2.81,0,0,1,1.15,1.67,13.12,13.12,0,0,1,.17,3V21a1.67,1.67,0,0,0,.18.93C32.16,22.2,32,22.44,31.69,22.44ZM42.77,14c-.32.78-.61,1.68-.88,2.37s-.54,1.46-.78,2.07a19.34,19.34,0,0,0-.67,1.87c-.2.7-.51,1.34-.74,2A14.66,14.66,0,0,1,39,24a2.91,2.91,0,0,1-2.76,1.79H33.87a.67.67,0,0,1-.68-.68,6.2,6.2,0,0,1,0-1.61c0-.37.3-.18.51-.18a2.54,2.54,0,0,0,1.76-.07c.35-.15.79-.75.71-1a5,5,0,0,0-.36-.9c-.37-.68-.56-1.34-.91-2.12s-.67-1.58-1-2.37l-1-2.44a1.4,1.4,0,0,1-.09-.29c-.12-.54-.11-.54.41-.54h2.44c.54,0,.56.07.74.6.26.76.46,1.54.72,2.3a12.89,12.89,0,0,1,.47,1.61c0,.27.28.48.28.79a1.69,1.69,0,0,0,.42-.93c.23-.92.54-1.82.79-2.73.1-.36.19-.78.26-1.1s.23-.53.57-.53h2.6C42.82,13.61,42.92,13.71,42.77,14ZM54,15a3.24,3.24,0,0,1-1.35,2.19,4.78,4.78,0,0,1-2.91.81H48.16c-.52,0-.52.05-.52.52v3.27c0,.55-.06.61-.61.61H44.47c-.55,0-.62-.07-.62-.61V11.06c0-.68,0-.68.66-.68,1.89,0,3.78-.06,5.67,0a3.88,3.88,0,0,1,3.17,1.35A2.88,2.88,0,0,1,54,13.38,8.77,8.77,0,0,1,54,15Zm10.56,7.4H62c-.29,0-.38-.16-.49-.55s-.14-.4-.43-.16a3.33,3.33,0,0,1-2.23.83H57.37a2.64,2.64,0,0,1-2.43-2.41,2.47,2.47,0,0,1,1.75-2.36,25.73,25.73,0,0,1,2.73-.64,12.19,12.19,0,0,0,1.46-.42c.34-.11.33-.69,0-.92a1.66,1.66,0,0,0-1.36-.14,1.18,1.18,0,0,0-1,.75.36.36,0,0,1-.39.2c-.87-.07-1.73-.24-2.61-.24-.27,0-.27-.16-.27-.42a2.8,2.8,0,0,1,1.63-2,2.76,2.76,0,0,1,1.19-.33c.56,0,1-.17,1.56-.17a11.92,11.92,0,0,1,2.46.23,2.61,2.61,0,0,1,2.33,2.71v3.43A7.42,7.42,0,0,0,64.81,22C64.88,22.23,64.82,22.4,64.56,22.4Zm5.36-.6c0,.45-.13.6-.58.6H67.06c-.53,0-.62-.1-.62-.63V11c0-.49.08-.59.56-.59h2.37c.46,0,.55.1.55.57Z" fill="none"/><path d="M19.88,11.05a4.74,4.74,0,0,0-2.57-.68H11.8c-.68,0-.77.09-.77.78V22c0,.25.09.45.38.45h3.15c.28,0,.43-.13.42-.47V18.56c0-.36.13-.47.48-.49a12.48,12.48,0,0,0,3.11-.18A4.24,4.24,0,0,0,20.33,17a3.67,3.67,0,0,0,1-2.59,4.93,4.93,0,0,0-.35-1.9A2.75,2.75,0,0,0,19.88,11.05Zm-2.32,3.52a1.36,1.36,0,0,1-1.41.89c-1.19,0-1.19,0-1.19-1.18v-.82c0-.27.12-.39.38-.39h1.34A1.28,1.28,0,0,1,17.56,14.57Z"/><path d="M53.35,11.73a3.88,3.88,0,0,0-3.17-1.35c-1.89-.06-3.78,0-5.67,0-.62,0-.66,0-.66.68V21.79c0,.54.07.61.62.61H47c.55,0,.6-.06.61-.61V18.52c0-.47,0-.51.52-.52h1.58a4.78,4.78,0,0,0,2.91-.81A3.24,3.24,0,0,0,54,15a8.77,8.77,0,0,0,0-1.62A2.88,2.88,0,0,0,53.35,11.73Zm-3.42,3.39a2.9,2.9,0,0,1-2.08.32.19.19,0,0,1-.18-.13.06.06,0,0,1,0,0,.09.09,0,0,1,0,0,.22.22,0,0,1,0-.08V13.4c0-.29.13-.4.41-.4a8.69,8.69,0,0,0,1.25,0c.53,0,.92.55,1.06,1a1.08,1.08,0,0,1,0,.31A1.14,1.14,0,0,1,49.93,15.12Z"/><path d="M42.51,13.61h-2.6c-.34,0-.5.21-.57.53s-.16.74-.26,1.1c-.25.91-.56,1.81-.79,2.73a1.69,1.69,0,0,1-.42.93c0-.31-.23-.52-.28-.79a12.89,12.89,0,0,0-.47-1.61c-.26-.76-.46-1.54-.72-2.3-.18-.53-.2-.59-.74-.6H33.22c-.52,0-.53,0-.41.54a1.4,1.4,0,0,0,.09.29l1,2.44c.33.79.65,1.59,1,2.37s.54,1.44.91,2.12a5,5,0,0,1,.36.9c.08.25-.36.85-.71,1a2.54,2.54,0,0,1-1.76.07c-.21,0-.49-.19-.51.18a6.2,6.2,0,0,0,0,1.61.67.67,0,0,0,.68.68h2.37A2.91,2.91,0,0,0,39,24a14.66,14.66,0,0,0,.7-1.69c.23-.66.54-1.3.74-2a19.34,19.34,0,0,1,.67-1.87c.24-.61.51-1.38.78-2.07s.56-1.59.88-2.37C42.92,13.71,42.82,13.61,42.51,13.61Z"/><path d="M31.82,21V18.8a13.12,13.12,0,0,0-.17-3,2.81,2.81,0,0,0-1.15-1.67,5.6,5.6,0,0,0-2.66-.65,8.74,8.74,0,0,0-3.41.36,2.79,2.79,0,0,0-1.93,2.09c-.09.38.06.46.39.47a5.43,5.43,0,0,1,1.75.17,2.51,2.51,0,0,0,.67,0,.42.42,0,0,0,.45-.24,1.16,1.16,0,0,1,.94-.71,1.77,1.77,0,0,1,1.37.11c.25.14.28.41.35.63s-.14.27-.27.31c-.51.13-1,.31-1.54.4a18.11,18.11,0,0,0-2.91.69,2.12,2.12,0,0,0-1.31,1.16,2.41,2.41,0,0,0-.09,2,3.08,3.08,0,0,0,2.09,1.63,12.16,12.16,0,0,0,2.09,0,1.79,1.79,0,0,0,.46-.09,3.09,3.09,0,0,0,1.3-.69c.19-.17.38-.27.46.15a.56.56,0,0,0,.55.52h2.44c.32,0,.47-.24.31-.51A1.67,1.67,0,0,1,31.82,21Zm-5.22-.41h0a1.31,1.31,0,0,1-.28,0,.77.77,0,0,1-.51-.24.4.4,0,0,1-.08-.2c0-.32-.12-.65.24-.92a4.58,4.58,0,0,1,1.52-.57,5.05,5.05,0,0,0,.55-.18c.23-.12.39-.06.44.11a.48.48,0,0,1,0,.18A1.85,1.85,0,0,1,26.6,20.59Z"/><path d="M64.42,19.79V16.36a2.61,2.61,0,0,0-2.33-2.71,11.92,11.92,0,0,0-2.46-.23c-.53,0-1,.17-1.56.17a2.76,2.76,0,0,0-1.19.33,2.8,2.8,0,0,0-1.63,2c0,.26,0,.42.27.42.88,0,1.74.17,2.61.24a.36.36,0,0,0,.39-.2,1.18,1.18,0,0,1,1-.75,1.66,1.66,0,0,1,1.36.14c.33.23.34.81,0,.92a12.19,12.19,0,0,1-1.46.42,25.73,25.73,0,0,0-2.73.64,2.47,2.47,0,0,0-1.75,2.36,2.64,2.64,0,0,0,2.43,2.41h1.49a3.33,3.33,0,0,0,2.23-.83c.29-.24.32-.23.43.16s.2.54.49.55h2.55c.26,0,.32-.17.25-.42A7.42,7.42,0,0,1,64.42,19.79Zm-3.34-.48a1.36,1.36,0,0,1,0,.17,1.21,1.21,0,0,1,0,.14.91.91,0,0,1-.07.14,1,1,0,0,1-.08.14l-.09.12-.1.11-.12.11-.12.09a.57.57,0,0,1-.13.08l-.14.07-.14.05-.17,0-.09,0h0a1.87,1.87,0,0,1-.41,0,.71.71,0,0,1-.83-.45c-.17-.41-.17-.62.18-.91a1.82,1.82,0,0,1,.91-.42,5.44,5.44,0,0,0,1.13-.33c.32-.13.4,0,.42.28a1.41,1.41,0,0,1,0,.41v0A.29.29,0,0,1,61.08,19.31Z"/><path d="M69.37,10.37H67c-.48,0-.56.1-.56.59V21.77c0,.53.09.62.62.63h2.28c.45,0,.58-.15.58-.6V10.94C69.92,10.47,69.83,10.37,69.37,10.37Z"/><path d="M72,0H7.13A7.14,7.14,0,0,0,0,7.13V42.74a7.14,7.14,0,0,0,7.13,7.13H72a7.14,7.14,0,0,0,7.13-7.13V7.13A7.14,7.14,0,0,0,72,0Zm5.39,28.91a.27.27,0,0,1-.25.11h-.51L45.35,29a1.15,1.15,0,0,0-1.2.76c-.25.56-.62,1-.92,1.59-.49.85-.94,1.72-1.46,2.55-.38.62-.69,1.28-1.1,1.89s-.77,1.33-1.15,2c-.23.41-.47.81-.71,1.22s-.09.44.24.47a4.34,4.34,0,0,0,.51,0H77a.35.35,0,0,1,.33.13v3.11A5.4,5.4,0,0,1,72,48.13H7.13a5.41,5.41,0,0,1-5.39-5.39V39.51H36a1.62,1.62,0,0,0,1.57-1c.65-1.17,1.32-2.33,2-3.49l1.92-3.36c.43-.74.88-1.48,1.32-2.21.18-.29.12-.44-.22-.47H1.74V7.13A5.41,5.41,0,0,1,7.13,1.74H72a5.41,5.41,0,0,1,5.39,5.39Z"/></g></g></svg>