<svg xmlns="http://www.w3.org/2000/svg" viewBox="0 0 41 60"><title>phone-success</title><g id="4700b992-d1d5-4b3f-9110-1640a03e2236" data-name="圖層 2"><g id="11ff5940-150a-4fd5-8b6f-9d53b06c99cf" data-name="圖層 1"><path d="M38,6.25A3.26,3.26,0,0,0,34.75,3H6.25A3.26,3.26,0,0,0,3,6.25V9.5H38Z" fill="none"/><path d="M38,12.5H3V45.13H38ZM32,26.56,21.08,37.44a4.5,4.5,0,0,1-6.39,0L9,31.79a4.51,4.51,0,0,1,6.38-6.38l2.47,2.46,7.69-7.69A4.51,4.51,0,0,1,32,26.56Z" fill="none"/><path d="M27.7,22.3,19,31.05a1.49,1.49,0,0,1-2.12,0L13.3,27.53a1.46,1.46,0,0,0-1.07-.44,1.5,1.5,0,0,0-1.07.44,1.52,1.52,0,0,0,0,2.14l5.66,5.65a1.52,1.52,0,0,0,2.13,0L29.84,24.44A1.51,1.51,0,0,0,27.7,22.3Z" fill="none"/><path d="M3,53.75A3.26,3.26,0,0,0,6.25,57h28.5A3.26,3.26,0,0,0,38,53.75V48.13H3Zm15.13-2.7h4.75a1.5,1.5,0,0,1,1.5,1.5,1.52,1.52,0,0,1-1.5,1.52H18.13a1.5,1.5,0,0,1-1.5-1.5A1.52,1.52,0,0,1,18.13,51.05Z" fill="none"/><path d="M34.75,0H6.25A6.25,6.25,0,0,0,0,6.25v47.5A6.25,6.25,0,0,0,6.25,60h28.5A6.25,6.25,0,0,0,41,53.75V6.25A6.25,6.25,0,0,0,34.75,0ZM3,12.5H38V45.13H3ZM3,6.25A3.26,3.26,0,0,1,6.25,3h28.5A3.26,3.26,0,0,1,38,6.25V9.5H3Zm35,47.5A3.26,3.26,0,0,1,34.75,57H6.25A3.26,3.26,0,0,1,3,53.75V48.13H38Z" fill="#262626"/><path d="M18.13,54.07h4.75a1.52,1.52,0,0,0,1.5-1.52,1.5,1.5,0,0,0-1.5-1.5H18.13a1.52,1.52,0,0,0-1.5,1.52A1.5,1.5,0,0,0,18.13,54.07Z" fill="#262626"/><path d="M28.77,18.86a4.48,4.48,0,0,0-3.19,1.32l-7.69,7.69-2.47-2.46A4.51,4.51,0,0,0,9,31.79l5.65,5.65a4.5,4.5,0,0,0,6.39,0L32,26.56a4.51,4.51,0,0,0-3.19-7.7Zm1.07,5.58L19,35.32a1.52,1.52,0,0,1-2.13,0l-5.66-5.65a1.52,1.52,0,0,1,0-2.14,1.5,1.5,0,0,1,1.07-.44,1.46,1.46,0,0,1,1.07.44l3.53,3.52a1.49,1.49,0,0,0,2.12,0L27.7,22.3a1.51,1.51,0,0,1,2.14,2.14Z" fill="#262626"/></g></g></svg>