<?xml version="1.0" encoding="utf-8"?>
<!-- Generator: Adobe Illustrator 15.1.0, SVG Export Plug-In  -->
<!DOCTYPE svg PUBLIC "-//W3C//DTD SVG 1.1//EN" "http://www.w3.org/Graphics/SVG/1.1/DTD/svg11.dtd" [
	<!ENTITY ns_flows "http://ns.adobe.com/Flows/1.0/">
]>
<svg version="1.1"
	 xmlns="http://www.w3.org/2000/svg" xmlns:xlink="http://www.w3.org/1999/xlink" xmlns:a="http://ns.adobe.com/AdobeSVGViewerExtensions/3.0/"
	 x="0px" y="0px" width="32px" height="32px" viewBox="0.057 -1.475 32 32" enable-background="new 0.057 -1.475 32 32"
	 xml:space="preserve">
<defs>
</defs>
<path fill="#262626" d="M29.981,3.496c-0.218-0.218-0.611-0.218-0.829,0c-0.219,0.219-0.219,0.611,0,0.83
	c2.385,2.384,2.385,6.265,0,8.651c-0.219,0.218-0.219,0.61,0,0.828c0.104,0.105,0.267,0.172,0.415,0.172
	c0.147,0,0.31-0.066,0.414-0.172c1.375-1.375,2.133-3.205,2.133-5.154C32.114,6.703,31.356,4.871,29.981,3.496z"/>
<path fill="#262626" d="M28.204,5.274c-0.218-0.219-0.611-0.219-0.83,0c-0.218,0.218-0.218,0.61,0,0.828
	c0.681,0.682,1.056,1.586,1.056,2.549c0,0.962-0.375,1.867-1.056,2.547c-0.218,0.22-0.218,0.611,0,0.83
	c0.104,0.105,0.268,0.172,0.415,0.172c0.148,0,0.311-0.066,0.415-0.172c0.902-0.902,1.399-2.102,1.399-3.377
	C29.604,7.375,29.106,6.175,28.204,5.274z"/>
<path fill="#262626" d="M2.962,4.326c0.219-0.219,0.219-0.611,0-0.83c-0.218-0.218-0.611-0.218-0.829,0C0.758,4.871,0,6.703,0,8.651
	c0,1.949,0.758,3.779,2.133,5.154c0.104,0.105,0.267,0.172,0.414,0.172c0.148,0,0.311-0.066,0.415-0.172
	c0.219-0.218,0.219-0.61,0-0.828C0.577,10.591,0.577,6.71,2.962,4.326z"/>
<path fill="#262626" d="M4.739,5.274c-0.218-0.219-0.611-0.219-0.829,0c-0.902,0.9-1.399,2.101-1.399,3.377
	c0,1.275,0.497,2.475,1.399,3.377C4.015,12.134,4.177,12.2,4.325,12.2c0.147,0,0.311-0.066,0.414-0.172
	c0.219-0.219,0.219-0.61,0-0.83c-0.68-0.68-1.055-1.585-1.055-2.547c0-0.963,0.375-1.867,1.055-2.549
	C4.958,5.885,4.958,5.492,4.739,5.274z"/>
<path fill="#262626" d="M22.202,0H9.912c-1.54,0-2.794,1.253-2.794,2.794v2.793v17.877v2.793c0,1.541,1.254,2.794,2.794,2.794h12.29
	c1.54,0,2.794-1.253,2.794-2.794v-2.793V5.587V2.794C24.996,1.253,23.742,0,22.202,0z M8.236,6.146h15.643v16.76H8.236V6.146z
	 M8.236,2.794c0-0.924,0.752-1.677,1.676-1.677h12.29c0.924,0,1.677,0.753,1.677,1.677v2.234H8.236V2.794z M23.879,26.257
	c0,0.925-0.753,1.677-1.677,1.677H9.912c-0.924,0-1.676-0.752-1.676-1.677v-2.234h15.643V26.257z"/>
<path fill="#262626" d="M17.559,2.486h-3.003c-0.309,0-0.587,0.277-0.587,0.587c0,0.309,0.278,0.586,0.587,0.586h3.003
	c0.309,0,0.587-0.277,0.587-0.586C18.146,2.764,17.867,2.486,17.559,2.486z"/>
<circle fill="#262626" cx="16.058" cy="25.978" r="1.117"/>
</svg>
