<svg xmlns="http://www.w3.org/2000/svg" viewBox="0 0 62.56 50.01"><title>photo</title><g id="aa5b38f9-62f8-4ff4-ae5a-60d05be59620" data-name="圖層 2"><g id="425dd1c0-8c73-43c7-8a9b-bcc17fc53b5f" data-name="圖層 1"><path d="M35.86,15.59a7.07,7.07,0,1,1-7.08-7.06A7.07,7.07,0,0,1,35.86,15.59ZM4.55,50a4.51,4.51,0,0,1-3.21-1.33A4.58,4.58,0,0,1,0,45.39V4.62A4.66,4.66,0,0,1,4.68,0H58a4.59,4.59,0,0,1,4.54,4.62V45.39A4.74,4.74,0,0,1,57.86,50H4.55Zm16-24.32a2.26,2.26,0,0,1,1.55.86c1.62,1.55,15.27,15,15.41,15.15a1.31,1.31,0,0,0,.93.39,1.34,1.34,0,0,0,.94-2.29l-8-7.92L47.54,19.13a2.79,2.79,0,0,1,1.73-.78,3.64,3.64,0,0,1,2,.83c1,.67,7,6.05,7,6.05V7.13A2.74,2.74,0,0,0,55.62,4.4H7A2.73,2.73,0,0,0,4.31,7.13V40.71s12-12.42,14-14A3.93,3.93,0,0,1,20.52,25.68Z"/></g></g></svg>