<svg xmlns="http://www.w3.org/2000/svg" viewBox="0 0 53.1 41.08"><title>prev-step</title><g id="68605108-9546-4325-adc3-055780ce4b78" data-name="圖層 2"><g id="bc475b5f-e092-443a-b08e-e6dbd73799c1" data-name="圖層 1"><path d="M2.55,36h33a12.46,12.46,0,0,0,0-24.91H8.71l1.64,1.65a2.55,2.55,0,0,1-3.6,3.61l-6-6a2.4,2.4,0,0,1-.51-.77.21.21,0,0,1,0-.06s0,0,0,0a2.47,2.47,0,0,1,0-1.85s0,0,0-.05l0-.06a2.4,2.4,0,0,1,.51-.77l6-6a2.59,2.59,0,0,1,3.6,0,2.58,2.58,0,0,1,0,3.61L8.71,6H35.55a17.55,17.55,0,1,1,0,35.09h-33a2.55,2.55,0,1,1,0-5.09Z"/></g></g></svg>