<svg xmlns="http://www.w3.org/2000/svg" viewBox="0 0 95.16 57.1"><title>preview</title><g id="8fe21d4d-3e0d-41e5-b1d2-db7ae49e70c7" data-name="圖層 2"><g id="e1eeeefa-09cd-4af2-9ac3-deaa27ebe7e7" data-name="圖層 1"><path d="M47.58,16.1A12.45,12.45,0,1,0,60,28.55,12.44,12.44,0,0,0,47.58,16.1ZM46.14,26.73C44,28.91,41,29.46,39.46,28s-1-4.5,1.23-6.68,5.18-2.74,6.68-1.24S48.31,24.54,46.14,26.73Zm8.77,8.78c-1.19,1.19-2.76,1.54-3.51.79s-.4-2.32.79-3.51S55,31.25,55.69,32,56.1,34.32,54.91,35.51Z"/><path d="M47.59,0C28.24,0,11,11.08,0,28.54,11,46,28.24,57.1,47.59,57.1S84.17,46,95.16,28.54C84.17,11.08,66.91,0,47.59,0Zm0,49.57a21,21,0,1,1,21-21A21,21,0,0,1,47.58,49.57Z"/></g></g></svg>