<svg xmlns="http://www.w3.org/2000/svg" viewBox="0 0 93.16 93.58"><title>資產 12</title><g id="f2efb178-2f8a-4365-9279-d5cded9f9de8" data-name="圖層 2"><g id="53c208f2-e2e3-4c6f-8db0-28b270c9d32a" data-name="圖層 1"><path d="M79.49,13.62A46.14,46.14,0,0,0,45,0,46.91,46.91,0,0,0,3.94,27.84a46,46,0,0,0-3.86,16C0,45.08,0,46.34,0,47.57A46.15,46.15,0,0,0,9.44,74.7L3.23,87.49A4.24,4.24,0,0,0,7,93.58a4.14,4.14,0,0,0,1.73-.37l14.39-6.38A46.57,46.57,0,0,0,79.49,13.62Zm-45,71.13a40.5,40.5,0,0,1-8.93-4.11h0A4.19,4.19,0,0,0,23.32,80a4.3,4.3,0,0,0-1.72.35l-9.74,4.32L16,76.24a4.23,4.23,0,0,0-.53-4.5,39.61,39.61,0,0,1-8.89-24.3c0-1.07,0-2.16.07-3.24A39.1,39.1,0,0,1,9.92,30.49,40.32,40.32,0,0,1,45.25,6.56,40,40,0,1,1,34.46,84.75Z"/><path d="M40,23.49c-5.22,2.89-7.76,8.06-7.76,15.8a3.13,3.13,0,0,0,3.27,3.19,3.36,3.36,0,0,0,2.21-.79,3.1,3.1,0,0,0,1.06-2.4c0-6.09,1.93-9.52,6.07-10.8a8.46,8.46,0,0,1,7.2,1.07A8.7,8.7,0,0,1,56,35.92c.43,4.21-1.14,7.41-5.27,10.7-4.34,3.46-6.45,7.45-6.45,12.22a3.27,3.27,0,0,0,6.54,0c0-3.73,2.32-5.71,5-8a19.63,19.63,0,0,0,4.91-5.41c3.16-5.84,2.3-13.91-2-18.77A15.24,15.24,0,0,0,40,23.49Z"/><path d="M47.53,63.21a4.13,4.13,0,1,0,4.13,4.13A4.13,4.13,0,0,0,47.53,63.21Z"/></g></g></svg>