<svg xmlns="http://www.w3.org/2000/svg" viewBox="0 0 79.49 75.94"><title>remark</title><g id="e947e844-fc53-4327-af01-a24ce65fcb1d" data-name="圖層 2"><g id="38d2175d-c7dd-49f5-ab80-856e72397d87" data-name="圖層 1"><path d="M16.05,1.13l-7,7-2-2A4.14,4.14,0,0,0,4.08,5,4.27,4.27,0,0,0,1.17,6.3a4,4,0,0,0,0,5.62L6.23,17a4,4,0,0,0,5.62,0l10-10A4.09,4.09,0,0,0,22.94,4a4.31,4.31,0,0,0-1.27-2.91A4.05,4.05,0,0,0,16.05,1.13Z"/><path d="M36.82,13.13H75.51a4.25,4.25,0,0,0,4-4.28,4,4,0,0,0-4-4H36.82a4.24,4.24,0,0,0-4,4.27A4,4,0,0,0,36.82,13.13Z"/><path d="M19,24.35H4.08a4,4,0,0,0-4,4V43.21a4,4,0,0,0,4,4H19a4,4,0,0,0,4-4V28.32A4,4,0,0,0,19,24.35ZM15,32.3v6.93H8.06V32.3Z"/><path d="M75.51,31.64H36.82a4.24,4.24,0,0,0-4,4.27,4,4,0,0,0,4,4H75.51a4.24,4.24,0,0,0,4-4.27A4,4,0,0,0,75.51,31.64Z"/><path d="M19,53.11H4.08a4,4,0,0,0-4,4V72a4,4,0,0,0,4,4H19a4,4,0,0,0,4-4V57.09A4,4,0,0,0,19,53.11Zm-4,8V68H8.06V61.06Z"/><path d="M75.51,60.4H36.82a4.25,4.25,0,0,0-4,4.28,4,4,0,0,0,4,4H75.51a4.24,4.24,0,0,0,4-4.27A4,4,0,0,0,75.51,60.4Z"/></g></g></svg>