<svg id="圖層_1" data-name="圖層 1" xmlns="http://www.w3.org/2000/svg" viewBox="0 0 56.88 57.01"><defs><style>.cls-1{fill:none;}.cls-2{fill:#262626;}</style></defs><polygon class="cls-1" points="30 3.41 30 7.01 33.6 7.01 30 3.41"/><path class="cls-1" d="M9,18a1,1,0,0,1,0-2h4A8,8,0,0,1,26.2,7H28V2H5A3,3,0,0,0,2,5V45a3,3,0,0,0,3,3H16.88V36H9a1,1,0,1,1,0-2h7.88V30H9a1,1,0,0,1,0-2h7.88V24H9a1,1,0,0,1,0-2h7.88v-2.6A8,8,0,0,1,14.7,18Z"/><path class="cls-1" d="M44.88,18V9H27.37A8,8,0,0,1,20,20a7.59,7.59,0,0,1-1.07-.08V52a3,3,0,0,0,3,3h30a3,3,0,0,0,3-3V19h-9A1,1,0,0,1,44.88,18Zm3,26h-22a1,1,0,1,1,0-2h22a1,1,0,1,1,0,2Zm0-6h-22a1,1,0,0,1-1-1,1,1,0,0,1,.91-1l.1,0h22a1,1,0,1,1,0,2Zm0-6h-22a1,1,0,0,1-1-1,1,1,0,0,1,.91-1l.1,0h22a1,1,0,0,1,0,2Zm1-7a1,1,0,0,1-1,1h-22a1,1,0,0,1-1-1,1,1,0,0,1,.91-1l.1,0h22A1,1,0,0,1,48.89,25Z"/><path class="cls-2" d="M56.87,18a2,2,0,0,0,0-.26.69.69,0,0,1,0-.1,1,1,0,0,0-.18-.27l0,0-10-10,0,0a1,1,0,0,0-.27-.18l-.1,0L45.94,7H36.42L29.71.29h0A1.07,1.07,0,0,0,29.42.1a.32.32,0,0,0-.09,0A1.31,1.31,0,0,0,29.06,0H5A5,5,0,0,0,0,5V45a5,5,0,0,0,5,5H16.88v2a5,5,0,0,0,5,5h30a5,5,0,0,0,5-5V18S56.87,18,56.87,18Zm-10-7.53L53.47,17H46.88ZM30,3.41,33.6,7H30ZM16.88,22H9a1,1,0,0,0,0,2h7.88v4H9a1,1,0,0,0,0,2h7.88v4H9a1,1,0,1,0,0,2h7.88V48H5a3,3,0,0,1-3-3V5A3,3,0,0,1,5,2H28V7H26.2A8,8,0,0,0,13,16H9a1,1,0,0,0,0,2h5.7a8,8,0,0,0,2.18,1.38Zm-1.25-9.17v-2H19V7.35h2v3.5h3.35v2H21v3.5H19v-3.5ZM54.88,52a3,3,0,0,1-3,3h-30a3,3,0,0,1-3-3V19.92A7.59,7.59,0,0,0,20,20a8,8,0,0,0,5.27-2,8.07,8.07,0,0,0,1.66-2,8,8,0,0,0,.49-7H44.88v9a1,1,0,0,0,1,1h9Z"/><path class="cls-2" d="M47.88,42h-22a1,1,0,1,0,0,2h22a1,1,0,1,0,0-2Z"/><path class="cls-2" d="M47.88,36h-22l-.1,0a1,1,0,0,0-.91,1,1,1,0,0,0,1,1h22a1,1,0,1,0,0-2Z"/><path class="cls-2" d="M47.88,30h-22l-.1,0a1,1,0,0,0-.91,1,1,1,0,0,0,1,1h22a1,1,0,0,0,0-2Z"/><path class="cls-2" d="M38,24H25.88l-.1,0a1,1,0,0,0-.91,1,1,1,0,0,0,1,1h22a1,1,0,0,0,0-2H38Z"/></svg>