<?xml version="1.0" encoding="utf-8"?>
<!-- Generator: Adobe Illustrator 25.2.3, SVG Export Plug-In . SVG Version: 6.00 Build 0)  -->
<svg version="1.1" id="圖層_1" xmlns="http://www.w3.org/2000/svg" xmlns:xlink="http://www.w3.org/1999/xlink" x="0px" y="0px"
	 viewBox="0 0 37 37" style="enable-background:new 0 0 37 37;" xml:space="preserve">
<g>
	<g id="_x39_1a241dd-ea98-439b-b06b-a8e612cdb08e">
		<g id="_x34_d9d96de-e84e-4e6e-8d27-bfc653b935f9">
			<g id="fcf68dc5-4e12-4da7-a078-83460ef764f4">
				<g id="_x38_7682128-c2ef-4e0e-8d8b-67c3f4cc5c28">
					<path d="M32.2,19.8c0.2-0.3,0.4-0.6,0.5-0.9v-0.1c0-0.1,0-0.2,0-0.4c0-0.1,0-0.2,0-0.4V18c-0.1-0.3-0.2-0.7-0.5-0.9L20,5
						c-0.7-0.7-1.9-0.7-2.7,0c-0.7,0.7-0.7,1.9,0,2.7l8.9,8.9H1.9c-1,0-1.9,0.8-1.9,1.9s0.8,1.9,1.9,1.9h24.4l-8.9,8.9
						c-0.7,0.7-0.7,1.9,0,2.7c0.7,0.7,1.9,0.7,2.7,0l0,0L32.2,19.8z"/>
				</g>
			</g>
		</g>
	</g>
	<g>
		<path d="M35.2,4.4c1,0,1.8,0.8,1.8,1.7v24.8c0,0.9-0.8,1.7-1.8,1.7c-1,0-1.8-0.7-1.8-1.7V6.1C33.4,5.2,34.2,4.4,35.2,4.4z"/>
	</g>
</g>
</svg>
