<svg xmlns="http://www.w3.org/2000/svg" viewBox="0 0 79.9 79.54"><title>rocket</title><g id="878d1bc7-6025-4e33-8e25-02ad2322f16d" data-name="圖層 2"><g id="22dc2df2-4880-4465-b38d-5373859f9ccb" data-name="圖層 1"><path d="M32.85,69.91a4.5,4.5,0,0,1-3.2-1.32L11.31,50.25a4.51,4.51,0,0,1,0-6.4L42.76,12.4A42.61,42.61,0,0,1,74.56,0L76,.1A4,4,0,0,1,79.8,3.89l.06,1.45A42.48,42.48,0,0,1,67.5,37.14L36,68.59A4.48,4.48,0,0,1,32.85,69.91ZM72.72,3.64A38.78,38.78,0,0,0,45.34,15L13.88,46.43a.88.88,0,0,0-.25.62.86.86,0,0,0,.25.62L32.23,66a.74.74,0,0,0,1.24,0L64.92,34.56A38.76,38.76,0,0,0,76.22,5.5L76.16,4a.32.32,0,0,0-.31-.3L74.4,3.68C73.84,3.65,73.28,3.64,72.72,3.64Z" fill="#253130"/><path d="M23.6,72.38a1.81,1.81,0,0,1-1.28-.53L8.05,57.58a1.81,1.81,0,0,1-.52-1.48,1.76,1.76,0,0,1,.82-1.33l6.43-4.16,2,3L12.22,56.6,23.3,67.68l2.93-4.54,3.06,2-4.16,6.44a1.81,1.81,0,0,1-1.33.82Z" fill="#253130"/><path d="M55.77,32.87A8.75,8.75,0,1,1,62,30.32h0A8.74,8.74,0,0,1,55.77,32.87Zm0-13.85a5.07,5.07,0,0,0-3.61,1.49A5.13,5.13,0,1,0,55.77,19Z" fill="#253130"/><path d="M14.74,43.09.24,28.58l1.27-1.29a33.38,33.38,0,0,1,25.42-9.42A20.78,20.78,0,0,0,43.45,11.8L46,14.38a24.3,24.3,0,0,1-19.29,7.13A29.83,29.83,0,0,0,5.41,28.6L17.32,40.51Z" fill="#253130"/><path d="M51.46,79.54,50,78.39,36.86,65.2l2.57-2.57L51.29,74.48a29.82,29.82,0,0,0,7.1-21.32,24.39,24.39,0,0,1,7.13-19.29l2.58,2.58A20.8,20.8,0,0,0,62,53a33.13,33.13,0,0,1-9.28,25.28Z" fill="#253130"/><rect x="7.19" y="69.2" width="13.98" height="3.64" transform="translate(-46.07 30.83) rotate(-45)" fill="#253130"/><rect x="5.09" y="62.58" width="10.23" height="3.64" transform="translate(-42.55 26.08) rotate(-45)" fill="#253130"/><rect x="0.74" y="70.17" width="3.75" height="3.64" transform="translate(-50.14 22.93) rotate(-45)" fill="#253130"/></g></g></svg>