<?xml version="1.0" encoding="utf-8"?>
<!-- Generator: Adobe Illustrator 15.1.0, SVG Export Plug-In  -->
<!DOCTYPE svg PUBLIC "-//W3C//DTD SVG 1.1//EN" "http://www.w3.org/Graphics/SVG/1.1/DTD/svg11.dtd" [
	<!ENTITY ns_flows "http://ns.adobe.com/Flows/1.0/">
]>
<svg version="1.1"
	 xmlns="http://www.w3.org/2000/svg" xmlns:xlink="http://www.w3.org/1999/xlink" xmlns:a="http://ns.adobe.com/AdobeSVGViewerExtensions/3.0/"
	 x="0px" y="0px" width="32px" height="32px" viewBox="-0.021 -2.664 32 32" enable-background="new -0.021 -2.664 32 32"
	 xml:space="preserve">
<defs>
</defs>
<path fill="#3E3E44" d="M31.79,0.163c-0.165-0.154-0.402-0.204-0.615-0.127L0.396,11.18c-0.222,0.081-0.376,0.284-0.394,0.52
	c-0.018,0.236,0.104,0.46,0.313,0.572l8.707,4.715v8.556c0,0.006,0.003,0.011,0.003,0.019c0.001,0.057,0.009,0.115,0.028,0.173
	c0,0,0,0.002,0.001,0.004c0.013,0.039,0.031,0.076,0.052,0.112c0.008,0.011,0.018,0.02,0.025,0.031
	c0.012,0.018,0.026,0.034,0.04,0.051c0.027,0.03,0.056,0.057,0.087,0.081c0.015,0.013,0.03,0.024,0.046,0.035
	c0.045,0.027,0.093,0.05,0.143,0.065c0.006,0.001,0.011,0.006,0.018,0.008c0.001,0,0.002,0,0.003,0
	c0.051,0.013,0.102,0.02,0.154,0.02c0.007,0,0.014-0.002,0.022-0.003c0.02-0.001,0.039-0.005,0.058-0.007
	c0.04-0.005,0.077-0.014,0.115-0.027c0.022-0.007,0.043-0.017,0.064-0.027c0.016-0.008,0.032-0.011,0.047-0.021l6.765-4.047
	l6.926,4.564c0.099,0.065,0.213,0.099,0.33,0.099c0.07,0,0.14-0.013,0.207-0.036c0.179-0.065,0.316-0.212,0.369-0.395l7.429-25.474
	C32.018,0.551,31.954,0.316,31.79,0.163 M11.314,23.83l2.261-3.878l2.008,1.324L11.314,23.83z M23.602,25.125l-9.291-6.124
	L28.626,4.2c0.215-0.222,0.226-0.57,0.025-0.806c-0.201-0.234-0.547-0.279-0.8-0.101L11.88,14.501
	c-0.271,0.19-0.336,0.564-0.146,0.835c0.19,0.271,0.563,0.337,0.835,0.146l10.822-7.595l-10.446,10.8
	c-0.001,0.001-0.002,0.003-0.004,0.005c-0.031,0.034-0.06,0.069-0.083,0.109l-2.638,4.521v-6.694c0-0.221-0.121-0.423-0.314-0.528
	L2.06,11.853L30.473,1.565L23.602,25.125z"/>
</svg>
