<svg xmlns="http://www.w3.org/2000/svg" viewBox="0 0 33.32 33.53"><title>shipping2</title><g id="aa4ca03e-54e8-4b50-bf08-d047dfb06426" data-name="圖層 2"><g id="7c6be6a7-660b-4d5e-ab84-fae24ceb0393" data-name="圖層 1"><rect x="18.83" y="12.23" width="1" height="5.57"/><rect x="10.17" y="12.72" width="1" height="5.08"/><path d="M1,33.53H0V23.94a3.58,3.58,0,0,1,2.71-3.16l4.08-1.4,4-2.19,1.06.93C14,20,16.05,20,18.2,18.12l1.06-.92,3.76,2-.47.88L19.4,18.4l-.55.47c-2.52,2.2-5.18,2.2-7.7,0l-.54-.46L7.19,20.29,3,21.74A2.58,2.58,0,0,0,1,24Z"/><path d="M15.36,16.31h-1a4,4,0,0,1-3.55-2.13C9.69,12,8.3,8.92,8.3,7h1c0,1.38.87,3.78,2.44,6.76a3,3,0,0,0,2.66,1.6h1A3,3,0,0,0,18,13.72c1.58-3,2.46-5.39,2.46-6.77h1c0,2-1.4,5-2.58,7.24A4,4,0,0,1,15.36,16.31Z"/><rect x="4.95" y="20.39" width="1" height="13.14"/><polygon points="28.13 26.19 24.18 26.19 24.18 21.74 25.18 21.74 25.18 25.19 27.13 25.19 27.13 21.74 28.13 21.74 28.13 26.19"/><rect x="8.41" y="24.42" width="11.08" height="1"/><path d="M21.48,7.45H8.3V6.08A6.09,6.09,0,0,1,14.38,0h1a6.09,6.09,0,0,1,6.08,6.08ZM9.3,6.45H20.48V6.08A5.09,5.09,0,0,0,15.4,1h-1A5.09,5.09,0,0,0,9.3,6.08Z"/><rect x="18.14" y="6.45" width="7.42" height="1"/><path d="M33.32,33.53H19V21.16H33.32ZM20,32.53H32.32V22.16H20Z"/><rect x="28.06" y="30.56" width="3.27" height="1"/><rect x="28.06" y="28.59" width="3.27" height="1"/><rect x="7.91" y="19.05" width="1" height="14.45"/><path d="M17.52,33.53H12.87a1.71,1.71,0,0,1-1.71-1.71V27.05h6.36v1H12.16v3.77a.71.71,0,0,0,.71.71h4.65Z"/></g></g></svg>