<svg xmlns="http://www.w3.org/2000/svg" viewBox="0 0 37 24.79"><title>shipping1</title><g id="c8c7b9ec-18ee-4242-abed-79f7435401da" data-name="圖層 2"><g id="94d4816d-4bf8-4885-881f-bfb76b7fa6cf" data-name="圖層 1"><path d="M24.4,21.64H11.09v-1H23.4V1.77A.76.76,0,0,0,22.63,1H1.77A.76.76,0,0,0,1,1.77v18.1a.77.77,0,0,0,.77.77H5.69v1H1.77A1.77,1.77,0,0,1,0,19.87V1.77A1.77,1.77,0,0,1,1.77,0H22.63A1.77,1.77,0,0,1,24.4,1.77Z"/><path d="M35.23,21.64H32.9v-1h2.33a.77.77,0,0,0,.77-.77V12.19L33,7.71a3.32,3.32,0,0,0-2.76-1.47H24.4v14.4h3.1v1H23.4V5.24h6.86a4.32,4.32,0,0,1,3.59,1.92L37,11.89v8A1.77,1.77,0,0,1,35.23,21.64Z"/><path d="M8.39,24.79A3.65,3.65,0,1,1,12,21.14,3.65,3.65,0,0,1,8.39,24.79Zm0-6.3A2.65,2.65,0,1,0,11,21.14,2.65,2.65,0,0,0,8.39,18.49Z"/><path d="M30.2,24.79a3.65,3.65,0,1,1,3.65-3.65A3.66,3.66,0,0,1,30.2,24.79Zm0-6.3a2.65,2.65,0,1,0,2.65,2.65A2.65,2.65,0,0,0,30.2,18.49Z"/><polygon points="36.5 12.54 29.7 12.54 29.7 8.97 30.7 8.97 30.7 11.54 36.5 11.54 36.5 12.54"/><rect x="19.78" y="17.39" width="1.64" height="1"/><path d="M8.39,21.94a.81.81,0,1,1,.8-.8A.8.8,0,0,1,8.39,21.94Zm0-1a.2.2,0,0,0-.2.2c0,.21.39.21.39,0A.2.2,0,0,0,8.39,20.94Z"/><path d="M30.2,21.94a.81.81,0,1,1,.81-.8A.81.81,0,0,1,30.2,21.94Zm0-1a.19.19,0,0,0-.19.2c0,.21.38.21.38,0A.19.19,0,0,0,30.2,20.94Z"/><rect x="0.5" y="11.54" width="23.4" height="1"/></g></g></svg>