<svg xmlns="http://www.w3.org/2000/svg" viewBox="0 0 40.08 73.8"><title>tool-guide</title><g id="6b3a95c3-7685-41bd-8fdf-dda6be1b1a2a" data-name="圖層 2"><g id="f69cb71c-14c6-4dec-b31d-1dbb1a8b2e3d" data-name="圖層 1"><path d="M34.93,6.68A20.12,20.12,0,0,0,10.25,2.49C3.35,6.32,0,13.15,0,23.37a4.13,4.13,0,0,0,4.32,4.21,4.47,4.47,0,0,0,2.92-1,4.09,4.09,0,0,0,1.39-3.17c0-8,2.55-12.58,8-14.28a11.24,11.24,0,0,1,9.51,1.42,11.5,11.5,0,0,1,5.16,8.41c.57,5.55-1.52,9.78-7,14.12-5.73,4.57-8.51,9.86-8.51,16.15a4.13,4.13,0,0,0,4.31,4.22,4.14,4.14,0,0,0,4.32-4.22c0-4.93,3.07-7.54,6.62-10.57,2.39-2,4.87-4.15,6.49-7.14C41.75,23.76,40.61,13.1,34.93,6.68Z"/><path d="M20.15,62.88a5.46,5.46,0,1,0,5.46,5.46A5.47,5.47,0,0,0,20.15,62.88Z"/></g></g></svg>