<svg xmlns="http://www.w3.org/2000/svg" viewBox="0 0 64 52.07"><title>twitter</title><g id="61661cd4-e748-4fe2-b674-95fdf04dac85" data-name="圖層 2"><g id="b6d07b7c-61ce-46b6-9e90-506846e054cc" data-name="圖層 1"><path d="M0,46.19a26.43,26.43,0,0,0,19.34-5.44,13.21,13.21,0,0,1-8.78-3.68A13,13,0,0,1,7.13,31.6,13,13,0,0,0,13,31.38a13.32,13.32,0,0,1-7.53-4.67,13.13,13.13,0,0,1-2.92-8.4A13.25,13.25,0,0,0,8.44,20a13.16,13.16,0,0,1-5.72-9.39A12.91,12.91,0,0,1,4.4,2.43,37.54,37.54,0,0,0,31.49,16.16c-.07-.42-.14-.79-.19-1.16A13.14,13.14,0,0,1,38.51,1.35,12.71,12.71,0,0,1,44.69,0a13,13,0,0,1,8.24,3.2c.3.26.58.56.88.83a.33.33,0,0,0,.23.07,26.14,26.14,0,0,0,8-3L62.26,1A13.27,13.27,0,0,1,60,5.11a14.11,14.11,0,0,1-3.48,3.1,24.26,24.26,0,0,0,3.78-.73A25.54,25.54,0,0,0,64,6.19l0,0c-.4.54-.79,1.09-1.21,1.63a26.11,26.11,0,0,1-5.19,5,.24.24,0,0,0-.13.25,34.44,34.44,0,0,1-.17,5.28,37.7,37.7,0,0,1-2,8.9,38.74,38.74,0,0,1-5.55,10.33,35.78,35.78,0,0,1-11.57,10,35.54,35.54,0,0,1-9.29,3.47,38.32,38.32,0,0,1-5.42.81,40.39,40.39,0,0,1-6.69,0,37.28,37.28,0,0,1-11.64-3,37.08,37.08,0,0,1-5-2.65Z"/></g></g></svg>