<svg xmlns="http://www.w3.org/2000/svg" viewBox="0 0 45.12 46.96"><title>watch</title><g id="781d52af-b59c-40ee-9cad-bb2085e91816" data-name="圖層 2"><g id="ef16910a-7c96-4fd8-b94c-77ba38e86ba1" data-name="圖層 1"><path d="M20.67,5A15.67,15.67,0,1,0,36.33,20.67,15.69,15.69,0,0,0,20.67,5Zm7.39,18h-5v5a2.5,2.5,0,0,1-5,0V23h-5a2.5,2.5,0,1,1,0-5h5V13a2.5,2.5,0,0,1,5,0v5h5a2.5,2.5,0,0,1,0,5Z" fill="none"/><path d="M44.39,42.7l-8.31-8.31a20.56,20.56,0,1,0-3.75,3.32l8.52,8.52a2.5,2.5,0,1,0,3.54-3.53ZM20.67,36.33A15.67,15.67,0,1,1,36.33,20.67,15.68,15.68,0,0,1,20.67,36.33Z"/><path d="M28.06,18h-5V13a2.5,2.5,0,0,0-5,0v5h-5a2.5,2.5,0,1,0,0,5h5v5a2.5,2.5,0,0,0,5,0V23h5a2.5,2.5,0,0,0,0-5Z"/></g></g></svg>