<svg xmlns="http://www.w3.org/2000/svg" viewBox="0 0 60.67 53.09"><title>wechat</title><g id="c22cc241-2586-4949-900e-291f4036d699" data-name="圖層 2"><g id="a755eee6-6e66-488f-a14d-54e0b848216e" data-name="圖層 1"><path d="M30.34,14.22a2.85,2.85,0,1,1,2.84-2.84,2.85,2.85,0,0,1-2.84,2.84Zm-15.17,0A2.85,2.85,0,1,1,18,11.38a2.85,2.85,0,0,1-2.84,2.84ZM22.75,0C10.19,0,0,8.49,0,19c0,6,3.41,11.39,8.69,14.86l-3,6,8.17-3.5a25.93,25.93,0,0,0,5.52,1.37A15.62,15.62,0,0,1,19,34.13c0-10.46,10.21-19,22.75-19a26.76,26.76,0,0,1,3.38.23C43.09,6.63,33.86,0,22.75,0Z" fill="#0c020b"/><path d="M47.4,33.18a2.85,2.85,0,1,1,2.85-2.84,2.84,2.84,0,0,1-2.85,2.84ZM36,33.18a2.85,2.85,0,1,1,2.84-2.84A2.85,2.85,0,0,1,36,33.18Zm24.64,1c0-8.38-8.49-15.17-19-15.17s-19,6.79-19,15.17,8.49,15.17,19,15.17a22.81,22.81,0,0,0,4.95-.59l10.22,4.38L53.35,46c4.43-2.78,7.32-7.05,7.32-11.9Z" fill="#0c020b"/></g></g></svg>