<svg xmlns="http://www.w3.org/2000/svg" viewBox="0 0 37.16 30.37"><title>right</title><g id="1456795c-cfb5-4129-838d-7c8e6ddcfffb" data-name="圖層 2"><g id="af7d21d1-78b6-4281-ac3a-565b707aaff5" data-name="圖層 1"><g id="90de8b25-d6bb-4a1e-8dad-f1f2a416ca11" data-name="12e7bbf4-f6ef-4bd3-9fc1-6a7e70acf2f9"><g id="39f3be79-fa24-4cde-bb1a-861e098f2248" data-name="ab789428-a45d-43ca-a7c4-7da20f9470e5"><path d="M36.62,16.63a2.2,2.2,0,0,0,.53-1v-.07a2.67,2.67,0,0,0,0-.4,2.67,2.67,0,0,0,0-.4v-.08a2.26,2.26,0,0,0-.53-1L23.48.59a2.07,2.07,0,0,0-2.9,0,2.08,2.08,0,0,0,0,2.89l9.64,9.65H2.05a2,2,0,1,0,0,4.09H30.22l-9.65,9.65a2.05,2.05,0,0,0,2.9,2.9Z"/></g></g></g></g></svg>