<svg xmlns="http://www.w3.org/2000/svg" viewBox="0 0 37.16 30.37"><title>left</title><g id="91a241dd-ea98-439b-b06b-a8e612cdb08e" data-name="圖層 2"><g id="4d9d96de-e84e-4e6e-8d27-bfc653b935f9" data-name="圖層 1"><g id="fcf68dc5-4e12-4da7-a078-83460ef764f4" data-name="12e7bbf4-f6ef-4bd3-9fc1-6a7e70acf2f9"><g id="87682128-c2ef-4e0e-8d8b-67c3f4cc5c28" data-name="ab789428-a45d-43ca-a7c4-7da20f9470e5"><path d="M.54,13.74a2.11,2.11,0,0,0-.53,1v.07a2.67,2.67,0,0,0,0,.4,2.67,2.67,0,0,0,0,.4v.08a2.11,2.11,0,0,0,.53,1L13.68,29.78a2,2,0,1,0,2.9-2.89L6.94,17.24H35.11a2,2,0,1,0,0-4.09H6.94L16.59,3.5A2.05,2.05,0,1,0,13.69.6Z"/></g></g></g></g></svg>