<svg xmlns="http://www.w3.org/2000/svg" viewBox="0 0 144.94 95.53"><title>intersection</title><g id="269b0200-6ed2-4110-9633-8bfd5a0cd433" data-name="圖層 2"><g id="56b6779f-b405-40d8-a398-9072145a5cf4" data-name="圖層 1"><path d="M97.17,0A47.46,47.46,0,0,0,75.75,5.09a51,51,0,0,1,0,85.34A47.76,47.76,0,1,0,97.17,0Z" fill="#b5b5b5"/><path d="M46.12,47.76A51,51,0,0,1,69.18,5.09,47.76,47.76,0,1,0,47.76,95.53a47.43,47.43,0,0,0,21.42-5.1A51,51,0,0,1,46.12,47.76Z" fill="#b5b5b5"/><path d="M79.3,83.59H65.64a48.33,48.33,0,0,0,6.83,5A48.33,48.33,0,0,0,79.3,83.59Z" fill="#b5b5b5"/><path d="M65.64,11.94H79.3a47.57,47.57,0,0,0-6.83-5A47.57,47.57,0,0,0,65.64,11.94Z" fill="#b5b5b5"/><path d="M49.73,53.21c.17,1.45.39,2.89.68,4.3H94.52c.3-1.41.52-2.85.69-4.3Z" fill="#b5b5b5"/><path d="M51.23,60.8c.42,1.47.9,2.9,1.45,4.31H92.25A45.43,45.43,0,0,0,93.7,60.8Z" fill="#b5b5b5"/><path d="M52.68,30.42c-.55,1.4-1,2.84-1.45,4.3H93.7a45.24,45.24,0,0,0-1.45-4.3Z" fill="#b5b5b5"/><path d="M54.1,68.4a45.91,45.91,0,0,0,2.36,4.3h32a48.25,48.25,0,0,0,2.35-4.3Z" fill="#b5b5b5"/><path d="M62.25,15.23a47.32,47.32,0,0,0-3.57,4.3H86.26a49,49,0,0,0-3.57-4.3Z" fill="#b5b5b5"/><path d="M56.46,22.82a46.08,46.08,0,0,0-2.36,4.31H90.83a48.42,48.42,0,0,0-2.35-4.31Z" fill="#b5b5b5"/><path d="M58.68,76a48.73,48.73,0,0,0,3.57,4.3H82.69A50.55,50.55,0,0,0,86.26,76Z" fill="#b5b5b5"/><path d="M49.41,47.76c0,.72,0,1.44.05,2.15h46c0-.71.06-1.43.06-2.15s0-1.43-.06-2.15h-46C49.43,46.33,49.41,47,49.41,47.76Z" fill="#b5b5b5"/><path d="M50.41,38c-.29,1.41-.51,2.84-.68,4.3H95.21c-.17-1.46-.39-2.89-.69-4.3Z" fill="#b5b5b5"/></g></g></svg>