<svg xmlns="http://www.w3.org/2000/svg" viewBox="0 0 287.36 218.2"><title>logo-white</title><g id="e84c8483-31ed-4c97-bd6d-c15aa36fee66" data-name="圖層 2"><g id="f9ba8148-fd9e-41d8-9ee9-459a24c0607f" data-name="圖層 1"><path d="M124.76,181.37a9.88,9.88,0,0,0,.83-1.85,4.38,4.38,0,0,0,.37-1.42c0-.61-.49-1-1.34-1.23a2,2,0,0,0-1.55.33c-.56.34-2.3,1.59-5.24,3.75a58.28,58.28,0,0,0-5.85,4.8,56.79,56.79,0,0,0-4.87,5.74c-1.15,1.55-1.91,2.64-2.29,3.27a3.46,3.46,0,0,0-.56,1.62c0,.52.36.78,1.09.78,1.22,0,3.08-.74,5.59-2.2a38.35,38.35,0,0,0,6.93-5.15h0A33,33,0,0,0,124.76,181.37Z" fill="none"/><path d="M92.07,211.85c-1.27,1.5-1.9,2.73-1.9,3.73a1.38,1.38,0,0,0,.53,1.07,2,2,0,0,0,1.3.44q4.81,0,12-7.88l0,0a59.68,59.68,0,0,0,6.39-8.3A53.23,53.23,0,0,0,98,207,26.57,26.57,0,0,0,92.07,211.85Z" fill="none"/><path d="M206.72,180.59c1.19-1.23,1.78-2.28,1.78-3.15,0-.67-.4-1-1.23-1q-2.91,0-8.14,4.5V181a48.23,48.23,0,0,0-6.85,7,49.19,49.19,0,0,0,9.8-4A19.74,19.74,0,0,0,206.72,180.59Z" fill="none"/><path d="M137,193.54a10,10,0,0,0-4,.74c-1.11.5-1.67,1.09-1.67,1.79,0,1.6,2.4,2.39,7.2,2.39a38.77,38.77,0,0,0,6-.52h0a32.08,32.08,0,0,0,5.58-1.3Q142.16,193.54,137,193.54Z" fill="none"/><path d="M194.18,166.43a39.7,39.7,0,0,0,9.2-7.94c2.14-2.6,3.2-4.84,3.2-6.71a2.17,2.17,0,0,0-.74-1.67,2.51,2.51,0,0,0-1.79-.68q-6.5,0-16.58,12.85a101.91,101.91,0,0,0-7.31,10.33,81.25,81.25,0,0,0,7.94-2.81A42.38,42.38,0,0,0,194.18,166.43Z" fill="none"/><path d="M74.76,170.49a2.78,2.78,0,0,0,2.12.91,4,4,0,0,0,3-1.33A3.89,3.89,0,0,0,81,167.3a3,3,0,0,0-2.88-2.88,3.85,3.85,0,0,0-2.7,1.08h0A4.22,4.22,0,0,0,74,168.32,2.72,2.72,0,0,0,74.76,170.49Z" fill="#fff"/><path d="M286.57,189.05a73,73,0,0,1-8.24,6.41c-2.8,1.86-4.65,2.79-5.57,2.79-.68,0-1-.3-1-.91a1.77,1.77,0,0,1,.32-.86c.21-.32,1-1.28,2.25-2.9l6.78-8a9.8,9.8,0,0,0,2.74-6.36,3.92,3.92,0,0,0-.92-2.76,3.16,3.16,0,0,0-2.49-1,12,12,0,0,0-6.2,2.2,70,70,0,0,0-9.25,7.5l-.11-.11,6.53-8.82h-6.07L260.18,183c-1,.2-1.55-.23-1.55-.68,0-1.15,1.63-3.38,4.92-6.71h-4.47a4.3,4.3,0,0,0-3,1.37A8.22,8.22,0,0,0,254,180.6l-14.46,12.1,12.58-16.44h-6.61l-11,14.39c-2.12,1.83-3.46,3-4,3.39a37.54,37.54,0,0,1-4.37,3,7.28,7.28,0,0,1-2.83,1.21c-.72,0-1.09-.32-1.09-.95s.76-1.84,2.29-3.83l13.27-17.25h-6.42l-4.71,6c-2.53,3.35-4.2,5.49-5,6.4a43.72,43.72,0,0,1-4.1,3.83,41.81,41.81,0,0,1-5.53,4,9.18,9.18,0,0,1-3.92,1.63c-.84,0-1.26-.3-1.26-.91,0-.42.77-1.64,2.32-3.65l13.27-17.36H216l-8.47,11.07c-.45.59-.85,1.17-1.21,1.74a15,15,0,0,1-3.26,3.8l-1,.68a45.3,45.3,0,0,1-5.33,2.94l-.82.35-.29.12a18.75,18.75,0,0,1-6.31,1.47c-1.57,0-2.35-.6-2.35-1.79a5.41,5.41,0,0,1,.79-2.57,51.25,51.25,0,0,1,3.28-4.7,26.91,26.91,0,0,0,5.06-1.55c2.28-.87,4.37-1.79,6.29-2.74a20.93,20.93,0,0,0,5.36-3.77c1.41-1.42,2.12-2.67,2.12-3.75,0-1.35-1-2-3-2a21.15,21.15,0,0,0-7.87,1.75,30.48,30.48,0,0,0-11.1,7.66,24.93,24.93,0,0,0-2.43,3.08,56.8,56.8,0,0,1-5.15,4.1q-6.62,4.69-11.84,4.7a30,30,0,0,1-5.17-.54,35.93,35.93,0,0,1-5.3-1.39l.7-.35a84,84,0,0,0,8.12-4.57,21,21,0,0,0,4.32-4,73,73,0,0,0,4.35-6,67.11,67.11,0,0,0,3.83-6.2,54.28,54.28,0,0,0,15.45-6.32,38.94,38.94,0,0,0,9.44-8c2.38-2.88,3.56-5.47,3.56-7.76a3.09,3.09,0,0,0-1.12-2.41,3.86,3.86,0,0,0-2.67-1q-3.69,0-9,3A47.93,47.93,0,0,0,184.81,159a87.24,87.24,0,0,0-12,14.15h-1.58q-8.74,0-13.78-2.91t-5-7.94a11,11,0,0,1,2.08-6.46,16.08,16.08,0,0,1,5-4.68A27.84,27.84,0,0,1,174,147.56a52.79,52.79,0,0,1,9.63,1.16l.28-.8a33.47,33.47,0,0,0-10.61-1.65A29.18,29.18,0,0,0,163.09,148a21.48,21.48,0,0,0-7.9,4.95,13.16,13.16,0,0,0-4.25,9.45,9.34,9.34,0,0,0,2.63,6.47,15.48,15.48,0,0,0,6.92,4.07,37.93,37.93,0,0,0,11.45,1.44l-.73,1.13q-6.86,10.32-9.77,14a17.59,17.59,0,0,1-5.37,4.86Q147.16,191,141,191a18.77,18.77,0,0,0-7.82,1.51c-2.18,1-3.28,2.2-3.28,3.58q0,3.45,8.67,3.45a44.24,44.24,0,0,0,13.6-2.29,24.22,24.22,0,0,0,5.71,1.64,38.29,38.29,0,0,0,6.83.68q6.33,0,13.17-4.35a52,52,0,0,0,6.14-4.46,10.69,10.69,0,0,0-.77,3.75,4.76,4.76,0,0,0,1.3,3.34,5.67,5.67,0,0,0,4.35,1.69c3.18,0,6.68-1.09,11-3.5.68-.37,1.37-.77,2.08-1.21.87-.53,1.68-1,2.41-1.52a9.41,9.41,0,0,0-.34,2.36,3.78,3.78,0,0,0,1,2.6,3.1,3.1,0,0,0,2.38,1.06q2.1,0,5.51-2.06a42.74,42.74,0,0,0,7.2-5.64A11,11,0,0,0,219,196a3.48,3.48,0,0,0,.86,2.45,3.16,3.16,0,0,0,2.34.89q3.19,0,8.22-3.9l1.4-1.11-3.23,4.24H235l1.23-1.55,18-15a3.92,3.92,0,0,0,3.79,2.07,9.42,9.42,0,0,0,1.51-.14l-11.26,14.65h6.5l3.44-4.57a83.5,83.5,0,0,1,9.63-10q8.25-7.52,12.26-7.52c.61,0,.92.21.92.64a2,2,0,0,1-.45,1.17c-.29.41-1.32,1.66-3.07,3.74l-4.64,5.31a26.74,26.74,0,0,0-3.39,4.65,8.32,8.32,0,0,0-1,3.78,3.46,3.46,0,0,0,1.09,2.51A3.52,3.52,0,0,0,272,199.4q2.67,0,7.94-3.72a74.11,74.11,0,0,0,7.38-5.83Zm-87.44-8v-.07q5.22-4.5,8.14-4.5c.83,0,1.23.33,1.23,1,0,.87-.59,1.92-1.78,3.15a19.74,19.74,0,0,1-4.64,3.42,49.19,49.19,0,0,1-9.8,4A48.23,48.23,0,0,1,199.13,181Zm-11.66-18.73q10.08-12.85,16.58-12.85a2.51,2.51,0,0,1,1.79.68,2.17,2.17,0,0,1,.74,1.67c0,1.87-1.06,4.11-3.2,6.71a39.7,39.7,0,0,1-9.2,7.94,42.38,42.38,0,0,1-6.08,3.37,81.25,81.25,0,0,1-7.94,2.81A101.91,101.91,0,0,1,187.47,162.28Zm-42.92,35.66a38.77,38.77,0,0,1-6,.52c-4.8,0-7.2-.79-7.2-2.39,0-.7.56-1.29,1.67-1.79a10,10,0,0,1,4-.74q5.13,0,13.07,3.1a32.08,32.08,0,0,1-5.58,1.3Z" fill="#fff"/><path d="M122.19,196.09h0c-1,.46-2,.85-2.92,1.18l16-21h-5.87L126.43,180a7.38,7.38,0,0,0,.5-2.22c0-1.45-.91-2.18-2.71-2.18a22.25,22.25,0,0,0-9.74,2.57,31.13,31.13,0,0,0-9,6.61,15.37,15.37,0,0,0-4.19,7.32c-1.51,1.19-3,2.31-4.56,3.33-2.8,1.86-4.65,2.79-5.57,2.79-.68,0-1-.3-1-.91a1.67,1.67,0,0,1,.32-.86c.21-.32,1-1.28,2.25-2.9l6.78-8a9.84,9.84,0,0,0,2.73-6.36,3.91,3.91,0,0,0-.91-2.76,3.19,3.19,0,0,0-2.49-1,12,12,0,0,0-6.2,2.2,70.12,70.12,0,0,0-9.26,7.5l-.1-.11,6.53-8.82H83.68l-10,13c-1.81,1.73-3.49,3.19-4.93,4.39a35.83,35.83,0,0,1-4.37,3.14,9.41,9.41,0,0,1-3.19,1.57c-.65,0-1-.31-1-.91q0-.49,2.36-4l13-17.13H69l-8.11,10.68c-.27.35-.5.68-.73,1,0,0-.58.78-1.27,1.54a67.62,67.62,0,0,1-8,5.87c-2.7,1.66-4.67,2.48-5.88,2.48-.66,0-1-.3-1-.91s.78-2.24,2.34-4.62c.29-.45.67-1,1.12-1.68q3-4.37,10.63-15.09t12.41-17.22l.13-.17,1.15-1.56.2-.27L73,155l.25-.33.82-1.08.28-.37.73-.94.24-.32.67-.84.2-.25.62-.77.13-.16c.71-.86,1.25-1.48,1.63-1.85l-.68-.07c-.2,0-.4,0-.61,0q-4.62,0-13.34,8T42.19,180.13q-7.8,9.72-11.07,13.34c-2.67,3-4.42,4.47-5.27,4.47a.5.5,0,0,1-.56-.43v-.14q0-1.05,16.09-22.65l1.34-1.81q9.81-13.2,12.48-16.62c.47-.59,1-1.21,1.51-1.86l.28-.31c.45-.54.91-1.08,1.41-1.65l.56-.63c.43-.48.86-1,1.32-1.47.24-.26.49-.54.74-.8.51-.55,1-1.09,1.54-1.65a6,6,0,0,0-.74-.13h-.49a13.15,13.15,0,0,0-6.11,1.93q-5.4,3-13.94,11.56-3.69,3.69-20,21.64l-1.6,1.77q-5.31,5.87-6.62,7.22a45.3,45.3,0,0,1-3.65,3.41c-2.27,2-4.19,3-5.76,3a2,2,0,0,1-1.49-.62A2.21,2.21,0,0,1,1.62,196c0-1,.34-1.44,1-1.44a.76.76,0,0,1,.49.14,2.46,2.46,0,0,0,1.33.42,2.81,2.81,0,0,0,.58,0,2.64,2.64,0,0,0,1.44-.79,2.75,2.75,0,0,0,.83-2,2.13,2.13,0,0,0-1.82-2.4,2.49,2.49,0,0,0-.61,0,4.45,4.45,0,0,0-3.68,2A6.23,6.23,0,0,0,0,195.62a3.93,3.93,0,0,0,1,2.81,3.34,3.34,0,0,0,1.87,1,5.12,5.12,0,0,0,.78.06q3.34,0,8.75-5.16,2-1.91,17.07-18.58Q39.64,164.55,43,161.11a89.77,89.77,0,0,1,7.27-6.66q5.88-4.74,10-5.48-1,.92-3.33,3A206.08,206.08,0,0,0,39.6,169c-1.7,1.89-3.34,3.78-4.89,5.67q-11.49,13.91-11.49,21.88a3.24,3.24,0,0,0,.56,2,1.77,1.77,0,0,0,1.44.74q2,0,4.39-2.39a103.55,103.55,0,0,0,8.64-9.73l3.54-4.47q26-32.47,34.68-33.43c-1,1-2.43,2.4-4.39,4.32a284.19,284.19,0,0,0-20,21.35,77.14,77.14,0,0,0-8.26,11.56,18.33,18.33,0,0,0-2.56,8.4,4.7,4.7,0,0,0,1,3A3,3,0,0,0,44.61,199a9.08,9.08,0,0,0,3.83-1A39.9,39.9,0,0,0,54,194.7q2.18-1.5,3.74-2.73a8.7,8.7,0,0,0-.84,3.58,4.66,4.66,0,0,0,.93,2.88,2.77,2.77,0,0,0,2.23,1.19q3.06,0,9.1-4.84l.81-.68-3.43,4.47H73L76.47,194a83.5,83.5,0,0,1,9.63-10q8.25-7.51,12.26-7.52c.61,0,.91.21.91.64a1.92,1.92,0,0,1-.44,1.17c-.29.41-1.32,1.66-3.07,3.74l-4.64,5.31A26,26,0,0,0,87.73,192a8.2,8.2,0,0,0-1,3.78,3.46,3.46,0,0,0,1.09,2.51,3.52,3.52,0,0,0,2.53,1.07c1.78,0,4.42-1.24,7.94-3.72,1-.74,1.95-1.42,2.8-2.07v.19a4.58,4.58,0,0,0,1.13,3.06,3.41,3.41,0,0,0,2.63,1.3q4.56,0,13.4-7.31l-6.5,8.58a74.64,74.64,0,0,0-12.84,5.76q-10.51,6-10.51,10.55a2.21,2.21,0,0,0,.9,1.76,3.23,3.23,0,0,0,2.12.74,17.9,17.9,0,0,0,7-1.83A36.83,36.83,0,0,0,107,211a62.78,62.78,0,0,0,10.79-12,63.5,63.5,0,0,0,7.28-3.16l-.32-1C123.83,195.32,123,195.72,122.19,196.09ZM104,209.25l0,0q-7.19,7.88-12,7.88a2,2,0,0,1-1.3-.44,1.38,1.38,0,0,1-.53-1.07c0-1,.63-2.23,1.9-3.73A26.57,26.57,0,0,1,98,207,53.23,53.23,0,0,1,110.41,201,59.68,59.68,0,0,1,104,209.25Zm13.85-19.44h0a38.35,38.35,0,0,1-6.93,5.15c-2.51,1.46-4.37,2.2-5.59,2.2-.73,0-1.09-.26-1.09-.78a3.46,3.46,0,0,1,.56-1.62c.38-.63,1.14-1.72,2.29-3.27a56.79,56.79,0,0,1,4.87-5.74,58.28,58.28,0,0,1,5.85-4.8c2.94-2.16,4.68-3.41,5.24-3.75a2,2,0,0,1,1.55-.33c.85.21,1.29.62,1.34,1.23a4.38,4.38,0,0,1-.37,1.42,9.88,9.88,0,0,1-.83,1.85A33,33,0,0,1,117.87,189.81Z" fill="#fff"/><path d="M143.65,10.75a34.58,34.58,0,0,1,5.4-5.35A33.8,33.8,0,0,1,143.69,0a33.89,33.89,0,0,1-5.44,5.4A35,35,0,0,1,143.65,10.75Z" fill="#a38e3d"/><path d="M143.69,10.8l0-.05-.05.05Z" fill="#a38e3d"/><path d="M143.29,19.4a1.71,1.71,0,0,0,.32,0h.08a2.65,2.65,0,1,0,.33-5.29h-.41a2.65,2.65,0,0,0-.32,5.29Z" fill="#a38e3d"/><path d="M171.09,15h0a2.65,2.65,0,1,0-2.65-2.65h0A2.64,2.64,0,0,0,171.09,15Z" fill="#a38e3d"/><path d="M116.21,15a2.64,2.64,0,0,0,2.64-2.64v0A2.65,2.65,0,1,0,116.21,15Z" fill="#a38e3d"/><path d="M131.49,126.07h24.32c-3.23-4.59-5.77-11.31-7.6-20.09-.84-4.07-1.42-8.07-1.78-11.54h0c-.09-.88-.69-8.21-.69-8.21V24.39a2.19,2.19,0,0,0-2.05-2.3h-.08a2.2,2.2,0,0,0-2.05,2.3V86.23s-.6,7.33-.69,8.21c-.36,3.47-.94,7.47-1.78,11.54C137.26,114.76,134.72,121.48,131.49,126.07Z" fill="#a38e3d"/><path d="M149.32,81v1.81c.07,2.8.26,9.29.53,11.49.36,3.28.9,7,1.69,10.85,2,9.67,5,16.78,8.61,20.78h14.7c-4.74-1.35-8.74-4-12.74-9.29-2.74-3.63-6.2-14.2-7.8-19.39l-.57-1.87a23.84,23.84,0,0,1-.62-3,65.27,65.27,0,0,1-.56-9.58h.83a1.16,1.16,0,0,1,.79.33,1.33,1.33,0,0,1,.35.59c2.12,6.36,7.75,20.64,17.37,27.24a26.24,26.24,0,0,0,14.1,5h.1c29.66-14.84,13.21-49.66,13.21-49.66.56-.73,3.43-.11,3.56,0,9.94,28.74-2.15,43.62-7.31,48.74a28.63,28.63,0,0,0,7.93-3.25,30.8,30.8,0,0,0,8.81-9.85c3.14-5.56,4-12.4,3.73-18.7a36.37,36.37,0,0,0-1.5-8.28c-.52-1.78-1.17-3.68-1.74-5.31s-1.39-4.63-1-6.63a15.66,15.66,0,0,1,5.93-10.14C208.05,50.79,205.24,56,204.43,59c-.3,1.08-.47.57-.8-.43a53.16,53.16,0,0,0-5-10.73c-10.56,9-10.36,20.12-9.14,24.59a14.78,14.78,0,0,0-8.13-1s.21,4.67.21,5.89.75,5,3.25,10.16a9.37,9.37,0,0,1,.59,1.52c.9,2.2,1.7,7.49-2.94,8a7.14,7.14,0,0,1-6.76-2.73s4-2.17,4.54-4.91a4.48,4.48,0,0,0-1.12-4.16c-2.64,2.13-16.46,4.52-20.52-11.48-4.57-19.2,9.12-26.1,9.12-26.1,2.64-2,7.34-2.54,7.51,1.32a1.51,1.51,0,0,0,.24.65.6.6,0,0,0,.43.23,1.09,1.09,0,0,0,.36,0h.06a11.91,11.91,0,0,0,2.82-1.2.23.23,0,0,1,.26,0c.14.13.18.43-.17.83-1.71,1.86-5,2.23-7,2.28,0,0-3.54.29-4.89,2.77a5.1,5.1,0,0,0-.33,3.66c1.22,5.54,6.78,8,10.55,5.31a.56.56,0,0,0,.19-.09c.18-.16.35-.33.52-.51C184.9,56.06,185.92,41,176.7,39c-15.59-3.33-22.6,16.24-23.34,18.47v-4c0-13.92,9.3-27.6,14.84-34.51a2.05,2.05,0,0,0,0-2.62,1.18,1.18,0,0,0-.3-.29h0a2.05,2.05,0,0,0-2.88.35c-5.88,7.34-15.74,21.91-15.74,37.09v27.3l0,0Z" fill="#a38e3d"/><path d="M75.48,63.05c.38,2-.43,5-1,6.63S73.26,73.21,72.75,75a36.92,36.92,0,0,0-1.5,8.28c-.33,6.3.58,13.14,3.72,18.7a31.2,31.2,0,0,0,8.85,10,29,29,0,0,0,7.92,3.25c-5.15-5.12-17.25-20-7.3-48.74.12-.11,3-.73,3.55,0,0,0-16.44,34.82,13.22,49.66h.06a26.18,26.18,0,0,0,14.1-5c9.63-6.6,15.25-20.88,17.37-27.24a1.85,1.85,0,0,1,.35-.59,1.19,1.19,0,0,1,.79-.33h.83a62.61,62.61,0,0,1-.55,9.58,22.22,22.22,0,0,1-.63,3c-.15.49-.33,1.12-.57,1.87-1.6,5.19-5.06,15.76-7.79,19.39-4,5.3-8,7.94-12.75,9.29h14.7c3.66-4,6.61-11.11,8.61-20.78.79-3.8,1.34-7.57,1.69-10.85.27-2.2.46-8.69.53-11.49V81a.81.81,0,0,0,0-.22l.05,0V53.43c0-15.18-9.86-29.75-15.74-37.09a2,2,0,0,0-2.8-.37l-.08.06a1.7,1.7,0,0,0-.31.29,2.1,2.1,0,0,0,0,2.62c5.55,6.91,14.85,20.59,14.85,34.51v4c-.75-2.23-7.76-21.8-23.34-18.47-9.23,2-8.2,17.11-1.59,23.92.17.18.36.35.53.51a.76.76,0,0,0,.18.09c3.77,2.73,9.34.23,10.56-5.31a5,5,0,0,0-.34-3.66c-1.35-2.48-4.88-2.77-4.88-2.77-2,0-5.3-.42-7-2.28-.36-.4-.31-.7-.18-.83a.25.25,0,0,1,.27,0A11.85,11.85,0,0,0,111,49.8H111a1,1,0,0,0,.35,0,.56.56,0,0,0,.43-.23,1.2,1.2,0,0,0,.24-.65c.17-3.86,4.88-3.27,7.51-1.32,0,0,13.69,6.9,9.13,26.1-4.07,16-17.88,13.61-20.53,11.48A4.51,4.51,0,0,0,107,89.34c.51,2.74,4.54,4.91,4.54,4.91A7.16,7.16,0,0,1,104.8,97c-4.64-.51-3.83-5.8-2.94-8a9.46,9.46,0,0,1,.61-1.52c2.5-5.18,3.25-8.94,3.25-10.16s.19-5.89.19-5.89a14.81,14.81,0,0,0-8.13,1c1.22-4.47,1.44-15.64-9.14-24.59a54.27,54.27,0,0,0-5,10.73c-.34,1-.51,1.51-.81.43C82,56,79.22,50.82,69.55,52.91A15.69,15.69,0,0,1,75.48,63.05Z" fill="#a38e3d"/></g></g></svg>