<svg xmlns="http://www.w3.org/2000/svg" xmlns:xlink="http://www.w3.org/1999/xlink" viewBox="0 0 287.31 218.18"><defs><clipPath id="0eca3947-8e7b-4c27-87c7-2db7e3728796" transform="translate(0 0)"><rect width="287.3" height="218.18" fill="none"/></clipPath></defs><title>logo</title><g id="af4861d5-3625-4eda-8e53-f39d907c4dee" data-name="圖層 2"><g id="a5eca35b-0a29-4c4f-9290-18ac553b19d7" data-name="圖層 1"><g clip-path="url(#0eca3947-8e7b-4c27-87c7-2db7e3728796)"><path d="M75.44,165.5A4.18,4.18,0,0,0,74,168.32a2.69,2.69,0,0,0,.76,2.17,2.78,2.78,0,0,0,2.12.91,4,4,0,0,0,3-1.33A3.94,3.94,0,0,0,81,167.3a3,3,0,0,0-2.88-2.88,3.85,3.85,0,0,0-2.7,1.08" transform="translate(0 0)" fill="#000001"/><path d="M286.57,189.05a73.38,73.38,0,0,1-8.24,6.41q-4.2,2.79-5.57,2.79c-.68,0-1-.3-1-.91a1.61,1.61,0,0,1,.32-.86c.21-.32,1-1.28,2.25-2.9l6.78-8a9.86,9.86,0,0,0,2.74-6.36,4,4,0,0,0-.92-2.76,3.17,3.17,0,0,0-2.49-1,12,12,0,0,0-6.2,2.2,69.51,69.51,0,0,0-9.25,7.5l-.11-.11,6.53-8.82h-6.07L260.18,183c-1,.2-1.55-.23-1.55-.68,0-1.15,1.63-3.38,4.92-6.71h-4.47a4.29,4.29,0,0,0-3,1.37,8.19,8.19,0,0,0-2.07,3.62L239.55,192.7l12.58-16.44h-6.61l-11,14.39q-3.19,2.74-4,3.39a39.38,39.38,0,0,1-4.37,3,7.23,7.23,0,0,1-2.83,1.21c-.72,0-1.09-.32-1.09-.95s.76-1.84,2.29-3.83l13.27-17.25h-6.42l-4.71,6c-2.53,3.35-4.2,5.49-5,6.4a45.4,45.4,0,0,1-4.1,3.83,42.22,42.22,0,0,1-5.53,4,9.29,9.29,0,0,1-3.92,1.63c-.84,0-1.26-.3-1.26-.91,0-.42.77-1.64,2.32-3.65l13.27-17.36H216l-8.47,11.07c-.45.59-.85,1.17-1.21,1.74a15.14,15.14,0,0,1-3.26,3.8l-1,.68a46.61,46.61,0,0,1-5.33,2.94l-.82.35-.29.12a18.87,18.87,0,0,1-6.31,1.47c-1.57,0-2.35-.6-2.35-1.79a5.32,5.32,0,0,1,.79-2.57,50.09,50.09,0,0,1,3.28-4.7,27.64,27.64,0,0,0,5.06-1.55q3.41-1.31,6.29-2.74a21.33,21.33,0,0,0,5.36-3.77c1.41-1.42,2.12-2.67,2.12-3.75,0-1.35-1-2-3-2a21.1,21.1,0,0,0-7.87,1.75,30.39,30.39,0,0,0-11.1,7.66,23.65,23.65,0,0,0-2.43,3.08h0a59.06,59.06,0,0,1-5.15,4.1q-6.62,4.69-11.84,4.7a29.21,29.21,0,0,1-5.17-.54,35.38,35.38,0,0,1-5.3-1.39l.7-.35a84.94,84.94,0,0,0,8.12-4.57,21.32,21.32,0,0,0,4.32-4c1.21-1.47,2.67-3.46,4.35-6a67.32,67.32,0,0,0,3.83-6.2,54.51,54.51,0,0,0,15.45-6.32,38.94,38.94,0,0,0,9.44-8q3.56-4.32,3.56-7.76a3.11,3.11,0,0,0-1.12-2.41,3.87,3.87,0,0,0-2.67-1q-3.69,0-9,3a47.7,47.7,0,0,0-10.17,7.75,86.5,86.5,0,0,0-12,14.15h-1.58q-8.75,0-13.78-2.91t-5.05-7.94a10.93,10.93,0,0,1,2.08-6.46,15.93,15.93,0,0,1,5-4.68A27.78,27.78,0,0,1,174,147.56a52.91,52.91,0,0,1,9.63,1.16l.28-.8a33.58,33.58,0,0,0-10.61-1.65A29.17,29.17,0,0,0,163.09,148a21.37,21.37,0,0,0-7.9,4.95,13.13,13.13,0,0,0-4.25,9.45,9.29,9.29,0,0,0,2.63,6.47,15.47,15.47,0,0,0,6.92,4.07,37.81,37.81,0,0,0,11.45,1.44l-.73,1.13q-6.86,10.32-9.77,14a17.62,17.62,0,0,1-5.37,4.86Q147.15,191,141,191a18.71,18.71,0,0,0-7.82,1.51q-3.28,1.51-3.28,3.58,0,3.45,8.67,3.45a44.13,44.13,0,0,0,13.6-2.29,23.8,23.8,0,0,0,5.71,1.64,38.28,38.28,0,0,0,6.83.68q6.33,0,13.17-4.35a52.94,52.94,0,0,0,6.14-4.46,10.31,10.31,0,0,0-.77,3.75,4.74,4.74,0,0,0,1.3,3.34,5.66,5.66,0,0,0,4.35,1.69c3.18,0,6.68-1.09,11-3.5.68-.37,1.37-.77,2.08-1.21.87-.53,1.68-1,2.41-1.52a9,9,0,0,0-.34,2.36,3.71,3.71,0,0,0,1,2.6,3.1,3.1,0,0,0,2.38,1.06q2.1,0,5.51-2.06a43.31,43.31,0,0,0,7.2-5.64,10.92,10.92,0,0,0-1.16,4.39,3.4,3.4,0,0,0,.86,2.45,3.14,3.14,0,0,0,2.34.89q3.19,0,8.22-3.9l1.4-1.11-3.23,4.24H235l1.23-1.55,17.95-15a3.91,3.91,0,0,0,3.79,2.07,9.22,9.22,0,0,0,1.51-.14l-11.26,14.65h6.5l3.44-4.57a83.41,83.41,0,0,1,9.63-10q8.25-7.52,12.26-7.52c.61,0,.91.21.91.64a2,2,0,0,1-.44,1.17c-.29.41-1.32,1.66-3.07,3.74l-4.64,5.31a26,26,0,0,0-3.39,4.65,8.22,8.22,0,0,0-1,3.78,3.39,3.39,0,0,0,1.09,2.51,3.5,3.5,0,0,0,2.53,1.07q2.67,0,7.94-3.72a75,75,0,0,0,7.38-5.83Zm-87.44-8.11q5.22-4.5,8.14-4.5c.83,0,1.23.33,1.23,1,0,.87-.59,1.92-1.78,3.15a19.81,19.81,0,0,1-4.64,3.42,49.21,49.21,0,0,1-9.8,4,48.11,48.11,0,0,1,6.85-7m-11.66-18.73q10.08-12.86,16.58-12.85a2.52,2.52,0,0,1,1.79.68,2.2,2.2,0,0,1,.74,1.67q0,2.81-3.2,6.71a39.72,39.72,0,0,1-9.2,7.94,42.85,42.85,0,0,1-6.08,3.37,81.78,81.78,0,0,1-7.94,2.81,100.75,100.75,0,0,1,7.31-10.33m-42.92,35.66a39.32,39.32,0,0,1-6,.52c-4.8,0-7.2-.79-7.2-2.39,0-.7.56-1.29,1.67-1.79a9.92,9.92,0,0,1,4-.74q5.13,0,13.07,3.1a32.65,32.65,0,0,1-5.58,1.3" transform="translate(0 0)" fill="#000001"/><path d="M122.15,196.08c-1,.46-2,.85-2.92,1.18l16-21h-5.87L126.43,180a7.9,7.9,0,0,0,.5-2.22c0-1.45-.91-2.18-2.71-2.18a22.32,22.32,0,0,0-9.74,2.57,30.86,30.86,0,0,0-9,6.61,15.24,15.24,0,0,0-4.19,7.32c-1.51,1.19-3,2.31-4.56,3.33-2.8,1.86-4.65,2.79-5.57,2.79-.68,0-1-.3-1-.91a1.58,1.58,0,0,1,.32-.86c.21-.32,1-1.28,2.25-2.9l6.78-8a9.85,9.85,0,0,0,2.73-6.36,3.94,3.94,0,0,0-.91-2.76,3.2,3.2,0,0,0-2.49-1,12,12,0,0,0-6.2,2.2,70.12,70.12,0,0,0-9.26,7.5l-.1-.11,6.53-8.82H83.68l-10,13c-1.81,1.73-3.49,3.19-4.93,4.39a37.23,37.23,0,0,1-4.37,3.14,9.5,9.5,0,0,1-3.19,1.57c-.65,0-1-.31-1-.91q0-.49,2.36-4L75.5,176.26H69l-8.11,10.68c-.27.35-.5.68-.73,1h0s-.58.78-1.27,1.54a69.41,69.41,0,0,1-8,5.87c-2.7,1.66-4.67,2.48-5.88,2.48-.66,0-1-.3-1-.91s.78-2.24,2.34-4.62c.29-.45.67-1,1.12-1.68q3-4.37,10.63-15.09t12.41-17.22l.13-.17,1.15-1.56.2-.27L73,155l.25-.33.82-1.08.28-.37.73-.94.24-.32.67-.84.2-.25.62-.77.13-.16c.71-.86,1.25-1.48,1.63-1.85l-.68-.07h0a4.73,4.73,0,0,0-.61,0q-4.63,0-13.34,8T42.19,180.13q-7.8,9.72-11.07,13.34c-2.67,3-4.42,4.47-5.27,4.47a.5.5,0,0,1-.56-.57q0-1.05,16.09-22.65l1.34-1.81q9.8-13.2,12.48-16.62c.47-.59,1-1.21,1.51-1.86l.28-.31c.45-.54.91-1.08,1.41-1.65l.56-.63c.43-.48.86-1,1.32-1.47.24-.26.49-.54.74-.8.51-.55,1-1.09,1.54-1.65a6.86,6.86,0,0,0-.74-.13l-.26,0h-.23a13.11,13.11,0,0,0-6.11,1.93q-5.41,3-13.94,11.56-3.69,3.69-20,21.64l-1.6,1.77q-5.32,5.87-6.62,7.22a49.45,49.45,0,0,1-3.65,3.41c-2.27,2-4.19,2.95-5.76,2.95a2,2,0,0,1-1.49-.62A2.17,2.17,0,0,1,1.62,196q0-1.44,1-1.44a.81.81,0,0,1,.49.14,2.45,2.45,0,0,0,1.33.42,3.68,3.68,0,0,0,.58,0,2.71,2.71,0,0,0,1.44-.79,2.81,2.81,0,0,0,.83-2,2.13,2.13,0,0,0-2.43-2.39,4.45,4.45,0,0,0-3.68,2A6.14,6.14,0,0,0,0,195.62a3.9,3.9,0,0,0,1,2.81,3.29,3.29,0,0,0,1.87,1,4.93,4.93,0,0,0,.78.06q3.34,0,8.75-5.16,2-1.9,17.07-18.58Q39.63,164.54,43,161.11a88.57,88.57,0,0,1,7.27-6.66q5.87-4.74,10-5.48c-.65.61-1.76,1.61-3.33,3a204.62,204.62,0,0,0-17.34,17c-1.7,1.89-3.34,3.78-4.89,5.67q-11.49,13.9-11.49,21.88h0a3.2,3.2,0,0,0,.56,2,1.76,1.76,0,0,0,1.44.74q1.94,0,4.39-2.39a105.71,105.71,0,0,0,8.64-9.73q1.82-2.31,3.54-4.47,26-32.47,34.68-33.43c-1,1-2.43,2.4-4.39,4.32a283.2,283.2,0,0,0-20,21.35,75.8,75.8,0,0,0-8.26,11.56,18.23,18.23,0,0,0-2.56,8.4,4.67,4.67,0,0,0,1,3A3,3,0,0,0,44.61,199a9.1,9.1,0,0,0,3.83-1A40.6,40.6,0,0,0,54,194.7q2.17-1.5,3.74-2.73a8.47,8.47,0,0,0-.84,3.58,4.56,4.56,0,0,0,.93,2.88,2.76,2.76,0,0,0,2.23,1.19q3.06,0,9.1-4.84l.81-.68-3.43,4.47H73L76.47,194a83.41,83.41,0,0,1,9.63-10q8.25-7.52,12.26-7.52c.61,0,.91.21.91.64a2,2,0,0,1-.44,1.17c-.29.41-1.32,1.66-3.07,3.74l-4.64,5.31A25.61,25.61,0,0,0,87.73,192a8.1,8.1,0,0,0-1,3.78,3.39,3.39,0,0,0,1.09,2.51,3.5,3.5,0,0,0,2.53,1.07c1.78,0,4.42-1.24,7.94-3.72,1-.74,1.95-1.42,2.8-2.07,0,.06,0,.13,0,.19a4.54,4.54,0,0,0,1.13,3.06,3.38,3.38,0,0,0,2.63,1.3q4.55,0,13.4-7.31l-6.5,8.58a74,74,0,0,0-12.84,5.76q-10.52,6-10.51,10.55a2.21,2.21,0,0,0,.9,1.76,3.22,3.22,0,0,0,2.12.74,17.89,17.89,0,0,0,7-1.83,37,37,0,0,0,8.54-5.38,63.16,63.16,0,0,0,10.79-12,64.32,64.32,0,0,0,7.28-3.16l-.32-.95c-.88.44-1.72.84-2.52,1.21M104,209.21q-7.19,7.88-12,7.88a2,2,0,0,1-1.3-.44,1.35,1.35,0,0,1-.53-1.07c0-1,.63-2.23,1.9-3.73A26.42,26.42,0,0,1,98,207a52.9,52.9,0,0,1,12.41-6.05,60,60,0,0,1-6.39,8.3m13.85-19.44a39,39,0,0,1-6.93,5.15c-2.51,1.46-4.37,2.2-5.59,2.2-.73,0-1.09-.26-1.09-.78a3.44,3.44,0,0,1,.56-1.62c.38-.63,1.14-1.72,2.29-3.27a55.37,55.37,0,0,1,4.87-5.74,57.68,57.68,0,0,1,5.85-4.8c2.94-2.16,4.68-3.41,5.24-3.75a2,2,0,0,1,1.55-.33c.85.21,1.29.62,1.34,1.23a4.74,4.74,0,0,1-.37,1.42,10.65,10.65,0,0,1-.83,1.85,33.09,33.09,0,0,1-6.89,8.44" transform="translate(0 0)" fill="#000001"/><path d="M143.6,10.8l0,0,0,0h0l0,0,0,0a34.79,34.79,0,0,1,5.45-5.4A33.94,33.94,0,0,1,143.69,0l0,0,0,0h0l0,0,0,0a34.3,34.3,0,0,1-5.44,5.4,35.16,35.16,0,0,1,5.44,5.4" transform="translate(0 0)" fill="#a38e3d"/><path d="M143.69,14.11h-.08a2.65,2.65,0,1,0,0,5.29h.08a2.65,2.65,0,1,0,0-5.29" transform="translate(0 0)" fill="#a38e3d"/><path d="M171.1,15a2.65,2.65,0,1,0-2.65-2.64A2.64,2.64,0,0,0,171.1,15" transform="translate(0 0)" fill="#a38e3d"/><path d="M116.21,15a2.65,2.65,0,1,1,2.64-2.64A2.65,2.65,0,0,1,116.21,15" transform="translate(0 0)" fill="#a38e3d"/><path d="M146.43,94.44c-.09-.88-.69-8.21-.69-8.21V24.39a2.19,2.19,0,0,0-2.05-2.3h-.08a2.19,2.19,0,0,0-2.05,2.3V86.23s-.6,7.33-.69,8.21c-.36,3.47-.94,7.47-1.78,11.54-1.83,8.78-4.37,15.5-7.6,20.09h24.32c-3.23-4.59-5.77-11.31-7.6-20.09-.84-4.07-1.42-8.07-1.78-11.54" transform="translate(0 0)" fill="#a38e3d"/><path d="M149.27,80.73V53.43c0-15.18,9.86-29.75,15.74-37.09A2.05,2.05,0,0,1,167.9,16a1.64,1.64,0,0,1,.3.29,2.06,2.06,0,0,1,0,2.62c-5.54,6.91-14.84,20.59-14.84,34.51v4c.74-2.23,7.75-21.8,23.34-18.47,9.22,2,8.2,17.11,1.58,23.92h0l0,0c-.17.18-.34.35-.52.51a.66.66,0,0,1-.19.09c-3.77,2.73-9.33.23-10.55-5.31a5.07,5.07,0,0,1,.33-3.66c1.35-2.48,4.89-2.77,4.89-2.77,2-.05,5.29-.42,7-2.28.35-.4.31-.7.17-.83a.24.24,0,0,0-.26-.05,11.86,11.86,0,0,1-2.82,1.2h-.06a1,1,0,0,1-.36,0,.59.59,0,0,1-.43-.23,1.4,1.4,0,0,1-.24-.65c-.17-3.86-4.87-3.27-7.51-1.32,0,0-13.69,6.9-9.12,26.1,4.06,16,17.88,13.61,20.52,11.48a4.51,4.51,0,0,1,1.12,4.16c-.51,2.74-4.54,4.91-4.54,4.91a7.14,7.14,0,0,0,6.76,2.73c4.64-.51,3.84-5.8,2.94-8a9.59,9.59,0,0,0-.59-1.52c-2.5-5.18-3.25-8.94-3.25-10.16s-.21-5.89-.21-5.89a14.78,14.78,0,0,1,8.13,1c-1.22-4.47-1.42-15.64,9.14-24.59a53.81,53.81,0,0,1,5,10.73c.33,1,.5,1.51.8.43.81-2.95,3.62-8.16,13.29-6.07a15.61,15.61,0,0,0-5.93,10.14c-.39,2,.43,5,1,6.63s1.22,3.53,1.74,5.31a37,37,0,0,1,1.5,8.28c.32,6.3-.59,13.14-3.73,18.7a31,31,0,0,1-8.81,9.85,28.77,28.77,0,0,1-7.93,3.25c5.15-5.12,17.25-20,7.31-48.74h0c-.13-.11-3-.73-3.56,0,0,0,16.45,34.82-13.21,49.66H186a26.2,26.2,0,0,1-14.1-5,0,0,0,0,0,0,0c-9.62-6.6-15.25-20.88-17.37-27.24v0h0a1.49,1.49,0,0,0-.35-.59,1.16,1.16,0,0,0-.79-.33h-.83a63.33,63.33,0,0,0,.56,9.58,23,23,0,0,0,.62,3l.57,1.87c1.6,5.19,5.06,15.76,7.8,19.39,4,5.3,8,7.94,12.74,9.29h-14.7c-3.65-4-6.6-11.11-8.61-20.78-.79-3.8-1.33-7.57-1.69-10.85-.27-2.2-.46-8.69-.53-11.49h0v-.4c0-.56,0-.9,0-.9h0V81a1.5,1.5,0,0,1,0-.22" transform="translate(0 0)" fill="#a38e3d"/><path d="M138,80.73V53.43c0-15.18-9.86-29.75-15.74-37.09a2,2,0,0,0-2.88-.31,1.42,1.42,0,0,0-.31.29,2.08,2.08,0,0,0,0,2.62c5.55,6.91,14.85,20.59,14.85,34.51v4c-.75-2.23-7.76-21.8-23.34-18.47-9.23,2-8.2,17.11-1.59,23.92h0l0,0c.17.18.35.35.53.51a.76.76,0,0,0,.18.09c3.77,2.73,9.34.23,10.56-5.31a5.07,5.07,0,0,0-.34-3.66c-1.35-2.48-4.88-2.77-4.88-2.77-2-.05-5.3-.42-7-2.28-.36-.4-.31-.7-.18-.83a.25.25,0,0,1,.27-.05,11.52,11.52,0,0,0,2.82,1.2h.06a.9.9,0,0,0,.35,0,.59.59,0,0,0,.43-.23,1.3,1.3,0,0,0,.24-.65c.17-3.86,4.87-3.27,7.51-1.32,0,0,13.69,6.9,9.13,26.1-4.07,16-17.88,13.61-20.53,11.48a4.49,4.49,0,0,0-1.11,4.16c.51,2.74,4.54,4.91,4.54,4.91a7.17,7.17,0,0,1-6.77,2.73c-4.64-.51-3.83-5.8-2.94-8a9.71,9.71,0,0,1,.6-1.52c2.5-5.18,3.25-8.94,3.25-10.16s.2-5.89.2-5.89a14.78,14.78,0,0,0-8.13,1c1.22-4.47,1.43-15.64-9.14-24.59a53.62,53.62,0,0,0-5,10.73c-.34,1-.51,1.51-.81.43-.81-2.95-3.62-8.16-13.28-6.07a15.7,15.7,0,0,1,5.93,10.14c.38,2-.43,5-1,6.63s-1.22,3.53-1.73,5.31a36.47,36.47,0,0,0-1.5,8.28c-.33,6.3.58,13.14,3.72,18.7A31.17,31.17,0,0,0,83.82,112a28.57,28.57,0,0,0,7.92,3.25c-5.15-5.12-17.25-20-7.3-48.74h0c.12-.11,3-.73,3.55,0,0,0-16.44,34.82,13.22,49.66h.06a26.18,26.18,0,0,0,14.1-5s0,0,0,0c9.63-6.6,15.25-20.88,17.37-27.24,0,0,0,0,0,0h0a1.77,1.77,0,0,1,.35-.59,1.16,1.16,0,0,1,.79-.33h.83a63.64,63.64,0,0,1-.55,9.58,24.35,24.35,0,0,1-.63,3c-.15.49-.33,1.12-.57,1.87-1.6,5.19-5.06,15.76-7.79,19.39-4,5.3-8,7.94-12.75,9.29h14.7c3.66-4,6.61-11.11,8.61-20.78.79-3.8,1.34-7.57,1.69-10.85.27-2.2.46-8.69.53-11.49h0v-.4c0-.56,0-.9,0-.9h0V81a1.5,1.5,0,0,0,0-.22" transform="translate(0 0)" fill="#a38e3d"/></g></g></g></svg>