<svg xmlns="http://www.w3.org/2000/svg" viewBox="0 0 144.94 95.53"><title>union-of</title><g id="dc7bf1b5-5803-4f1d-ac8b-4d9e59925ff6" data-name="圖層 2"><g id="86dee2ae-7e0d-4fe0-8184-86bbad9aa7cf" data-name="圖層 1"><path d="M97.17,0A47.46,47.46,0,0,0,75.75,5.09a51,51,0,0,1,0,85.34A47.76,47.76,0,1,0,97.17,0Z" fill="#b5b5b5"/><path d="M46.12,47.76A51,51,0,0,1,69.18,5.09,47.76,47.76,0,1,0,47.76,95.53a47.43,47.43,0,0,0,21.42-5.1A51,51,0,0,1,46.12,47.76Z" fill="#b5b5b5"/><path d="M72.94,6.69s-24,14-24,41,24,41,24,41a47.09,47.09,0,0,0,23-41A47.09,47.09,0,0,0,72.94,6.69Z" fill="#b5b5b5"/></g></g></svg>