<svg xmlns="http://www.w3.org/2000/svg" viewBox="0 0 144.94 95.53"><title>union-of-selected</title><g id="81a99c75-eda6-4eba-bd5d-05e8dc50c1a5" data-name="圖層 2"><g id="55e79ddf-1e28-49ea-8b92-a6c0f315914b" data-name="圖層 1"><path d="M97.17,0A47.46,47.46,0,0,0,75.75,5.09a51,51,0,0,1,0,85.34A47.76,47.76,0,1,0,97.17,0Z" fill="#a88438"/><path d="M46.12,47.76A51,51,0,0,1,69.18,5.09,47.76,47.76,0,1,0,47.76,95.53a47.43,47.43,0,0,0,21.42-5.1A51,51,0,0,1,46.12,47.76Z" fill="#a88438"/><path d="M72.94,6.69s-24,14-24,41,24,41,24,41a47.09,47.09,0,0,0,23-41A47.09,47.09,0,0,0,72.94,6.69Z" fill="#a88438"/></g></g></svg>