<svg id="圖層_1" data-name="圖層 1" xmlns="http://www.w3.org/2000/svg" viewBox="0 0 342 342"><defs><style>.cls-1{fill:#000001;}.cls-2{fill:#a38e3d;}</style></defs><path class="cls-1" d="M325.7,227.24a79.83,79.83,0,0,1-8.91,6.94q-4.55,3-6,3c-.73,0-1.1-.33-1.1-1a1.71,1.71,0,0,1,.35-.93c.23-.34,1-1.39,2.43-3.14l7.34-8.63a10.6,10.6,0,0,0,3-6.88,4.28,4.28,0,0,0-1-3,3.48,3.48,0,0,0-2.7-1.08,13,13,0,0,0-6.71,2.38,75.08,75.08,0,0,0-10,8.12l-.12-.12,7.08-9.54H302.7l-5.57,7.23c-1.05.23-1.68-.25-1.68-.73q0-1.86,5.33-7.26H296a4.61,4.61,0,0,0-3.27,1.48,8.86,8.86,0,0,0-2.24,3.92l-15.63,13.15,13.61-17.79h-7.14L269.4,229c-2.3,2-3.76,3.2-4.36,3.67a43.77,43.77,0,0,1-4.74,3.29,7.93,7.93,0,0,1-3.06,1.31c-.78,0-1.18-.34-1.18-1s.82-2,2.48-4.14L272.9,213.4H266l-5.1,6.54q-4.1,5.43-5.41,6.92A49,49,0,0,1,251,231a45.36,45.36,0,0,1-6,4.36c-2,1.18-3.38,1.76-4.24,1.76s-1.37-.32-1.37-1q0-.67,2.51-3.95l14.37-18.78h-7l-9.16,12c-.5.64-.92,1.26-1.32,1.88a16.16,16.16,0,0,1-3.52,4.11l-1.13.73a47.74,47.74,0,0,1-5.77,3.19l-.89.38-.31.13a20.33,20.33,0,0,1-6.83,1.59c-1.7,0-2.54-.64-2.54-1.94a5.8,5.8,0,0,1,.85-2.78,55,55,0,0,1,3.56-5.09,29.61,29.61,0,0,0,5.47-1.67q3.69-1.41,6.81-3a23,23,0,0,0,5.8-4.08q2.29-2.31,2.29-4.05c0-1.48-1.07-2.21-3.22-2.21a22.78,22.78,0,0,0-8.52,1.9,33,33,0,0,0-12,8.29,26.39,26.39,0,0,0-2.62,3.33h0a61.28,61.28,0,0,1-5.57,4.44q-7.16,5.08-12.82,5.09a31.58,31.58,0,0,1-5.59-.59,36.47,36.47,0,0,1-5.74-1.5l.76-.38a92.73,92.73,0,0,0,8.78-4.94,23.23,23.23,0,0,0,4.68-4.3q2-2.4,4.72-6.45a75.43,75.43,0,0,0,4.14-6.71,59,59,0,0,0,16.73-6.84,42.11,42.11,0,0,0,10.21-8.67q3.85-4.68,3.86-8.4a3.37,3.37,0,0,0-1.22-2.61,4.2,4.2,0,0,0-2.89-1.08q-4,0-9.79,3.25a52.3,52.3,0,0,0-11,8.38,93.65,93.65,0,0,0-12.92,15.33h-1.71q-9.48,0-14.93-3.16t-5.46-8.59a11.89,11.89,0,0,1,2.25-7,17.17,17.17,0,0,1,5.44-5,29.9,29.9,0,0,1,15.66-4,56.69,56.69,0,0,1,10.42,1.26l.3-.88a36.31,36.31,0,0,0-11.48-1.78,31.48,31.48,0,0,0-11,1.9,23,23,0,0,0-8.55,5.36,14.14,14.14,0,0,0-4.6,10.23,10,10,0,0,0,2.85,7,16.69,16.69,0,0,0,7.49,4.41,40.86,40.86,0,0,0,12.4,1.56l-.8,1.22q-7.43,11.18-10.57,15.11a19.21,19.21,0,0,1-5.82,5.27q-9.66-3.64-16.31-3.65a20.27,20.27,0,0,0-8.46,1.63c-2.37,1.09-3.56,2.39-3.56,3.88q0,3.74,9.39,3.73a48,48,0,0,0,14.72-2.47,26.4,26.4,0,0,0,6.18,1.77,41.16,41.16,0,0,0,7.39.74q6.86,0,14.26-4.72a57.79,57.79,0,0,0,6.65-4.82,11,11,0,0,0-.84,4.06,5.15,5.15,0,0,0,1.41,3.62,6.16,6.16,0,0,0,4.71,1.82c3.44,0,7.23-1.18,11.89-3.78.74-.41,1.49-.84,2.26-1.32.94-.58,1.81-1.13,2.61-1.64a9.72,9.72,0,0,0-.37,2.56,4,4,0,0,0,1,2.81,3.37,3.37,0,0,0,2.57,1.14q2.28,0,6-2.22a46.67,46.67,0,0,0,7.79-6.11,11.86,11.86,0,0,0-1.25,4.76,3.67,3.67,0,0,0,.93,2.64,3.32,3.32,0,0,0,2.53,1q3.45,0,8.9-4.22l1.52-1.2-3.5,4.58h7l1.33-1.67,19.43-16.28a4.23,4.23,0,0,0,4.1,2.25,10.62,10.62,0,0,0,1.63-.15l-12.18,15.85h7l3.72-4.94a90.37,90.37,0,0,1,10.42-10.84q8.93-8.13,13.27-8.13c.66,0,1,.22,1,.68a2.19,2.19,0,0,1-.48,1.27q-.47.67-3.32,4l-5,5.75a27.58,27.58,0,0,0-3.66,5A8.84,8.84,0,0,0,306,234.5a3.7,3.7,0,0,0,1.17,2.72,3.81,3.81,0,0,0,2.74,1.16q2.9,0,8.6-4a82.7,82.7,0,0,0,8-6.31Zm-94.65-8.79q5.67-4.86,8.82-4.86c.89,0,1.33.35,1.33,1.06,0,.94-.64,2.07-1.94,3.41a21.57,21.57,0,0,1-5,3.7,53,53,0,0,1-10.61,4.3,54.11,54.11,0,0,1,7.42-7.61m-12.62-20.26q10.92-13.92,17.95-13.92a2.76,2.76,0,0,1,1.94.74,2.4,2.4,0,0,1,.8,1.81c0,2-1.16,4.45-3.46,7.26a42.83,42.83,0,0,1-10,8.59,46.86,46.86,0,0,1-6.58,3.66q-3,1.29-8.6,3a108,108,0,0,1,7.91-11.18M172,236.78a42.55,42.55,0,0,1-6.47.57q-7.78,0-7.79-2.58c0-.76.6-1.41,1.81-1.94a10.56,10.56,0,0,1,4.35-.8q5.55,0,14.14,3.35a35.81,35.81,0,0,1-6,1.4"/><path class="cls-1" d="M147.72,234.84c-1.12.5-2.18.93-3.16,1.28l17.28-22.72h-6.35l-3.13,4.07a8.3,8.3,0,0,0,.54-2.39c0-1.58-1-2.37-2.93-2.37a24.19,24.19,0,0,0-10.55,2.78,33.41,33.41,0,0,0-9.78,7.16c-2.56,2.74-4.06,5.38-4.54,7.93-1.63,1.28-3.27,2.49-4.94,3.6-3,2-5,3-6,3q-1.11,0-1.11-1a1.71,1.71,0,0,1,.35-.93c.23-.34,1-1.39,2.43-3.14l7.34-8.63a10.6,10.6,0,0,0,3-6.88,4.28,4.28,0,0,0-1-3,3.48,3.48,0,0,0-2.7-1.08,13,13,0,0,0-6.71,2.38,75.08,75.08,0,0,0-10,8.12l-.12-.12,7.07-9.54h-6.57L95.26,227.47c-2,1.87-3.77,3.45-5.33,4.75a40,40,0,0,1-4.73,3.4c-1.82,1.13-3,1.69-3.45,1.69-.7,0-1.06-.33-1.06-1q0-.54,2.55-4.3l14-18.63h-7L81.45,225l-.79,1.09h0s-.62.84-1.37,1.66a75.28,75.28,0,0,1-8.71,6.36q-4.39,2.69-6.37,2.69c-.71,0-1.07-.33-1.07-1s.85-2.42,2.53-5c.32-.48.72-1.08,1.22-1.81q3.23-4.73,11.5-16.34T91.83,194a2.43,2.43,0,0,1,.14-.2c.43-.58.84-1.14,1.25-1.68l.21-.29,1.06-1.42.27-.36c.31-.41.61-.79.89-1.17.1-.13.21-.27.3-.4.28-.35.53-.69.79-1,.09-.11.18-.23.26-.35l.72-.91.22-.27.67-.83.14-.18c.77-.93,1.36-1.6,1.77-2l-.74-.08h0a5.49,5.49,0,0,0-.65,0q-5,0-14.45,8.63t-23.5,26.16q-8.45,10.53-12,14.45-4.34,4.83-5.7,4.83a.54.54,0,0,1-.61-.61q0-1.14,17.42-24.53l1.44-1.95q10.6-14.29,13.51-18c.51-.65,1.06-1.32,1.64-2l.3-.35c.48-.58,1-1.17,1.52-1.78l.61-.68c.47-.52.93-1.05,1.43-1.59l.81-.87,1.66-1.79c-.31-.06-.57-.11-.8-.14a1.23,1.23,0,0,0-.29,0h-.24a14.22,14.22,0,0,0-6.61,2.09q-5.86,3.19-15.1,12.51-4,4-21.6,23.42c-.6.68-1.19,1.32-1.73,1.92q-5.78,6.36-7.17,7.82A53.83,53.83,0,0,1,25.73,234q-3.69,3.19-6.24,3.19a2.12,2.12,0,0,1-1.61-.66,2.38,2.38,0,0,1-.63-1.69q0-1.56,1.11-1.56a.81.81,0,0,1,.52.15,2.77,2.77,0,0,0,1.45.46,3.18,3.18,0,0,0,.62-.06,3,3,0,0,0,1.57-.86,3.05,3.05,0,0,0,.89-2.2,2.3,2.3,0,0,0-2.62-2.59,4.83,4.83,0,0,0-4,2.13,6.65,6.65,0,0,0-1.29,4.07,4.23,4.23,0,0,0,1.08,3,3.59,3.59,0,0,0,2,1.07,4.64,4.64,0,0,0,.85.07q3.6,0,9.46-5.59,2.17-2.06,18.48-20.11Q58.4,200.7,62,197a96.42,96.42,0,0,1,7.87-7.2q6.36-5.13,10.8-5.93-1.07,1-3.61,3.22a223.47,223.47,0,0,0-18.77,18.36c-1.84,2-3.61,4.09-5.29,6.13q-12.45,15.06-12.44,23.69h0a3.39,3.39,0,0,0,.61,2.13,1.87,1.87,0,0,0,1.55.8c1.4,0,3-.86,4.76-2.59a113.35,113.35,0,0,0,9.35-10.53c1.31-1.66,2.59-3.28,3.84-4.84Q88.78,185.09,98.2,184q-1.56,1.56-4.75,4.68a305.94,305.94,0,0,0-21.64,23.12,81,81,0,0,0-8.93,12.51,19.64,19.64,0,0,0-2.78,9.09,5.08,5.08,0,0,0,1.07,3.27A3.25,3.25,0,0,0,63.79,238,9.93,9.93,0,0,0,67.93,237a44.73,44.73,0,0,0,6-3.61c1.58-1.09,2.92-2.08,4-3a9.26,9.26,0,0,0-.91,3.87,4.93,4.93,0,0,0,1,3.12,3,3,0,0,0,2.41,1.29q3.31,0,9.85-5.24l.89-.73-3.72,4.83h7l3.73-4.94a90.37,90.37,0,0,1,10.42-10.84q8.94-8.13,13.27-8.13c.66,0,1,.22,1,.68a2.19,2.19,0,0,1-.48,1.27q-.47.67-3.32,4l-5,5.75a27.24,27.24,0,0,0-3.67,5,8.86,8.86,0,0,0-1.09,4.09,3.71,3.71,0,0,0,1.18,2.72,3.81,3.81,0,0,0,2.74,1.16q2.9,0,8.59-4c1.12-.8,2.12-1.54,3-2.24,0,.07,0,.14,0,.21a4.93,4.93,0,0,0,1.22,3.31A3.65,3.65,0,0,0,129,237q4.92,0,14.5-7.91l-7,9.28a81.44,81.44,0,0,0-13.89,6.25q-11.39,6.51-11.38,11.42a2.39,2.39,0,0,0,1,1.9,3.54,3.54,0,0,0,2.3.8,19.31,19.31,0,0,0,7.54-2,40.27,40.27,0,0,0,9.25-5.82,68.41,68.41,0,0,0,11.68-13,70,70,0,0,0,7.88-3.42l-.35-1c-.95.49-1.86.92-2.73,1.31m-19.6,14.22q-7.77,8.54-13,8.53a2.15,2.15,0,0,1-1.4-.47,1.48,1.48,0,0,1-.57-1.17c0-1.06.68-2.41,2-4a28.43,28.43,0,0,1,6.36-5.29A56.82,56.82,0,0,1,135,240.08a65.08,65.08,0,0,1-6.92,9m15-21a42.22,42.22,0,0,1-7.49,5.57q-4.08,2.39-6.06,2.38c-.79,0-1.18-.28-1.18-.84a3.7,3.7,0,0,1,.61-1.75q.62-1,2.47-3.54a62.84,62.84,0,0,1,5.28-6.22,62.3,62.3,0,0,1,6.34-5.2q4.75-3.49,5.67-4a2.15,2.15,0,0,1,1.67-.36c.92.23,1.4.67,1.45,1.33a5.29,5.29,0,0,1-.4,1.54,11.68,11.68,0,0,1-.9,2,35.66,35.66,0,0,1-7.46,9.14"/><path class="cls-2" d="M174,124.83c-.1-1-.75-8.89-.75-8.89V49A2.37,2.37,0,0,0,171,46.51H171A2.38,2.38,0,0,0,168.73,49v66.94s-.65,7.93-.75,8.89c-.39,3.75-1,8.08-1.92,12.49-2,9.51-4.73,16.78-8.23,21.74h26.33c-3.49-5-6.25-12.23-8.23-21.74-.91-4.41-1.53-8.74-1.92-12.49"/><path class="cls-2" d="M171,34.29l0,0,0,0h0s0,0,0,0l0,0a38,38,0,0,1,5.9-5.85A37.45,37.45,0,0,1,171,22.6l0,0s0,0,0,0h0l0,0,0,0a37,37,0,0,1-5.9,5.84,37.52,37.52,0,0,1,5.9,5.85"/><path class="cls-2" d="M171,37.87H171a2.87,2.87,0,1,0,0,5.73H171a2.87,2.87,0,1,0,0-5.73"/><path class="cls-2" d="M200.71,38.87A2.87,2.87,0,1,0,197.84,36a2.86,2.86,0,0,0,2.87,2.86"/><path class="cls-2" d="M177.08,110V80.43c0-16.42,10.68-32.2,17-40.15a2.22,2.22,0,0,1,3.12-.33,1.72,1.72,0,0,1,.34.32,2.23,2.23,0,0,1,0,2.82c-6,7.49-16.07,22.3-16.07,37.37v4.32c.8-2.41,8.39-23.6,25.26-20,10,2.13,8.88,18.53,1.72,25.89h0l0,0c-.18.19-.37.38-.56.55l-.2.1c-4.08,3-10.1.24-11.43-5.75a5.48,5.48,0,0,1,.37-4c1.46-2.69,5.28-3,5.28-3,2.17,0,5.74-.45,7.55-2.46.38-.44.33-.76.19-.9a.27.27,0,0,0-.29,0,12.63,12.63,0,0,1-3.05,1.3h0l-.06,0a1.12,1.12,0,0,1-.39,0,.65.65,0,0,1-.47-.25,1.5,1.5,0,0,1-.26-.7c-.18-4.18-5.27-3.54-8.12-1.43,0,0-14.83,7.47-9.88,28.25,4.4,17.37,19.35,14.73,22.21,12.43a4.84,4.84,0,0,1,1.21,4.5c-.55,3-4.92,5.31-4.92,5.31a7.75,7.75,0,0,0,7.33,3c5-.55,4.15-6.28,3.18-8.61a9.64,9.64,0,0,0-.64-1.64c-2.71-5.61-3.52-9.67-3.52-11s-.22-6.38-.22-6.38a16,16,0,0,1,8.8,1.1c-1.32-4.84-1.54-16.93,9.89-26.61a58.14,58.14,0,0,1,5.42,11.6c.36,1.08.55,1.64.87.47.88-3.19,3.92-8.83,14.38-6.57a17,17,0,0,0-6.42,11c-.42,2.18.47,5.38,1.1,7.18s1.32,3.81,1.88,5.75a39.59,39.59,0,0,1,1.62,9c.35,6.82-.63,14.22-4,20.24a33.48,33.48,0,0,1-9.54,10.66,30.66,30.66,0,0,1-8.58,3.52c5.57-5.54,18.67-21.63,7.91-52.76h0c-.14-.12-3.23-.79-3.85,0,0,0,17.8,37.69-14.31,53.76h-.06a28.33,28.33,0,0,1-15.27-5.4h0c-10.42-7.15-16.51-22.6-18.8-29.48a0,0,0,0,1,0,0h0a2,2,0,0,0-.38-.65,1.31,1.31,0,0,0-.86-.35h-.89a69,69,0,0,0,.59,10.38,26.73,26.73,0,0,0,.68,3.21c.16.52.36,1.21.62,2,1.73,5.62,5.48,17.07,8.44,21,4.31,5.73,8.64,8.59,13.79,10.05H188.84c-4-4.34-7.15-12-9.32-22.49-.86-4.11-1.45-8.19-1.83-11.74-.29-2.39-.5-9.42-.57-12.44h0V112c0-.62,0-1,0-1h0v-.75c0-.08,0-.15,0-.23"/><path class="cls-2" d="M141.29,38.87A2.87,2.87,0,1,1,144.16,36a2.86,2.86,0,0,1-2.87,2.86"/><path class="cls-2" d="M164.92,110V80.43c0-16.42-10.68-32.2-17-40.15a2.22,2.22,0,0,0-3.12-.33,1.44,1.44,0,0,0-.33.32,2.22,2.22,0,0,0-.05,2.82c6,7.49,16.07,22.3,16.07,37.37v4.32c-.8-2.41-8.39-23.6-25.27-20-10,2.13-8.87,18.53-1.71,25.89h0l0,0c.18.19.37.38.56.55l.2.1c4.08,3,10.1.24,11.43-5.75a5.48,5.48,0,0,0-.37-4c-1.46-2.69-5.28-3-5.28-3-2.17,0-5.74-.45-7.55-2.46-.38-.44-.33-.76-.19-.9a.27.27,0,0,1,.29,0,12.63,12.63,0,0,0,3.05,1.3h0l.07,0a1.07,1.07,0,0,0,.38,0,.65.65,0,0,0,.47-.25,1.39,1.39,0,0,0,.25-.7c.19-4.18,5.28-3.54,8.13-1.43,0,0,14.83,7.47,9.88,28.25-4.39,17.37-19.35,14.73-22.21,12.43a4.84,4.84,0,0,0-1.21,4.5c.55,3,4.91,5.31,4.91,5.31a7.74,7.74,0,0,1-7.32,3c-5-.55-4.15-6.28-3.18-8.61a9.64,9.64,0,0,1,.64-1.64c2.71-5.61,3.52-9.67,3.52-11s.22-6.38.22-6.38a16,16,0,0,0-8.8,1.1c1.32-4.84,1.54-16.93-9.89-26.61a58.14,58.14,0,0,0-5.42,11.6c-.36,1.08-.55,1.64-.87.47-.88-3.19-3.92-8.83-14.38-6.57a17,17,0,0,1,6.42,11c.42,2.18-.47,5.38-1.1,7.18s-1.32,3.81-1.88,5.75a39.59,39.59,0,0,0-1.62,9c-.35,6.82.63,14.22,4,20.24a33.48,33.48,0,0,0,9.54,10.66,30.66,30.66,0,0,0,8.58,3.52c-5.57-5.54-18.67-21.63-7.91-52.76h0c.14-.12,3.23-.79,3.85,0,0,0-17.8,37.69,14.31,53.76h.06a28.33,28.33,0,0,0,15.27-5.4h0c10.42-7.15,16.51-22.6,18.8-29.48a0,0,0,0,0,0,0h0a1.82,1.82,0,0,1,.39-.65,1.26,1.26,0,0,1,.85-.35h.9a70.05,70.05,0,0,1-.6,10.38,26.73,26.73,0,0,1-.68,3.21c-.16.52-.36,1.21-.61,2-1.74,5.62-5.49,17.07-8.45,21-4.31,5.73-8.64,8.59-13.79,10.05h15.91c4-4.34,7.15-12,9.32-22.49.86-4.11,1.45-8.19,1.83-11.74.29-2.39.49-9.42.57-12.44h0V112c0-.62,0-1,0-1h0v-.75a1.79,1.79,0,0,0,0-.23"/><path class="cls-2" d="M150.42,270.7l-.75.88v4c0,6.78.15,10.88.15,11.87h-2.27V285.6h-5.2v2.26h-2.21c0-1.12.12-3.68.12-10.67,0-4.05,0-6.13-.18-8.25a18.56,18.56,0,0,1,2.51,1.3h4.66l1.27-1.11Zm-2.87.3h-5.2v6.25h5.2Zm-5.2,13.84h5.2V278h-5.2Zm3.87,9.86c2.72-1.21,4.63-4.33,5.65-7.23.95-2.69,1.39-5.92,1.39-12.42a68.45,68.45,0,0,0-.21-6.95,15.13,15.13,0,0,1,2.66,1.36h6.62l1.33-1.15,2,1.72-.82.82v5.23c0,13.78.12,14.78.12,16.14a2.22,2.22,0,0,1-1.09,2.21,3.45,3.45,0,0,1-1.69.45c-.45,0-.54-.09-.6-.52-.16-.93.28-1.46-3.3-1.78v-.39c2,.12,3,.15,3.84.15.39,0,.54-.15.54-.57V284h-7.7a18.65,18.65,0,0,1-1.24,4.08,12.76,12.76,0,0,1-7.13,7Zm9.22-17.57a51.7,51.7,0,0,1-.39,6.08h7.58v-6.08Zm7.19-6.92h-7.16v6.17h7.16Z"/><path class="cls-2" d="M175.33,292.64a23.93,23.93,0,0,0,1.8-6,7.7,7.7,0,0,0,0-2.58l2.78,1.12c0,.27-.24.39-.93.57-.22,2.75-2.37,5.79-3.36,7.08Zm5,2.24c0-.55.18-2.93.18-6.68v-6.68c-.88.18-1.91.39-3.21.63-.24.7-.36.91-.66.91l-.91-2.84a12.16,12.16,0,0,0,1.85.06c.33,0,.66,0,1,0a40.48,40.48,0,0,0,3.69-6.68,9.37,9.37,0,0,0,.73-2.12l2.75,1.6c0,.28-.09.43-1.06.46a36.28,36.28,0,0,1-5.26,6.74c1.57-.06,3.14-.12,4.72-.27a2.85,2.85,0,0,0-1.06-2.27l.24-.21c2,1.18,3,2.6,3,3.81,0,.75-.45,1.3-1,1.3s-1-.37-1-1.45c0-.33,0-.58,0-.58-.64.18-1.27.36-1.91.52V287c0,3.36.09,6.95.09,7.89Zm-4-22.85a11.88,11.88,0,0,1,2,1,19.83,19.83,0,0,0,1.36-3.62,11.78,11.78,0,0,0,.43-2.09l3,1.42c0,.31-.27.48-1.18.58a17.86,17.86,0,0,1-3.06,4.08,3,3,0,0,1,1.37,2.2c0,.76-.42,1.39-1,1.39s-1-.32-1.12-1.3c-.22-1.38-.12-2.33-2.06-3.38Zm26,5.4a3.14,3.14,0,0,1-1-.38,20.8,20.8,0,0,1-3.42-2.67,18.42,18.42,0,0,1-3.38-4.95,20.7,20.7,0,0,1-9,8.76l-.25-.36a24.49,24.49,0,0,0,6.26-7.44,12,12,0,0,0,1.24-3.05l3,1.3c0,.21-.12.36-.72.49a13.21,13.21,0,0,0,3.54,3.53,17.17,17.17,0,0,0,5.39,2.56Zm-4.64,15.19c.94.08,1.39.11,1.72.11s.46-.11.46-.45v-5.86h-2.58v.24c0,4.44.1,6.37.1,7.22h-1.94c0-.55.09-2.84.09-6.53v-.93h-2.42v.24c0,4.65.06,6.37.06,7.22h-1.93c0-.55.06-2.9.06-6.53v-.93H189c0,4.5,0,7.16,0,8.46h-2c0-1.57.12-5,.12-10.76,0-2.06,0-3.42-.12-4.9a19.37,19.37,0,0,1,2.23,1.12h10.43l1.12-1.09,1.79,1.6-.76.79v2.84c0,7,.09,7.65.09,8.38a1.87,1.87,0,0,1-.75,1.63,2.2,2.2,0,0,1-1.37.51c-.24,0-.33-.15-.39-.45-.06-1,.18-1.36-1.63-1.54Zm-8.77-7h2.39V281.1H189Zm10.34-8.53c0,.22-.09.31-.39.31h-9.27v-.76h6.3s1.15-1.36,1.34-1.36Zm-6.14,8.53h2.42V281.1h-2.42Zm4.17,0h2.58V281.1h-2.58Z"/><path class="cls-2" d="M183.52,283.91c1.69,1.54,2.48,2.93,2.48,4.29,0,1-.42,1.6-1,1.6s-1.24-.33-.89-1.74a4.07,4.07,0,0,0-.9-3.92Z"/><path class="cls-2" d="M119.26,313.23a4.78,4.78,0,0,0-1-.73c-.38-.19-.77-.37-1.17-.53l-1.17-.45a6.32,6.32,0,0,1-1-.49,2.63,2.63,0,0,1-.71-.65,1.49,1.49,0,0,1-.27-.91,1.68,1.68,0,0,1,.19-.84,1.8,1.8,0,0,1,.49-.6,2.41,2.41,0,0,1,.72-.35,2.91,2.91,0,0,1,.83-.11c1.52,0,2.48.93,2.87,2.78v0h.55l-.1-2.71,0,0a8.22,8.22,0,0,0-1.52-.52,5.55,5.55,0,0,0-3,0,3.82,3.82,0,0,0-1.23.65,3.24,3.24,0,0,0-.84,1.06,3.11,3.11,0,0,0-.32,1.43A2.82,2.82,0,0,0,113,312a4.08,4.08,0,0,0,1.22,1.07,9.37,9.37,0,0,0,1.57.71,14.72,14.72,0,0,1,1.55.64,4.13,4.13,0,0,1,1.19.83,1.73,1.73,0,0,1,.46,1.25,2.12,2.12,0,0,1-.23,1,2.2,2.2,0,0,1-.61.71,2.51,2.51,0,0,1-.87.42,4.07,4.07,0,0,1-1,.13,3,3,0,0,1-1.32-.29,3.51,3.51,0,0,1-1-.78,4.08,4.08,0,0,1-.72-1.14,4.21,4.21,0,0,1-.31-1.35v-.06h-.57l.12,3.44v0l0,0a8.22,8.22,0,0,0,1.82.6,10.29,10.29,0,0,0,1.79.15,5.1,5.1,0,0,0,1.54-.24,4.66,4.66,0,0,0,1.36-.72,3.6,3.6,0,0,0,1-1.16,3.21,3.21,0,0,0,.37-1.56,3.24,3.24,0,0,0-1-2.49"/><polygon class="cls-2" points="128.1 310.9 124.85 310.9 124.85 311.43 126.28 311.43 126.28 318.68 124.85 318.68 124.85 319.2 129.53 319.2 129.53 318.68 128.1 318.68 128.1 310.9"/><path class="cls-2" d="M127.19,309.4a1,1,0,0,0,.74-.31,1,1,0,0,0,.32-.74,1.06,1.06,0,0,0-2.12,0,1,1,0,0,0,.32.74,1,1,0,0,0,.74.31"/><path class="cls-2" d="M143,313.11a2.39,2.39,0,0,0-.62-1.84,2.74,2.74,0,0,0-1.89-.57,3.32,3.32,0,0,0-1.79.47,2.81,2.81,0,0,0-1.07,1.19V310.9h-3.25v.52h1.44v7.26h-1.44v.52h4.57v-.52h-1.32v-4.3a4.13,4.13,0,0,1,.15-1.11,2.85,2.85,0,0,1,.43-.95,2.27,2.27,0,0,1,.71-.67,2,2,0,0,1,1-.24,1.3,1.3,0,0,1,.67.15,1.07,1.07,0,0,1,.39.4,1.73,1.73,0,0,1,.18.57,4.83,4.83,0,0,1,0,.67v5.48h-1.32v.52h4.45v-.52H143Z"/><path class="cls-2" d="M156.09,316.4a5,5,0,0,1-.43,1,3.09,3.09,0,0,1-.57.75,2.44,2.44,0,0,1-.75.47,2.68,2.68,0,0,1-1,.17,2.09,2.09,0,0,1-1.35-.39,2.35,2.35,0,0,1-.71-1,4.12,4.12,0,0,1-.3-1.22c0-.43-.06-.82-.06-1.15a10.39,10.39,0,0,1,.1-1.52,3.93,3.93,0,0,1,.34-1.21,2,2,0,0,1,.63-.8,1.59,1.59,0,0,1,1-.29,1.66,1.66,0,0,1,1.16.36,1.35,1.35,0,0,1,.39,1,1.85,1.85,0,0,1,0,.23,2.23,2.23,0,0,0,0,.3,1.07,1.07,0,0,0,.19.63.76.76,0,0,0,.68.3,1,1,0,0,0,.67-.22,1,1,0,0,0,.27-.76,1.78,1.78,0,0,0-.3-1,2.83,2.83,0,0,0-.78-.76,3.78,3.78,0,0,0-1.08-.48,4.37,4.37,0,0,0-1.18-.17,4,4,0,0,0-1.64.34,3.87,3.87,0,0,0-1.28.93,4.53,4.53,0,0,0-.84,1.39,4.77,4.77,0,0,0-.3,1.69,5.05,5.05,0,0,0,.27,1.65,4.31,4.31,0,0,0,.78,1.39,3.76,3.76,0,0,0,1.23,1,3.82,3.82,0,0,0,1.66.35,5.19,5.19,0,0,0,1.12-.12,3.16,3.16,0,0,0,1-.45,3.74,3.74,0,0,0,.86-.87,5.3,5.3,0,0,0,.7-1.39l0-.05-.47-.17Z"/><path class="cls-2" d="M168.13,311.77A3.42,3.42,0,0,0,167,311a4.05,4.05,0,0,0-3.15.08,3.73,3.73,0,0,0-1.23,1,4.26,4.26,0,0,0-.78,1.38,5.05,5.05,0,0,0-.27,1.65,5.69,5.69,0,0,0,.24,1.68,3.87,3.87,0,0,0,.72,1.38,3.52,3.52,0,0,0,1.2.95,3.83,3.83,0,0,0,1.67.34,6.13,6.13,0,0,0,1.26-.12,3.34,3.34,0,0,0,1-.42,3,3,0,0,0,.81-.78,4.94,4.94,0,0,0,.63-1.24l0,0-.47-.17,0,.05a5.42,5.42,0,0,1-.4.84,2.69,2.69,0,0,1-.54.66,2.79,2.79,0,0,1-.75.44,2.68,2.68,0,0,1-1,.17,2.3,2.3,0,0,1-1.27-.32,1.94,1.94,0,0,1-.72-.85,4.27,4.27,0,0,1-.35-1.31c0-.5-.08-1.05-.08-1.63v-.08h5.58v-.06a4.54,4.54,0,0,0-.26-1.55,3.54,3.54,0,0,0-.75-1.21m-2.82-.54a1.59,1.59,0,0,1,1,.26,1.71,1.71,0,0,1,.52.67,3,3,0,0,1,.2.9c0,.32,0,.62,0,.9h-3.47c0-.24,0-.51.08-.81a4.09,4.09,0,0,1,.28-.92,2.27,2.27,0,0,1,.54-.71,1.22,1.22,0,0,1,.85-.29"/><path class="cls-2" d="M188.08,307.14h-.9l0,0a7.09,7.09,0,0,1-.63,1.1,9.43,9.43,0,0,1-.82,1,12.54,12.54,0,0,1-1,.83c-.33.25-.67.5-1,.73l-.05,0,.39.43,0,0c.35-.25.72-.51,1.07-.78a6.37,6.37,0,0,0,.88-.83v9.05h-1.83v.52h5.66v-.52h-1.82Z"/><path class="cls-2" d="M202.12,308.87a3.29,3.29,0,0,0-1.24-1.16,3.91,3.91,0,0,0-1.89-.42,3.32,3.32,0,0,0-2.94,1.49,4.22,4.22,0,0,0-.58,1.38,6.31,6.31,0,0,0-.17,1.36,6.69,6.69,0,0,0,.17,1.5,4.18,4.18,0,0,0,.54,1.28,2.89,2.89,0,0,0,1,.9,3,3,0,0,0,1.5.34,2.89,2.89,0,0,0,1.46-.35,3.51,3.51,0,0,0,1-.91,12.48,12.48,0,0,1-.1,1.25,6.11,6.11,0,0,1-.37,1.53,3.66,3.66,0,0,1-.76,1.22,1.68,1.68,0,0,1-1.26.5c-.44,0-.73-.11-.84-.31a2.32,2.32,0,0,1-.24-1,2.1,2.1,0,0,0-.22-.88.8.8,0,0,0-.77-.36.74.74,0,0,0-.62.27,1,1,0,0,0-.2.61,2.09,2.09,0,0,0,.24,1,2.17,2.17,0,0,0,.64.71,3.09,3.09,0,0,0,.92.42,4.05,4.05,0,0,0,1.06.13,3.8,3.8,0,0,0,2.22-.61,4.36,4.36,0,0,0,1.39-1.56,6.9,6.9,0,0,0,.73-2.09,12.39,12.39,0,0,0,0-4.49,5.5,5.5,0,0,0-.67-1.78m-3.06,5.86a1.33,1.33,0,0,1-1-.35,2.19,2.19,0,0,1-.53-.88,4.61,4.61,0,0,1-.21-1.14c0-.41,0-.79,0-1.12a5.91,5.91,0,0,1,.41-2.55,1.38,1.38,0,0,1,1.34-.77,1.42,1.42,0,0,1,1,.34,2.26,2.26,0,0,1,.58.9,5.07,5.07,0,0,1,.28,1.22c0,.44.06.87.06,1.28a6.05,6.05,0,0,1-.14,1.44,2.72,2.72,0,0,1-.38.95,1.42,1.42,0,0,1-.6.52,2,2,0,0,1-.79.16"/><path class="cls-2" d="M214,312.45a3.17,3.17,0,0,0,1.34-.88,2.45,2.45,0,0,0,.54-1.62,2.3,2.3,0,0,0-.3-1.16,2.81,2.81,0,0,0-.78-.83,3.56,3.56,0,0,0-1.06-.5,4.31,4.31,0,0,0-2.57.05,3.76,3.76,0,0,0-1.18.65,3.09,3.09,0,0,0-1.13,2.46,2.27,2.27,0,0,0,.54,1.5,3.44,3.44,0,0,0,1.18.9,4.23,4.23,0,0,0-.82.42,3.62,3.62,0,0,0-.76.7,3.37,3.37,0,0,0-.51.88,3.05,3.05,0,0,0-.19,1.05,3,3,0,0,0,.33,1.43,3.28,3.28,0,0,0,.93,1.12,3.4,3.4,0,0,0,1.33.62,6.8,6.8,0,0,0,1.46.16,4.61,4.61,0,0,0,1.54-.25,4,4,0,0,0,1.27-.72,3.4,3.4,0,0,0,.88-1.16,3.67,3.67,0,0,0,.32-1.55,3.27,3.27,0,0,0-.67-2.07,3.79,3.79,0,0,0-1.69-1.2m-1.53,6.33a2.71,2.71,0,0,1-2.07-.74,2.68,2.68,0,0,1-.68-1.88,4.24,4.24,0,0,1,.3-1.66,2.41,2.41,0,0,1,1.16-1.16l1.25.5a6.25,6.25,0,0,1,1.2.65,3.35,3.35,0,0,1,.88.88,2.14,2.14,0,0,1,.34,1.2,2.15,2.15,0,0,1-.72,1.61,2.3,2.3,0,0,1-.76.44,2.7,2.7,0,0,1-.9.16m.06-10.86a1.88,1.88,0,0,1,2,2,2.94,2.94,0,0,1-.27,1.31,2.18,2.18,0,0,1-.92.91c-.28-.13-.6-.26-.95-.39a5.59,5.59,0,0,1-1-.46,2.9,2.9,0,0,1-.77-.66,1.52,1.52,0,0,1-.3-1,1.54,1.54,0,0,1,.18-.77,1.62,1.62,0,0,1,.49-.55,2.22,2.22,0,0,1,.69-.34,2.71,2.71,0,0,1,.8-.11"/><path class="cls-2" d="M222.85,307.49,221.48,311V311l.49.23.8-1.92h5.18a35.31,35.31,0,0,0-2.74,4.62,20.63,20.63,0,0,0-1.75,5.21v.06h2.2v-.05a22.45,22.45,0,0,1,.4-3.23,18,18,0,0,1,2.11-5.62,27.7,27.7,0,0,1,1.8-2.72l.06-.09Z"/><path class="cls-1" d="M97.38,201.3a4.52,4.52,0,0,0-1.51,3,2.93,2.93,0,0,0,.81,2.36,3,3,0,0,0,2.3,1,4.35,4.35,0,0,0,3.19-1.44,4.29,4.29,0,0,0,1.26-3,3.27,3.27,0,0,0-3.12-3.11,4.17,4.17,0,0,0-2.93,1.17"/><path class="cls-1" d="M325.7,226.76a78.93,78.93,0,0,1-8.91,6.94q-4.53,3-6,3c-.73,0-1.1-.33-1.1-1a1.64,1.64,0,0,1,.35-.93c.22-.34,1-1.39,2.42-3.14l7.34-8.62a10.63,10.63,0,0,0,3-6.87,4.24,4.24,0,0,0-1-3,3.44,3.44,0,0,0-2.7-1.09,13,13,0,0,0-6.7,2.38,75.53,75.53,0,0,0-10,8.11l-.11-.12,7.06-9.53h-6.57l-5.56,7.23c-1.05.22-1.67-.26-1.67-.74q0-1.86,5.32-7.25H296a4.58,4.58,0,0,0-3.26,1.48,8.8,8.8,0,0,0-2.25,3.91l-15.61,13.14,13.6-17.77h-7.14L269.46,228.5c-2.3,2-3.76,3.2-4.36,3.66a42.16,42.16,0,0,1-4.73,3.28,7.82,7.82,0,0,1-3.06,1.31c-.78,0-1.18-.34-1.18-1s.82-2,2.47-4.14L273,212.94H266l-5.09,6.53q-4.11,5.43-5.41,6.91a47.68,47.68,0,0,1-4.43,4.14,44.29,44.29,0,0,1-6,4.35q-3,1.77-4.24,1.77c-.91,0-1.37-.33-1.37-1q0-.68,2.51-4l14.36-18.76h-7l-9.16,12c-.49.65-.92,1.27-1.31,1.89a16.3,16.3,0,0,1-3.52,4.1l-1.12.74a49.79,49.79,0,0,1-5.77,3.18l-.89.38-.31.13a20.28,20.28,0,0,1-6.82,1.59c-1.7,0-2.55-.65-2.55-1.94a5.76,5.76,0,0,1,.86-2.77,54.28,54.28,0,0,1,3.55-5.09,30.43,30.43,0,0,0,5.47-1.67c2.46-.94,4.72-1.93,6.8-3a22.72,22.72,0,0,0,5.79-4.08q2.3-2.29,2.3-4c0-1.47-1.08-2.2-3.23-2.2A22.78,22.78,0,0,0,231,214a32.9,32.9,0,0,0-12,8.28,26.39,26.39,0,0,0-2.62,3.33h0a61.27,61.27,0,0,1-5.57,4.43q-7.14,5.09-12.8,5.09a31.58,31.58,0,0,1-5.59-.59,36.63,36.63,0,0,1-5.73-1.5l.76-.38a92.22,92.22,0,0,0,8.77-4.94,23.1,23.1,0,0,0,4.67-4.29c1.32-1.6,2.89-3.74,4.72-6.44a77,77,0,0,0,4.14-6.7,59,59,0,0,0,16.71-6.84,42.25,42.25,0,0,0,10.2-8.66q3.86-4.68,3.85-8.4a3.36,3.36,0,0,0-1.21-2.6,4.2,4.2,0,0,0-2.89-1.08q-4,0-9.78,3.25a51.61,51.61,0,0,0-11,8.37,93.59,93.59,0,0,0-12.91,15.31H201q-9.47,0-14.91-3.15t-5.45-8.59a11.94,11.94,0,0,1,2.24-7,17.25,17.25,0,0,1,5.43-5.05,30,30,0,0,1,15.65-4,56.6,56.6,0,0,1,10.41,1.26l.3-.88a36.21,36.21,0,0,0-11.47-1.78,31.37,31.37,0,0,0-11,1.9,23.07,23.07,0,0,0-8.55,5.35A14.18,14.18,0,0,0,179,198a10,10,0,0,0,2.84,7,16.93,16.93,0,0,0,7.49,4.41,40.8,40.8,0,0,0,12.38,1.55l-.8,1.22q-7.41,11.16-10.56,15.1a19.15,19.15,0,0,1-5.81,5.26q-9.65-3.65-16.29-3.65a20.11,20.11,0,0,0-8.46,1.64c-2.36,1.09-3.55,2.38-3.55,3.87,0,2.49,3.13,3.72,9.38,3.72a47.79,47.79,0,0,0,14.7-2.47,25.6,25.6,0,0,0,6.18,1.77,40.24,40.24,0,0,0,7.38.74q6.86,0,14.25-4.71a59.77,59.77,0,0,0,6.64-4.81,10.92,10.92,0,0,0-.84,4.05,5.13,5.13,0,0,0,1.41,3.61,6.13,6.13,0,0,0,4.71,1.82c3.43,0,7.22-1.17,11.88-3.78.73-.4,1.48-.83,2.25-1.31.94-.57,1.81-1.12,2.61-1.64a9.72,9.72,0,0,0-.37,2.56,4,4,0,0,0,1,2.81,3.35,3.35,0,0,0,2.57,1.14q2.27,0,6-2.23a47.28,47.28,0,0,0,7.79-6.09,11.65,11.65,0,0,0-1.26,4.75,3.67,3.67,0,0,0,.93,2.64,3.35,3.35,0,0,0,2.53,1q3.45,0,8.89-4.21l1.51-1.2-3.49,4.58h6.95l1.33-1.67,19.41-16.26a4.26,4.26,0,0,0,4.11,2.24,10.61,10.61,0,0,0,1.62-.15l-12.17,15.84h7l3.72-4.94a91,91,0,0,1,10.41-10.83q8.93-8.11,13.26-8.12c.66,0,1,.22,1,.68a2.19,2.19,0,0,1-.48,1.27c-.31.45-1.42,1.79-3.32,4l-5,5.73a27.94,27.94,0,0,0-3.66,5A8.77,8.77,0,0,0,306,234a3.72,3.72,0,0,0,1.17,2.72,3.8,3.8,0,0,0,2.74,1.15q2.88,0,8.58-4a79.93,79.93,0,0,0,8-6.31ZM231.14,218c3.78-3.24,6.71-4.86,8.82-4.86.88,0,1.32.35,1.32,1.06,0,.94-.64,2.07-1.93,3.4a21.16,21.16,0,0,1-5,3.7,53.13,53.13,0,0,1-10.6,4.3,52.79,52.79,0,0,1,7.4-7.6m-12.6-20.25q10.91-13.89,17.93-13.9a2.78,2.78,0,0,1,1.94.74,2.38,2.38,0,0,1,.79,1.8q0,3-3.45,7.26a43.21,43.21,0,0,1-9.95,8.59,45.47,45.47,0,0,1-6.58,3.64,87.73,87.73,0,0,1-8.58,3,106.18,106.18,0,0,1,7.9-11.17M172.12,236.3a42.33,42.33,0,0,1-6.46.57q-7.78,0-7.78-2.58c0-.76.6-1.41,1.8-1.94a10.73,10.73,0,0,1,4.35-.8c3.7,0,8.4,1.12,14.13,3.34a35,35,0,0,1-6,1.41"/><path class="cls-1" d="M147.9,234.36c-1.12.5-2.18.93-3.16,1.28L162,212.94h-6.34L152.54,217a8.68,8.68,0,0,0,.53-2.4c0-1.57-1-2.36-2.93-2.36A24.08,24.08,0,0,0,139.61,215a33.38,33.38,0,0,0-9.78,7.15c-2.55,2.74-4.05,5.38-4.53,7.92q-2.44,1.93-4.93,3.6c-3,2-5,3-6,3-.74,0-1.1-.33-1.1-1a1.69,1.69,0,0,1,.34-.93c.23-.34,1-1.39,2.43-3.13l7.33-8.63a10.58,10.58,0,0,0,3-6.87,4.23,4.23,0,0,0-1-3,3.45,3.45,0,0,0-2.7-1.09,13,13,0,0,0-6.71,2.38,74.93,74.93,0,0,0-10,8.11l-.12-.12,7.06-9.53H106.3L95.49,227c-1.94,1.87-3.77,3.45-5.32,4.75a40.85,40.85,0,0,1-4.73,3.4A10.29,10.29,0,0,1,82,236.83c-.71,0-1.07-.33-1.07-1,0-.35.86-1.78,2.55-4.29l14-18.61h-7l-8.78,11.55c-.28.38-.53.73-.78,1.09v0s-.63.85-1.37,1.67a76,76,0,0,1-8.71,6.35q-4.38,2.68-6.36,2.68c-.71,0-1.06-.33-1.06-1s.84-2.42,2.52-5c.32-.48.72-1.09,1.22-1.81q3.21-4.72,11.49-16.33t13.42-18.62l.14-.19,1.25-1.68.21-.29L94.72,190l.27-.36c.31-.41.6-.8.89-1.17l.3-.4.78-1,.27-.35.72-.91.21-.27.68-.84a2.09,2.09,0,0,1,.14-.17,23.84,23.84,0,0,1,1.76-2l-.74-.09h0c-.31,0-.43,0-.65,0q-5,0-14.43,8.62T61.43,217.12q-8.43,10.51-12,14.43c-2.88,3.22-4.78,4.82-5.69,4.82a.53.53,0,0,1-.61-.6q0-1.14,17.4-24.5c.49-.67,1-1.32,1.45-2q10.59-14.3,13.49-18c.51-.64,1.06-1.31,1.64-2l.29-.34c.49-.58,1-1.17,1.53-1.78l.61-.69L81,184.94c.26-.29.54-.58.81-.87.54-.59,1.08-1.17,1.66-1.78-.31-.07-.57-.12-.8-.15a1.23,1.23,0,0,0-.29,0h0l-.23,0a14.26,14.26,0,0,0-6.61,2.09q-5.85,3.19-15.08,12.5-4,4-21.57,23.4L37.13,222q-5.76,6.36-7.15,7.81A51.74,51.74,0,0,1,26,233.49c-2.46,2.12-4.54,3.19-6.23,3.19a2.14,2.14,0,0,1-1.62-.66,2.38,2.38,0,0,1-.62-1.7c0-1,.36-1.55,1.1-1.55a.86.86,0,0,1,.53.15,2.71,2.71,0,0,0,1.44.46,3.11,3.11,0,0,0,.62-.06,3,3,0,0,0,1.57-.86,3,3,0,0,0,.89-2.2,2.3,2.3,0,0,0-2.62-2.58,4.81,4.81,0,0,0-4,2.12,6.67,6.67,0,0,0-1.29,4.07,4.23,4.23,0,0,0,1.08,3,3.63,3.63,0,0,0,2,1.07,5.73,5.73,0,0,0,.85.07q3.61,0,9.46-5.59,2.16-2,18.46-20.09,11-12.12,14.58-15.82a96.42,96.42,0,0,1,7.87-7.2q6.34-5.13,10.78-5.93c-.7.67-1.91,1.74-3.6,3.23A223,223,0,0,0,58.56,205q-2.78,3.06-5.29,6.13-12.44,15-12.43,23.66h0a3.39,3.39,0,0,0,.61,2.13,1.88,1.88,0,0,0,1.56.8q2.09,0,4.74-2.59A114.4,114.4,0,0,0,57.1,224.6l3.83-4.84q28.09-35.1,37.5-36.15-1.56,1.56-4.75,4.68a305.08,305.08,0,0,0-21.61,23.09,79.82,79.82,0,0,0-8.93,12.5A19.58,19.58,0,0,0,60.37,233a5,5,0,0,0,1.06,3.26,3.23,3.23,0,0,0,2.62,1.33,9.9,9.9,0,0,0,4.14-1.06,45.38,45.38,0,0,0,6-3.61c1.58-1.09,2.92-2.08,4-2.95a9.17,9.17,0,0,0-.9,3.86,4.92,4.92,0,0,0,1,3.12,3,3,0,0,0,2.42,1.29q3.3,0,9.83-5.24l.89-.73-3.71,4.83h7l3.73-4.94a89.4,89.4,0,0,1,10.41-10.83q8.92-8.11,13.25-8.12c.66,0,1,.22,1,.68a2.25,2.25,0,0,1-.47,1.27c-.32.45-1.43,1.79-3.33,4l-5,5.73a28.08,28.08,0,0,0-3.67,5A8.77,8.77,0,0,0,109.6,234a3.69,3.69,0,0,0,1.18,2.72,3.76,3.76,0,0,0,2.73,1.15q2.89,0,8.59-4c1.11-.8,2.11-1.54,3-2.24,0,.07,0,.14,0,.21a4.86,4.86,0,0,0,1.22,3.31,3.68,3.68,0,0,0,2.85,1.4q4.91,0,14.49-7.91l-7,9.28a80.54,80.54,0,0,0-13.88,6.24q-11.37,6.5-11.37,11.4a2.39,2.39,0,0,0,1,1.91,3.54,3.54,0,0,0,2.3.8,19.27,19.27,0,0,0,7.53-2,40,40,0,0,0,9.24-5.82,67.36,67.36,0,0,0,11.67-13,69.86,69.86,0,0,0,7.88-3.41l-.35-1c-.95.49-1.86.92-2.73,1.31m-19.59,14.21q-7.75,8.52-12.93,8.52a2.11,2.11,0,0,1-1.4-.48,1.44,1.44,0,0,1-.57-1.16c0-1.06.68-2.41,2-4a28.63,28.63,0,0,1,6.35-5.29,56.79,56.79,0,0,1,13.42-6.53,65.62,65.62,0,0,1-6.92,9m15-21a41.81,41.81,0,0,1-7.5,5.57c-2.71,1.59-4.73,2.38-6,2.38-.79,0-1.18-.28-1.18-.84a3.6,3.6,0,0,1,.61-1.75c.4-.68,1.23-1.86,2.47-3.54a62.63,62.63,0,0,1,5.26-6.21,63.39,63.39,0,0,1,6.34-5.19c3.17-2.34,5.05-3.68,5.66-4.05a2.18,2.18,0,0,1,1.68-.36c.91.23,1.39.67,1.44,1.33a5,5,0,0,1-.4,1.54,11.25,11.25,0,0,1-.89,2,35.83,35.83,0,0,1-7.45,9.13"/></svg>